<?xml version="1.0" encoding="us-ascii" standalone="no"?><svg xmlns="http://www.w3.org/2000/svg" xmlns:xlink="http://www.w3.org/1999/xlink" contentStyleType="text/css" height="825px" preserveAspectRatio="none" style="width:628px;height:825px;background:#FFFFFF;" version="1.1" viewBox="0 0 628 825" width="628px" zoomAndPan="magnify"><defs/><g><text fill="#000000" font-family="sans-serif" font-size="14" font-weight="bold" lengthAdjust="spacing" textLength="341" x="142" y="32.9951">Activity Diagram &#8212; Anomaly Detection Flow</text><rect fill="none" height="20.9531" style="stroke:none;stroke-width:1.0;" width="595" x="15" y="50.042"/><ellipse cx="88" cy="85.9951" fill="#222222" rx="10" ry="10" style="stroke:#222222;stroke-width:1.0;"/><rect fill="#FFFFFF" height="47.9375" rx="12.5" ry="12.5" style="stroke:#222222;stroke-width:0.5;" width="134" x="21" y="115.9951"/><text fill="#000000" font-family="sans-serif" font-size="12" lengthAdjust="spacing" textLength="114" x="31" y="137.1338">GET /ml/anomalies</text><text fill="#000000" font-family="sans-serif" font-size="12" lengthAdjust="spacing" textLength="77" x="31" y="151.1025">?last_n=200</text><rect fill="#FFFFFF" height="47.9375" rx="12.5" ry="12.5" style="stroke:#222222;stroke-width:0.5;" width="118" x="29" y="723.4951"/><text fill="#000000" font-family="sans-serif" font-size="12" lengthAdjust="spacing" textLength="96" x="39" y="744.6338">Receive 200 OK</text><text fill="#000000" font-family="sans-serif" font-size="12" lengthAdjust="spacing" textLength="98" x="39" y="758.6025">Anomaly Report</text><ellipse cx="88" cy="802.4326" fill="none" rx="11" ry="11" style="stroke:#222222;stroke-width:1.0;"/><ellipse cx="88" cy="802.4326" fill="#222222" rx="6" ry="6" style="stroke:#222222;stroke-width:1.0;"/><line style="stroke:#000000;stroke-width:1.5;" x1="15" x2="15" y1="50.042" y2="813.4326"/><rect fill="#FFFFFF" height="47.9375" rx="12.5" ry="12.5" style="stroke:#222222;stroke-width:0.5;" width="148" x="261.25" y="183.9326"/><text fill="#000000" font-family="sans-serif" font-size="12" lengthAdjust="spacing" textLength="120" x="271.25" y="205.0713">Fetch last N orders</text><text fill="#000000" font-family="sans-serif" font-size="12" lengthAdjust="spacing" textLength="128" x="271.25" y="219.04">SELECT FROM orders</text><rect fill="#FFFFFF" height="47.9375" rx="12.5" ry="12.5" style="stroke:#222222;stroke-width:0.5;" width="206" x="232.25" y="251.8701"/><text fill="#000000" font-family="sans-serif" font-size="12" lengthAdjust="spacing" textLength="122" x="242.25" y="273.0088">Build feature matrix</text><text fill="#000000" font-family="sans-serif" font-size="12" lengthAdjust="spacing" textLength="186" x="242.25" y="286.9775">distance, weather, customs...</text><polygon fill="#FFFFFF" points="308.25,455.6826,362.25,455.6826,374.25,467.6826,362.25,479.6826,308.25,479.6826,296.25,467.6826,308.25,455.6826" style="stroke:#222222;stroke-width:0.5;"/><text fill="#000000" font-family="sans-serif" font-size="11" lengthAdjust="spacing" textLength="54" x="308.25" y="471.4907">Anomaly?</text><text fill="#000000" font-family="sans-serif" font-size="11" lengthAdjust="spacing" textLength="22" x="274.25" y="465.0884">YES</text><text fill="#000000" font-family="sans-serif" font-size="11" lengthAdjust="spacing" textLength="17" x="374.25" y="465.0884">NO</text><rect fill="#FFFFFF" height="47.9375" rx="12.5" ry="12.5" style="stroke:#222222;stroke-width:0.5;" width="181" x="165" y="489.6826"/><text fill="#000000" font-family="sans-serif" font-size="12" lengthAdjust="spacing" textLength="106" x="175" y="510.8213">Flag as ANOMALY</text><text fill="#000000" font-family="sans-serif" font-size="12" lengthAdjust="spacing" textLength="161" x="175" y="524.79">type, description, severity</text><rect fill="#FFFFFF" height="47.9375" rx="12.5" ry="12.5" style="stroke:#222222;stroke-width:0.5;" width="163" x="174" y="557.6201"/><text fill="#000000" font-family="sans-serif" font-size="12" lengthAdjust="spacing" textLength="143" x="184" y="578.7588">INSERT INTO anomalies</text><text fill="#000000" font-family="sans-serif" font-size="12" lengthAdjust="spacing" textLength="75" x="184" y="592.7275">db.commit()</text><rect fill="#FFFFFF" height="47.9375" rx="12.5" ry="12.5" style="stroke:#222222;stroke-width:0.5;" width="98" x="366" y="489.6826"/><text fill="#000000" font-family="sans-serif" font-size="12" lengthAdjust="spacing" textLength="78" x="376" y="510.8213">Mark Normal</text><text fill="#000000" font-family="sans-serif" font-size="12" lengthAdjust="spacing" textLength="25" x="376" y="524.79">skip</text><polygon fill="#FFFFFF" points="335.25,611.5576,347.25,623.5576,335.25,635.5576,323.25,623.5576,335.25,611.5576" style="stroke:#222222;stroke-width:0.5;"/><rect fill="#FFFFFF" height="47.9375" rx="12.5" ry="12.5" style="stroke:#222222;stroke-width:0.5;" width="208" x="231.25" y="655.5576"/><text fill="#000000" font-family="sans-serif" font-size="12" lengthAdjust="spacing" textLength="118" x="241.25" y="676.6963">Build AnomalyOut[]</text><text fill="#000000" font-family="sans-serif" font-size="12" lengthAdjust="spacing" textLength="188" x="241.25" y="690.665">{ anomalies[], total_flagged }</text><line style="stroke:#000000;stroke-width:1.5;" x1="159" x2="159" y1="50.042" y2="813.4326"/><rect fill="#FFFFFF" height="47.9375" rx="12.5" ry="12.5" style="stroke:#222222;stroke-width:0.5;" width="130" x="474" y="319.8076"/><text fill="#000000" font-family="sans-serif" font-size="12" lengthAdjust="spacing" textLength="93" x="484" y="340.9463">IsolationForest</text><text fill="#000000" font-family="sans-serif" font-size="12" lengthAdjust="spacing" textLength="110" x="484" y="354.915">score_samples(X)</text><rect fill="#FFFFFF" height="47.9375" rx="12.5" ry="12.5" style="stroke:#222222;stroke-width:0.5;" width="122" x="478" y="387.7451"/><text fill="#000000" font-family="sans-serif" font-size="12" lengthAdjust="spacing" textLength="98" x="488" y="408.8838">Classify severity</text><text fill="#000000" font-family="sans-serif" font-size="12" lengthAdjust="spacing" textLength="102" x="488" y="422.8525">critical / warning</text><line style="stroke:#000000;stroke-width:1.5;" x1="468" x2="468" y1="50.042" y2="813.4326"/><line style="stroke:#000000;stroke-width:1.5;" x1="608" x2="608" y1="50.042" y2="813.4326"/><line style="stroke:#222222;stroke-width:1.0;" x1="88" x2="88" y1="95.9951" y2="115.9951"/><polygon fill="#222222" points="84,105.9951,88,115.9951,92,105.9951,88,109.9951" style="stroke:#222222;stroke-width:1.0;"/><line style="stroke:#222222;stroke-width:1.0;" x1="88" x2="88" y1="771.4326" y2="791.4326"/><polygon fill="#222222" points="84,781.4326,88,791.4326,92,781.4326,88,785.4326" style="stroke:#222222;stroke-width:1.0;"/><line style="stroke:#222222;stroke-width:1.0;" x1="335.25" x2="335.25" y1="231.8701" y2="251.8701"/><polygon fill="#222222" points="331.25,241.8701,335.25,251.8701,339.25,241.8701,335.25,245.8701" style="stroke:#222222;stroke-width:1.0;"/><line style="stroke:#222222;stroke-width:1.0;" x1="255.5" x2="255.5" y1="537.6201" y2="557.6201"/><polygon fill="#222222" points="251.5,547.6201,255.5,557.6201,259.5,547.6201,255.5,551.6201" style="stroke:#222222;stroke-width:1.0;"/><line style="stroke:#222222;stroke-width:1.0;" x1="296.25" x2="255.5" y1="467.6826" y2="467.6826"/><line style="stroke:#222222;stroke-width:1.0;" x1="255.5" x2="255.5" y1="467.6826" y2="489.6826"/><polygon fill="#222222" points="251.5,479.6826,255.5,489.6826,259.5,479.6826,255.5,483.6826" style="stroke:#222222;stroke-width:1.0;"/><line style="stroke:#222222;stroke-width:1.0;" x1="374.25" x2="415" y1="467.6826" y2="467.6826"/><line style="stroke:#222222;stroke-width:1.0;" x1="415" x2="415" y1="467.6826" y2="489.6826"/><polygon fill="#222222" points="411,479.6826,415,489.6826,419,479.6826,415,483.6826" style="stroke:#222222;stroke-width:1.0;"/><line style="stroke:#222222;stroke-width:1.0;" x1="255.5" x2="255.5" y1="605.5576" y2="623.5576"/><line style="stroke:#222222;stroke-width:1.0;" x1="255.5" x2="323.25" y1="623.5576" y2="623.5576"/><polygon fill="#222222" points="313.25,619.5576,323.25,623.5576,313.25,627.5576,317.25,623.5576" style="stroke:#222222;stroke-width:1.0;"/><line style="stroke:#222222;stroke-width:1.0;" x1="415" x2="415" y1="537.6201" y2="623.5576"/><line style="stroke:#222222;stroke-width:1.0;" x1="415" x2="347.25" y1="623.5576" y2="623.5576"/><polygon fill="#222222" points="357.25,619.5576,347.25,623.5576,357.25,627.5576,353.25,623.5576" style="stroke:#222222;stroke-width:1.0;"/><line style="stroke:#222222;stroke-width:1.0;" x1="335.25" x2="335.25" y1="635.5576" y2="655.5576"/><polygon fill="#222222" points="331.25,645.5576,335.25,655.5576,339.25,645.5576,335.25,649.5576" style="stroke:#222222;stroke-width:1.0;"/><line style="stroke:#222222;stroke-width:1.0;" x1="539" x2="539" y1="367.7451" y2="387.7451"/><polygon fill="#222222" points="535,377.7451,539,387.7451,543,377.7451,539,381.7451" style="stroke:#222222;stroke-width:1.0;"/><line style="stroke:#222222;stroke-width:1.0;" x1="88" x2="88" y1="163.9326" y2="168.9326"/><line style="stroke:#222222;stroke-width:1.0;" x1="88" x2="335.25" y1="168.9326" y2="168.9326"/><line style="stroke:#222222;stroke-width:1.0;" x1="335.25" x2="335.25" y1="168.9326" y2="183.9326"/><polygon fill="#222222" points="331.25,173.9326,335.25,183.9326,339.25,173.9326,335.25,177.9326" style="stroke:#222222;stroke-width:1.0;"/><line style="stroke:#222222;stroke-width:1.0;" x1="335.25" x2="335.25" y1="299.8076" y2="304.8076"/><line style="stroke:#222222;stroke-width:1.0;" x1="335.25" x2="539" y1="304.8076" y2="304.8076"/><line style="stroke:#222222;stroke-width:1.0;" x1="539" x2="539" y1="304.8076" y2="319.8076"/><polygon fill="#222222" points="535,309.8076,539,319.8076,543,309.8076,539,313.8076" style="stroke:#222222;stroke-width:1.0;"/><line style="stroke:#222222;stroke-width:1.0;" x1="539" x2="539" y1="435.6826" y2="440.6826"/><line style="stroke:#222222;stroke-width:1.0;" x1="539" x2="335.25" y1="440.6826" y2="440.6826"/><line style="stroke:#222222;stroke-width:1.0;" x1="335.25" x2="335.25" y1="440.6826" y2="455.6826"/><polygon fill="#222222" points="331.25,445.6826,335.25,455.6826,339.25,445.6826,335.25,449.6826" style="stroke:#222222;stroke-width:1.0;"/><line style="stroke:#222222;stroke-width:1.0;" x1="335.25" x2="335.25" y1="703.4951" y2="708.4951"/><line style="stroke:#222222;stroke-width:1.0;" x1="335.25" x2="88" y1="708.4951" y2="708.4951"/><line style="stroke:#222222;stroke-width:1.0;" x1="88" x2="88" y1="708.4951" y2="723.4951"/><polygon fill="#222222" points="84,713.4951,88,723.4951,92,713.4951,88,717.4951" style="stroke:#222222;stroke-width:1.0;"/><text fill="#000000" font-family="sans-serif" font-size="18" lengthAdjust="spacing" textLength="56" x="59" y="66.75">Admin</text><text fill="#000000" font-family="sans-serif" font-size="18" lengthAdjust="spacing" textLength="64" x="281.5" y="66.75">FastAPI</text><text fill="#000000" font-family="sans-serif" font-size="18" lengthAdjust="spacing" textLength="98" x="489" y="66.75">ML Service</text><!--SRC=[XP7TYjim48Nl_HG3lN4W94ikRShYJUqIcjWboKMNzHAqyjWHaIKZoN53KzY7w1FsIJfEa_s1q5xfvnpD-JHZTq8rpB0QdXZVLKQtgfXggGrqM-7GioywuqxiXJlSQLEW-UlvC9bChbd-LyeOtLsjK0XMQrNy8-FYk1hXEU4aGdJcW4-2LVsZty-_85AwPfBkq27fMa4YTUTvnwYeXJfwrZ7ZlE1pl8PnBSViP1TeStKhcNKRzN5oSnEIFw5Jz7Lsz8847Tz2hq8A9sHoh-9vF5r3iimMvxlG2-vQ8GieaRdM8DJC6V4zLuMWKCLn21qfMpH3uArrkhQZqQYFMinXXMOlE5BQp6h9Ul146xGkLvRJPcDPtKYq_hS1vKm9neho01RtQAW5kUAq2CuaZA5ZHWbLlVk4AC4_j-Ps00IXmB-FLmCF84Wagu1PYD9i4StlS-KE3S4MQAbeqwCCNuB2_i4iNSNBDSpITGPl6bWyZRYkQ-5yOaHf4VmqEoKicDb1gWqvwJyxqP1ERIal7JkJPQrxUCpLZzUY3uz3SDenkIa9ii82VeQlimoMo57i4MXaa7t9rMNuIsoqSI4DMpT_0000]--></g></svg>