<?xml version="1.0" encoding="us-ascii" standalone="no"?><svg xmlns="http://www.w3.org/2000/svg" xmlns:xlink="http://www.w3.org/1999/xlink" contentStyleType="text/css" height="795px" preserveAspectRatio="none" style="width:615px;height:795px;background:#FFFFFF;" version="1.1" viewBox="0 0 615 795" width="615px" zoomAndPan="magnify"><defs/><g><text fill="#000000" font-family="sans-serif" font-size="14" font-weight="bold" lengthAdjust="spacing" textLength="311" x="150.5" y="32.9951">Activity Diagram &#8212; Order Creation Flow</text><rect fill="none" height="20.9531" style="stroke:none;stroke-width:1.0;" width="582" x="15" y="50.042"/><ellipse cx="108" cy="85.9951" fill="#222222" rx="10" ry="10" style="stroke:#222222;stroke-width:1.0;"/><rect fill="#FFFFFF" height="47.9375" rx="12.5" ry="12.5" style="stroke:#222222;stroke-width:0.5;" width="174" x="21" y="115.9951"/><text fill="#000000" font-family="sans-serif" font-size="12" lengthAdjust="spacing" textLength="90" x="31" y="137.1338">Fill Order Form</text><text fill="#000000" font-family="sans-serif" font-size="12" lengthAdjust="spacing" textLength="154" x="31" y="151.1025">(branch, supplier, items)</text><rect fill="#FFFFFF" height="33.9688" rx="12.5" ry="12.5" style="stroke:#222222;stroke-width:0.5;" width="152" x="32" y="183.9326"/><text fill="#000000" font-family="sans-serif" font-size="12" lengthAdjust="spacing" textLength="132" x="42" y="205.0713">Submit POST /orders/</text><rect fill="#FFFFFF" height="47.9375" rx="12.5" ry="12.5" style="stroke:#222222;stroke-width:0.5;" width="150" x="33" y="693.4951"/><text fill="#000000" font-family="sans-serif" font-size="12" lengthAdjust="spacing" textLength="130" x="43" y="714.6338">Receive 201 Created</text><text fill="#000000" font-family="sans-serif" font-size="12" lengthAdjust="spacing" textLength="127" x="43" y="728.6025">{ order, delay_risk }</text><ellipse cx="108" cy="772.4326" fill="none" rx="11" ry="11" style="stroke:#222222;stroke-width:1.0;"/><ellipse cx="108" cy="772.4326" fill="#222222" rx="6" ry="6" style="stroke:#222222;stroke-width:1.0;"/><line style="stroke:#000000;stroke-width:1.5;" x1="15" x2="15" y1="50.042" y2="783.4326"/><rect fill="#FFFFFF" height="47.9375" rx="12.5" ry="12.5" style="stroke:#222222;stroke-width:0.5;" width="164" x="319" y="237.9014"/><text fill="#000000" font-family="sans-serif" font-size="12" lengthAdjust="spacing" textLength="118" x="329" y="259.04">Validate JWT Token</text><text fill="#000000" font-family="sans-serif" font-size="12" lengthAdjust="spacing" textLength="144" x="329" y="273.0088">check role permissions</text><polygon fill="#FFFFFF" points="384.5,305.8389,417.5,305.8389,429.5,317.8389,417.5,329.8389,384.5,329.8389,372.5,317.8389,384.5,305.8389" style="stroke:#222222;stroke-width:0.5;"/><text fill="#000000" font-family="sans-serif" font-size="11" lengthAdjust="spacing" textLength="33" x="384.5" y="321.647">Valid?</text><text fill="#000000" font-family="sans-serif" font-size="11" lengthAdjust="spacing" textLength="22" x="350.5" y="315.2446">YES</text><text fill="#000000" font-family="sans-serif" font-size="11" lengthAdjust="spacing" textLength="17" x="429.5" y="315.2446">NO</text><rect fill="#FFFFFF" height="47.9375" rx="12.5" ry="12.5" style="stroke:#222222;stroke-width:0.5;" width="171" x="214" y="339.8389"/><text fill="#000000" font-family="sans-serif" font-size="12" lengthAdjust="spacing" textLength="151" x="224" y="360.9775">Verify Branch &amp; Supplier</text><text fill="#000000" font-family="sans-serif" font-size="12" lengthAdjust="spacing" textLength="63" x="224" y="374.9463">DB lookup</text><rect fill="#FFFFFF" height="47.9375" rx="12.5" ry="12.5" style="stroke:#222222;stroke-width:0.5;" width="189" x="205" y="421.7451"/><text fill="#000000" font-family="sans-serif" font-size="12" lengthAdjust="spacing" textLength="93" x="215" y="442.8838">predict_delay()</text><text fill="#000000" font-family="sans-serif" font-size="12" lengthAdjust="spacing" textLength="169" x="215" y="456.8525">RandomForest &#8594; risk_class</text><rect fill="#FFFFFF" height="47.9375" rx="12.5" ry="12.5" style="stroke:#222222;stroke-width:0.5;" width="140" x="229.5" y="489.6826"/><text fill="#000000" font-family="sans-serif" font-size="12" lengthAdjust="spacing" textLength="120" x="239.5" y="510.8213">Generate order_ref</text><text fill="#000000" font-family="sans-serif" font-size="12" lengthAdjust="spacing" textLength="81" x="239.5" y="524.79">ORD-{uuid8}</text><rect fill="#FFFFFF" height="47.9375" rx="12.5" ry="12.5" style="stroke:#222222;stroke-width:0.5;" width="153" x="223" y="557.6201"/><text fill="#000000" font-family="sans-serif" font-size="12" lengthAdjust="spacing" textLength="133" x="233" y="578.7588">INSERT order + items</text><text fill="#000000" font-family="sans-serif" font-size="12" lengthAdjust="spacing" textLength="75" x="233" y="592.7275">db.commit()</text><rect fill="#FFFFFF" height="47.9375" rx="12.5" ry="12.5" style="stroke:#222222;stroke-width:0.5;" width="130" x="234.5" y="625.5576"/><text fill="#000000" font-family="sans-serif" font-size="12" lengthAdjust="spacing" textLength="110" x="244.5" y="646.6963">UPDATE inventory</text><text fill="#000000" font-family="sans-serif" font-size="12" lengthAdjust="spacing" textLength="82" x="244.5" y="660.665">deduct stock</text><rect fill="#FFFFFF" height="33.9688" rx="12.5" ry="12.5" style="stroke:#222222;stroke-width:0.5;" width="177" x="414" y="339.8389"/><text fill="#000000" font-family="sans-serif" font-size="12" lengthAdjust="spacing" textLength="157" x="424" y="360.9775">Return 401 Unauthorized</text><ellipse cx="502.5" cy="418.7764" fill="none" rx="11" ry="11" style="stroke:#222222;stroke-width:1.0;"/><ellipse cx="502.5" cy="418.7764" fill="#222222" rx="6" ry="6" style="stroke:#222222;stroke-width:1.0;"/><line style="stroke:#000000;stroke-width:1.5;" x1="199" x2="199" y1="50.042" y2="783.4326"/><line style="stroke:#000000;stroke-width:1.5;" x1="595" x2="595" y1="50.042" y2="783.4326"/><line style="stroke:#222222;stroke-width:1.0;" x1="108" x2="108" y1="95.9951" y2="115.9951"/><polygon fill="#222222" points="104,105.9951,108,115.9951,112,105.9951,108,109.9951" style="stroke:#222222;stroke-width:1.0;"/><line style="stroke:#222222;stroke-width:1.0;" x1="108" x2="108" y1="163.9326" y2="183.9326"/><polygon fill="#222222" points="104,173.9326,108,183.9326,112,173.9326,108,177.9326" style="stroke:#222222;stroke-width:1.0;"/><line style="stroke:#222222;stroke-width:1.0;" x1="108" x2="108" y1="741.4326" y2="761.4326"/><polygon fill="#222222" points="104,751.4326,108,761.4326,112,751.4326,108,755.4326" style="stroke:#222222;stroke-width:1.0;"/><line style="stroke:#222222;stroke-width:1.0;" x1="299.5" x2="299.5" y1="387.7764" y2="421.7451"/><polygon fill="#222222" points="295.5,411.7451,299.5,421.7451,303.5,411.7451,299.5,415.7451" style="stroke:#222222;stroke-width:1.0;"/><line style="stroke:#222222;stroke-width:1.0;" x1="299.5" x2="299.5" y1="469.6826" y2="489.6826"/><polygon fill="#222222" points="295.5,479.6826,299.5,489.6826,303.5,479.6826,299.5,483.6826" style="stroke:#222222;stroke-width:1.0;"/><line style="stroke:#222222;stroke-width:1.0;" x1="299.5" x2="299.5" y1="537.6201" y2="557.6201"/><polygon fill="#222222" points="295.5,547.6201,299.5,557.6201,303.5,547.6201,299.5,551.6201" style="stroke:#222222;stroke-width:1.0;"/><line style="stroke:#222222;stroke-width:1.0;" x1="299.5" x2="299.5" y1="605.5576" y2="625.5576"/><polygon fill="#222222" points="295.5,615.5576,299.5,625.5576,303.5,615.5576,299.5,619.5576" style="stroke:#222222;stroke-width:1.0;"/><line style="stroke:#222222;stroke-width:1.0;" x1="502.5" x2="502.5" y1="373.8076" y2="407.7764"/><polygon fill="#222222" points="498.5,397.7764,502.5,407.7764,506.5,397.7764,502.5,401.7764" style="stroke:#222222;stroke-width:1.0;"/><line style="stroke:#222222;stroke-width:1.0;" x1="372.5" x2="299.5" y1="317.8389" y2="317.8389"/><line style="stroke:#222222;stroke-width:1.0;" x1="299.5" x2="299.5" y1="317.8389" y2="339.8389"/><polygon fill="#222222" points="295.5,329.8389,299.5,339.8389,303.5,329.8389,299.5,333.8389" style="stroke:#222222;stroke-width:1.0;"/><line style="stroke:#222222;stroke-width:1.0;" x1="429.5" x2="502.5" y1="317.8389" y2="317.8389"/><line style="stroke:#222222;stroke-width:1.0;" x1="502.5" x2="502.5" y1="317.8389" y2="339.8389"/><polygon fill="#222222" points="498.5,329.8389,502.5,339.8389,506.5,329.8389,502.5,333.8389" style="stroke:#222222;stroke-width:1.0;"/><line style="stroke:#222222;stroke-width:1.0;" x1="299.5" x2="299.5" y1="673.4951" y2="678.4951"/><line style="stroke:#222222;stroke-width:1.0;" x1="299.5" x2="108" y1="678.4951" y2="678.4951"/><line style="stroke:#222222;stroke-width:1.0;" x1="108" x2="108" y1="678.4951" y2="693.4951"/><polygon fill="#222222" points="104,683.4951,108,693.4951,112,683.4951,108,687.4951" style="stroke:#222222;stroke-width:1.0;"/><line style="stroke:#222222;stroke-width:1.0;" x1="401" x2="401" y1="285.8389" y2="305.8389"/><polygon fill="#222222" points="397,295.8389,401,305.8389,405,295.8389,401,299.8389" style="stroke:#222222;stroke-width:1.0;"/><line style="stroke:#222222;stroke-width:1.0;" x1="108" x2="108" y1="217.9014" y2="222.9014"/><line style="stroke:#222222;stroke-width:1.0;" x1="108" x2="401" y1="222.9014" y2="222.9014"/><line style="stroke:#222222;stroke-width:1.0;" x1="401" x2="401" y1="222.9014" y2="237.9014"/><polygon fill="#222222" points="397,227.9014,401,237.9014,405,227.9014,401,231.9014" style="stroke:#222222;stroke-width:1.0;"/><text fill="#000000" font-family="sans-serif" font-size="18" lengthAdjust="spacing" textLength="40" x="87" y="66.75">Staff</text><text fill="#000000" font-family="sans-serif" font-size="18" lengthAdjust="spacing" textLength="64" x="365" y="66.75">FastAPI</text><!--SRC=[XP71YXD148Rl_HG5WinWT3LuaCn1aaqYws4JChChma3eJDTiYkdf7gfx4k96yEG3Y4-uJsBF9EebwBc- -klxALUHQIJB6ZQog1xOjaPTMsqPzbloADoVkImyxSWV9fOLyebvDXmEBo7_YsAs-ui9YcHjZVh7ZT_4nHF2azS8uxC7J4a-T4jFttx2eek4QqRfoHgOQxiNufXwMPP7uRnaBqPpqleCpYtNkOasB4sn7O1hcqOJyW32dTh5YHYbxQOc3yj5ci5LB-okaX0vbywFbpT7CRgNcfJq21y_PP3P2aqUmh2eW6tGR91hSYxOk4HG2L7Flu_1Rz50z7cMnW9WT8zCvG4clGayX_Iiaflf1BIrLTia7TSmAYhyMg6MXoZEpKeQPUjG19s7f-y_WCbLwq9Bv_g53sYGExrUVirOvcQnchvyR5jIxxxspCrjEbjb9m9UdChdHcrU5ROExQEuf-wMqt4s0p8xDDxo8H2esiA3yxQe4e7Q8KItYxxF2dtB1jw-VWDtHhP-Qvc-eEg20ju8D8hAlwy9V86qGnY6XVvzg7BpU58QGDzstJM3ODm5_080]--></g></svg>