<?xml version="1.0" encoding="us-ascii" standalone="no"?><svg xmlns="http://www.w3.org/2000/svg" xmlns:xlink="http://www.w3.org/1999/xlink" contentStyleType="text/css" height="588px" preserveAspectRatio="none" style="width:862px;height:588px;background:#FFFFFF;" version="1.1" viewBox="0 0 862 588" width="862px" zoomAndPan="magnify"><defs/><g><text fill="#000000" font-family="sans-serif" font-size="14" font-weight="bold" lengthAdjust="spacing" textLength="329" x="265" y="32.9951">Activity Diagram &#8212; Inventory Update Flow</text><rect fill="none" height="20.9531" style="stroke:none;stroke-width:1.0;" width="829" x="15" y="50.042"/><ellipse cx="115" cy="85.9951" fill="#222222" rx="10" ry="10" style="stroke:#222222;stroke-width:1.0;"/><rect fill="#FFFFFF" height="47.9375" rx="12.5" ry="12.5" style="stroke:#222222;stroke-width:0.5;" width="188" x="21" y="115.9951"/><text fill="#000000" font-family="sans-serif" font-size="12" lengthAdjust="spacing" textLength="136" x="31" y="137.1338">PATCH /inventory/{id}</text><text fill="#000000" font-family="sans-serif" font-size="12" lengthAdjust="spacing" textLength="168" x="31" y="151.1025">{ quantity, reorder_point }</text><ellipse cx="115" cy="565.5811" fill="none" rx="11" ry="11" style="stroke:#222222;stroke-width:1.0;"/><ellipse cx="115" cy="565.5811" fill="#222222" rx="6" ry="6" style="stroke:#222222;stroke-width:1.0;"/><line style="stroke:#000000;stroke-width:1.5;" x1="15" x2="15" y1="50.042" y2="576.5811"/><rect fill="#FFFFFF" height="33.9688" rx="12.5" ry="12.5" style="stroke:#222222;stroke-width:0.5;" width="161" x="518.25" y="183.9326"/><text fill="#000000" font-family="sans-serif" font-size="12" lengthAdjust="spacing" textLength="141" x="528.25" y="205.0713">Fetch inventory record</text><polygon fill="#FFFFFF" points="578.75,237.9014,618.75,237.9014,630.75,249.9014,618.75,261.9014,578.75,261.9014,566.75,249.9014,578.75,237.9014" style="stroke:#222222;stroke-width:0.5;"/><text fill="#000000" font-family="sans-serif" font-size="11" lengthAdjust="spacing" textLength="40" x="578.75" y="253.7095">Found?</text><text fill="#000000" font-family="sans-serif" font-size="11" lengthAdjust="spacing" textLength="22" x="544.75" y="247.3071">YES</text><text fill="#000000" font-family="sans-serif" font-size="11" lengthAdjust="spacing" textLength="17" x="630.75" y="247.3071">NO</text><rect fill="#FFFFFF" height="33.9688" rx="12.5" ry="12.5" style="stroke:#222222;stroke-width:0.5;" width="121" x="378.5" y="271.9014"/><text fill="#000000" font-family="sans-serif" font-size="12" lengthAdjust="spacing" textLength="101" x="388.5" y="293.04">Update quantity</text><polygon fill="#FFFFFF" points="269.5,325.8701,325.5,325.8701,337.5,337.8701,325.5,349.8701,269.5,349.8701,257.5,337.8701,269.5,325.8701" style="stroke:#222222;stroke-width:0.5;"/><text fill="#000000" font-family="sans-serif" font-size="11" lengthAdjust="spacing" textLength="22" x="301.5" y="360.0806">YES</text><text fill="#000000" font-family="sans-serif" font-size="11" lengthAdjust="spacing" textLength="56" x="269.5" y="341.6782">qty == 0?</text><rect fill="#FFFFFF" height="33.9688" rx="12.5" ry="12.5" style="stroke:#222222;stroke-width:0.5;" width="157" x="219" y="382.6748"/><text fill="#000000" font-family="sans-serif" font-size="12" lengthAdjust="spacing" textLength="137" x="229" y="403.8135">status = out_of_stock</text><polygon fill="#FFFFFF" points="408,325.8701,534,325.8701,546,337.8701,534,349.8701,408,349.8701,396,337.8701,408,325.8701" style="stroke:#222222;stroke-width:0.5;"/><text fill="#000000" font-family="sans-serif" font-size="11" lengthAdjust="spacing" textLength="22" x="475" y="360.0806">YES</text><text fill="#000000" font-family="sans-serif" font-size="11" lengthAdjust="spacing" textLength="126" x="408" y="341.6782">qty &lt;= reorder_point?</text><text fill="#000000" font-family="sans-serif" font-size="11" lengthAdjust="spacing" textLength="17" x="546" y="335.2759">NO</text><rect fill="#FFFFFF" height="33.9688" rx="12.5" ry="12.5" style="stroke:#222222;stroke-width:0.5;" width="138" x="402" y="382.6748"/><text fill="#000000" font-family="sans-serif" font-size="12" lengthAdjust="spacing" textLength="118" x="412" y="403.8135">status = low_stock</text><rect fill="#FFFFFF" height="33.9688" rx="12.5" ry="12.5" style="stroke:#222222;stroke-width:0.5;" width="93" x="566" y="379.2725"/><text fill="#000000" font-family="sans-serif" font-size="12" lengthAdjust="spacing" textLength="73" x="576" y="400.4111">status = ok</text><rect fill="#FFFFFF" height="47.9375" rx="12.5" ry="12.5" style="stroke:#222222;stroke-width:0.5;" width="145" x="366.5" y="456.6436"/><text fill="#000000" font-family="sans-serif" font-size="12" lengthAdjust="spacing" textLength="75" x="376.5" y="477.7822">db.commit()</text><text fill="#000000" font-family="sans-serif" font-size="12" lengthAdjust="spacing" textLength="125" x="376.5" y="491.751">Return InventoryOut</text><rect fill="#FFFFFF" height="33.9688" rx="12.5" ry="12.5" style="stroke:#222222;stroke-width:0.5;" width="159" x="679" y="271.9014"/><text fill="#000000" font-family="sans-serif" font-size="12" lengthAdjust="spacing" textLength="139" x="689" y="293.04">Return 404 Not Found</text><polygon fill="#FFFFFF" points="598.75,510.5811,610.75,522.5811,598.75,534.5811,586.75,522.5811,598.75,510.5811" style="stroke:#222222;stroke-width:0.5;"/><line style="stroke:#000000;stroke-width:1.5;" x1="213" x2="213" y1="50.042" y2="576.5811"/><line style="stroke:#000000;stroke-width:1.5;" x1="842" x2="842" y1="50.042" y2="576.5811"/><line style="stroke:#222222;stroke-width:1.0;" x1="115" x2="115" y1="95.9951" y2="115.9951"/><polygon fill="#222222" points="111,105.9951,115,115.9951,119,105.9951,115,109.9951" style="stroke:#222222;stroke-width:1.0;"/><line style="stroke:#222222;stroke-width:1.0;" x1="297.5" x2="297.5" y1="349.8701" y2="382.6748"/><polygon fill="#222222" points="293.5,372.6748,297.5,382.6748,301.5,372.6748,297.5,376.6748" style="stroke:#222222;stroke-width:1.0;"/><line style="stroke:#222222;stroke-width:1.0;" x1="297.5" x2="297.5" y1="416.6436" y2="436.6436"/><polygon fill="#222222" points="293.5,426.6436,297.5,436.6436,301.5,426.6436,297.5,430.6436" style="stroke:#222222;stroke-width:1.0;"/><line style="stroke:#222222;stroke-width:1.0;" x1="471" x2="471" y1="349.8701" y2="382.6748"/><polygon fill="#222222" points="467,372.6748,471,382.6748,475,372.6748,471,376.6748" style="stroke:#222222;stroke-width:1.0;"/><line style="stroke:#222222;stroke-width:1.0;" x1="471" x2="471" y1="416.6436" y2="436.6436"/><polygon fill="#222222" points="467,426.6436,471,436.6436,475,426.6436,471,430.6436" style="stroke:#222222;stroke-width:1.0;"/><line style="stroke:#222222;stroke-width:1.0;" x1="337.5" x2="396" y1="337.8701" y2="337.8701"/><polygon fill="#222222" points="386,333.8701,396,337.8701,386,341.8701,390,337.8701" style="stroke:#222222;stroke-width:1.0;"/><line style="stroke:#222222;stroke-width:1.0;" x1="439" x2="439" y1="305.8701" y2="310.8701"/><line style="stroke:#222222;stroke-width:1.0;" x1="439" x2="297.5" y1="310.8701" y2="310.8701"/><line style="stroke:#222222;stroke-width:1.0;" x1="297.5" x2="297.5" y1="310.8701" y2="325.8701"/><polygon fill="#222222" points="293.5,315.8701,297.5,325.8701,301.5,315.8701,297.5,319.8701" style="stroke:#222222;stroke-width:1.0;"/><line style="stroke:#222222;stroke-width:1.0;" x1="546" x2="612.5" y1="337.8701" y2="337.8701"/><line style="stroke:#222222;stroke-width:1.0;" x1="612.5" x2="612.5" y1="337.8701" y2="379.2725"/><polygon fill="#222222" points="608.5,369.2725,612.5,379.2725,616.5,369.2725,612.5,373.2725" style="stroke:#222222;stroke-width:1.0;"/><line style="stroke:#222222;stroke-width:1.0;" x1="612.5" x2="612.5" y1="413.2412" y2="436.6436"/><polygon fill="#222222" points="608.5,426.6436,612.5,436.6436,616.5,426.6436,612.5,430.6436" style="stroke:#222222;stroke-width:1.0;"/><line style="stroke:#222222;stroke-width:1.0;" x1="297.5" x2="612.5" y1="436.6436" y2="436.6436"/><line style="stroke:#222222;stroke-width:1.0;" x1="439" x2="439" y1="436.6436" y2="456.6436"/><polygon fill="#222222" points="435,446.6436,439,456.6436,443,446.6436,439,450.6436" style="stroke:#222222;stroke-width:1.0;"/><line style="stroke:#222222;stroke-width:1.0;" x1="566.75" x2="439" y1="249.9014" y2="249.9014"/><line style="stroke:#222222;stroke-width:1.0;" x1="439" x2="439" y1="249.9014" y2="271.9014"/><polygon fill="#222222" points="435,261.9014,439,271.9014,443,261.9014,439,265.9014" style="stroke:#222222;stroke-width:1.0;"/><line style="stroke:#222222;stroke-width:1.0;" x1="630.75" x2="758.5" y1="249.9014" y2="249.9014"/><line style="stroke:#222222;stroke-width:1.0;" x1="758.5" x2="758.5" y1="249.9014" y2="271.9014"/><polygon fill="#222222" points="754.5,261.9014,758.5,271.9014,762.5,261.9014,758.5,265.9014" style="stroke:#222222;stroke-width:1.0;"/><line style="stroke:#222222;stroke-width:1.0;" x1="439" x2="439" y1="504.5811" y2="522.5811"/><line style="stroke:#222222;stroke-width:1.0;" x1="439" x2="586.75" y1="522.5811" y2="522.5811"/><polygon fill="#222222" points="576.75,518.5811,586.75,522.5811,576.75,526.5811,580.75,522.5811" style="stroke:#222222;stroke-width:1.0;"/><line style="stroke:#222222;stroke-width:1.0;" x1="758.5" x2="758.5" y1="305.8701" y2="522.5811"/><line style="stroke:#222222;stroke-width:1.0;" x1="758.5" x2="610.75" y1="522.5811" y2="522.5811"/><polygon fill="#222222" points="620.75,518.5811,610.75,522.5811,620.75,526.5811,616.75,522.5811" style="stroke:#222222;stroke-width:1.0;"/><line style="stroke:#222222;stroke-width:1.0;" x1="598.75" x2="598.75" y1="217.9014" y2="237.9014"/><polygon fill="#222222" points="594.75,227.9014,598.75,237.9014,602.75,227.9014,598.75,231.9014" style="stroke:#222222;stroke-width:1.0;"/><line style="stroke:#222222;stroke-width:1.0;" x1="115" x2="115" y1="163.9326" y2="168.9326"/><line style="stroke:#222222;stroke-width:1.0;" x1="115" x2="598.75" y1="168.9326" y2="168.9326"/><line style="stroke:#222222;stroke-width:1.0;" x1="598.75" x2="598.75" y1="168.9326" y2="183.9326"/><polygon fill="#222222" points="594.75,173.9326,598.75,183.9326,602.75,173.9326,598.75,177.9326" style="stroke:#222222;stroke-width:1.0;"/><line style="stroke:#222222;stroke-width:1.0;" x1="598.75" x2="598.75" y1="534.5811" y2="539.5811"/><line style="stroke:#222222;stroke-width:1.0;" x1="598.75" x2="115" y1="539.5811" y2="539.5811"/><line style="stroke:#222222;stroke-width:1.0;" x1="115" x2="115" y1="539.5811" y2="554.5811"/><polygon fill="#222222" points="111,544.5811,115,554.5811,119,544.5811,115,548.5811" style="stroke:#222222;stroke-width:1.0;"/><text fill="#000000" font-family="sans-serif" font-size="18" lengthAdjust="spacing" textLength="40" x="94" y="66.75">Staff</text><text fill="#000000" font-family="sans-serif" font-size="18" lengthAdjust="spacing" textLength="64" x="495.5" y="66.75">FastAPI</text><!--SRC=[XP71Qi9048Rl-nG3lKGeLSHJqb2iRQWNbTeU2eAisOqk9ZjnCr54XJv4dx1FuaQDrLRiTUVxl_cPpQPAfzpm14Oyd8uDvbgqC4O3YuaYoRBZd8UavegMZsY4D7lcfbwlNqB-Knc3Yui6eNY2MbpPKH8NLp1I54je7dh0a-BZ8lJz-GLjFPUQq2pXFHMS90GnBXXRzub7qPfbn0qnjzTyQxr0LPLmTQN4Pg1NCCkvjlRbBHYvQpTCKMc2ZMST0S-esMklcHj82YTmZ5iujBJ7L0HEKDHzg01Df0RduxbVOG3keKtfz-nR0SziVT-7sc_U9cnLoZFm0NCQOZJC2CDfaPDn9ililNzUz9h77k9S0awd-sVPVgg5YehQOdGNOf8eSYe3_IefD_hdnDsSF7OgSWz4ezQ03XBiJc6HdUta3p3T0W00]--></g></svg>