<?xml version="1.0" encoding="us-ascii" standalone="no"?><svg xmlns="http://www.w3.org/2000/svg" xmlns:xlink="http://www.w3.org/1999/xlink" contentStyleType="text/css" height="994px" preserveAspectRatio="none" style="width:1410px;height:994px;background:#FFFFFF;" version="1.1" viewBox="0 0 1410 994" width="1410px" zoomAndPan="magnify"><defs/><g><text fill="#000000" font-family="sans-serif" font-size="14" font-weight="bold" lengthAdjust="spacing" textLength="255" x="567.54" y="22.9951">State Diagram &#8212; Order Lifecycle</text><ellipse cx="651.37" cy="232.2969" fill="#222222" rx="10" ry="10" style="stroke:#222222;stroke-width:1.0;"/><path d="M549.37,497.2969 L753.37,497.2969 A12.5,12.5 0 0 1 765.87,509.7969 L765.87,523.5938 L536.87,523.5938 L536.87,509.7969 A12.5,12.5 0 0 1 549.37,497.2969 " fill="#FFFFFF" style="stroke:#FFFFFF;stroke-width:1.0;"/><rect fill="none" height="153.5625" rx="12.5" ry="12.5" style="stroke:#222222;stroke-width:0.5;" width="229" x="536.87" y="497.2969"/><line style="stroke:#222222;stroke-width:0.5;" x1="536.87" x2="765.87" y1="523.5938" y2="523.5938"/><text fill="#000000" font-family="sans-serif" font-size="14" lengthAdjust="spacing" textLength="91" x="605.87" y="515.292">PROCESSING</text><ellipse cx="652.87" cy="544.5938" fill="#222222" rx="10" ry="10" style="stroke:#222222;stroke-width:1.0;"/><g id="PROCESSING.delay_risk_scored"><rect fill="#FFFFFF" height="50.2656" rx="12.5" ry="12.5" style="stroke:#222222;stroke-width:0.5;" width="208" x="548.87" y="590.5938"/><line style="stroke:#222222;stroke-width:0.5;" x1="548.87" x2="756.87" y1="616.8906" y2="616.8906"/><text fill="#000000" font-family="sans-serif" font-size="14" lengthAdjust="spacing" textLength="122" x="591.87" y="608.5889">delay_risk_scored</text><text fill="#000000" font-family="sans-serif" font-size="12" lengthAdjust="spacing" textLength="188" x="553.87" y="633.0293">RandomForest predict_delay()</text></g><!--link *start*PROCESSING to delay_risk_scored--><g id="link_*start*PROCESSING_delay_risk_scored"><path d="M652.87,554.6138 C652.87,563.6738 652.87,572.0338 652.87,584.4238 " fill="none" id="*start*PROCESSING-to-delay_risk_scored" style="stroke:#222222;stroke-width:1.0;"/><polygon fill="#222222" points="652.87,590.4238,656.87,581.4238,652.87,585.4238,648.87,581.4238,652.87,590.4238" style="stroke:#222222;stroke-width:1.0;"/></g><g id="IN_TRANSIT"><rect fill="#FFFFFF" height="50" rx="12.5" ry="12.5" style="stroke:#222222;stroke-width:0.5;" width="99" x="469.87" y="728.2969"/><line style="stroke:#222222;stroke-width:0.5;" x1="469.87" x2="568.87" y1="754.5938" y2="754.5938"/><text fill="#000000" font-family="sans-serif" font-size="14" lengthAdjust="spacing" textLength="79" x="479.87" y="746.292">IN_TRANSIT</text></g><g id="CANCELLED"><rect fill="#FFFFFF" height="50" rx="12.5" ry="12.5" style="stroke:#222222;stroke-width:0.5;" width="102" x="572.37" y="855.2969"/><line style="stroke:#222222;stroke-width:0.5;" x1="572.37" x2="674.37" y1="881.5938" y2="881.5938"/><text fill="#000000" font-family="sans-serif" font-size="14" lengthAdjust="spacing" textLength="82" x="582.37" y="873.292">CANCELLED</text></g><g id="DELIVERED"><rect fill="#FFFFFF" height="50" rx="12.5" ry="12.5" style="stroke:#222222;stroke-width:0.5;" width="98" x="116.37" y="855.2969"/><line style="stroke:#222222;stroke-width:0.5;" x1="116.37" x2="214.37" y1="881.5938" y2="881.5938"/><text fill="#000000" font-family="sans-serif" font-size="14" lengthAdjust="spacing" textLength="78" x="126.37" y="873.292">DELIVERED</text></g><g id="DELAYED"><rect fill="#FFFFFF" height="50" rx="12.5" ry="12.5" style="stroke:#222222;stroke-width:0.5;" width="85" x="315.87" y="855.2969"/><line style="stroke:#222222;stroke-width:0.5;" x1="315.87" x2="400.87" y1="881.5938" y2="881.5938"/><text fill="#000000" font-family="sans-serif" font-size="14" lengthAdjust="spacing" textLength="65" x="325.87" y="873.292">DELAYED</text></g><ellipse cx="404.37" cy="977.2969" fill="none" rx="11" ry="11" style="stroke:#222222;stroke-width:1.0;"/><ellipse cx="404.37" cy="977.2969" fill="#222222" rx="6" ry="6" style="stroke:#222222;stroke-width:1.0;"/><path d="M708.87,44.2969 L923.37,44.2969 A12.5,12.5 0 0 1 935.87,56.7969 L935.87,70.5938 L696.37,70.5938 L696.37,56.7969 A12.5,12.5 0 0 1 708.87,44.2969 " fill="#FFFFFF" style="stroke:#FFFFFF;stroke-width:1.0;"/><rect fill="none" height="376.2969" rx="12.5" ry="12.5" style="stroke:#222222;stroke-width:0.5;" width="239.5" x="696.37" y="44.2969"/><line style="stroke:#222222;stroke-width:0.5;" x1="696.37" x2="935.87" y1="70.5938" y2="70.5938"/><text fill="#000000" font-family="sans-serif" font-size="14" lengthAdjust="spacing" textLength="100" x="766.12" y="62.292">DelayRisk (ML)</text><ellipse cx="746.87" cy="91.5938" fill="#222222" rx="10" ry="10" style="stroke:#222222;stroke-width:1.0;"/><g id="DR.LOW"><rect fill="#FFFFFF" height="50" rx="12.5" ry="12.5" style="stroke:#222222;stroke-width:0.5;" width="51" x="721.37" y="154.5938"/><line style="stroke:#222222;stroke-width:0.5;" x1="721.37" x2="772.37" y1="180.8906" y2="180.8906"/><text fill="#000000" font-family="sans-serif" font-size="14" lengthAdjust="spacing" textLength="31" x="731.37" y="172.5889">LOW</text></g><g id="DR.MEDIUM"><rect fill="#FFFFFF" height="50" rx="12.5" ry="12.5" style="stroke:#222222;stroke-width:0.5;" width="77" x="708.37" y="257.5938"/><line style="stroke:#222222;stroke-width:0.5;" x1="708.37" x2="785.37" y1="283.8906" y2="283.8906"/><text fill="#000000" font-family="sans-serif" font-size="14" lengthAdjust="spacing" textLength="57" x="718.37" y="275.5889">MEDIUM</text></g><g id="DR.HIGH"><rect fill="#FFFFFF" height="50" rx="12.5" ry="12.5" style="stroke:#222222;stroke-width:0.5;" width="54" x="719.87" y="360.5938"/><line style="stroke:#222222;stroke-width:0.5;" x1="719.87" x2="773.87" y1="386.8906" y2="386.8906"/><text fill="#000000" font-family="sans-serif" font-size="14" lengthAdjust="spacing" textLength="34" x="729.87" y="378.5889">HIGH</text></g><!--link *start*DR to LOW--><g id="link_*start*DR_LOW"><path d="M746.87,101.7937 C746.87,114.2738 746.87,131.0138 746.87,148.5238 " fill="none" id="*start*DR-to-LOW" style="stroke:#222222;stroke-width:1.0;"/><polygon fill="#222222" points="746.87,154.5238,750.87,145.5238,746.87,149.5238,742.87,145.5238,746.87,154.5238" style="stroke:#222222;stroke-width:1.0;"/><text fill="#000000" font-family="sans-serif" font-size="13" lengthAdjust="spacing" textLength="86" x="747.87" y="132.6606">[prob &lt; 0.35]</text></g><!--link LOW to MEDIUM--><g id="link_LOW_MEDIUM"><path d="M746.87,204.7838 C746.87,220.6638 746.87,235.3438 746.87,251.2538 " fill="none" id="LOW-to-MEDIUM" style="stroke:#222222;stroke-width:1.0;"/><polygon fill="#222222" points="746.87,257.2537,750.87,248.2538,746.87,252.2538,742.87,248.2538,746.87,257.2537" style="stroke:#222222;stroke-width:1.0;"/><text fill="#000000" font-family="sans-serif" font-size="13" lengthAdjust="spacing" textLength="178" x="747.87" y="235.6606">[weather/customs increase]</text></g><!--link MEDIUM to HIGH--><g id="link_MEDIUM_HIGH"><path d="M746.87,307.7838 C746.87,323.6638 746.87,338.3438 746.87,354.2537 " fill="none" id="MEDIUM-to-HIGH" style="stroke:#222222;stroke-width:1.0;"/><polygon fill="#222222" points="746.87,360.2537,750.87,351.2537,746.87,355.2537,742.87,351.2537,746.87,360.2537" style="stroke:#222222;stroke-width:1.0;"/><text fill="#000000" font-family="sans-serif" font-size="13" lengthAdjust="spacing" textLength="148" x="747.87" y="338.6606">[distance/risk increase]</text></g><path d="M983.87,44.2969 L1384.58,44.2969 A12.5,12.5 0 0 1 1397.08,56.7969 L1397.08,70.5938 L971.37,70.5938 L971.37,56.7969 A12.5,12.5 0 0 1 983.87,44.2969 " fill="#FFFFFF" style="stroke:#FFFFFF;stroke-width:1.0;"/><rect fill="none" height="376.2969" rx="12.5" ry="12.5" style="stroke:#222222;stroke-width:0.5;" width="425.71" x="971.37" y="44.2969"/><line style="stroke:#222222;stroke-width:0.5;" x1="971.37" x2="1397.08" y1="70.5938" y2="70.5938"/><text fill="#000000" font-family="sans-serif" font-size="14" lengthAdjust="spacing" textLength="83" x="1142.725" y="62.292">StockStatus</text><ellipse cx="1142.08" cy="91.5938" fill="#222222" rx="10" ry="10" style="stroke:#222222;stroke-width:1.0;"/><g id="SS.OK"><rect fill="#FFFFFF" height="50" rx="12.5" ry="12.5" style="stroke:#222222;stroke-width:0.5;" width="50" x="1117.08" y="154.5938"/><line style="stroke:#222222;stroke-width:0.5;" x1="1117.08" x2="1167.08" y1="180.8906" y2="180.8906"/><text fill="#000000" font-family="sans-serif" font-size="14" lengthAdjust="spacing" textLength="20" x="1132.08" y="172.5889">OK</text></g><g id="SS.LOW_STOCK"><rect fill="#FFFFFF" height="50" rx="12.5" ry="12.5" style="stroke:#222222;stroke-width:0.5;" width="106" x="1074.08" y="257.5938"/><line style="stroke:#222222;stroke-width:0.5;" x1="1074.08" x2="1180.08" y1="283.8906" y2="283.8906"/><text fill="#000000" font-family="sans-serif" font-size="14" lengthAdjust="spacing" textLength="86" x="1084.08" y="275.5889">LOW_STOCK</text></g><g id="SS.OUT_OF_STOCK"><rect fill="#FFFFFF" height="50" rx="12.5" ry="12.5" style="stroke:#222222;stroke-width:0.5;" width="131" x="1105.58" y="360.5938"/><line style="stroke:#222222;stroke-width:0.5;" x1="1105.58" x2="1236.58" y1="386.8906" y2="386.8906"/><text fill="#000000" font-family="sans-serif" font-size="14" lengthAdjust="spacing" textLength="111" x="1115.58" y="378.5889">OUT_OF_STOCK</text></g><!--link *start*SS to OK--><g id="link_*start*SS_OK"><path d="M1142.08,101.7937 C1142.08,114.2738 1142.08,131.0138 1142.08,148.5238 " fill="none" id="*start*SS-to-OK" style="stroke:#222222;stroke-width:1.0;"/><polygon fill="#222222" points="1142.08,154.5238,1146.08,145.5238,1142.08,149.5238,1138.08,145.5238,1142.08,154.5238" style="stroke:#222222;stroke-width:1.0;"/><text fill="#000000" font-family="sans-serif" font-size="13" lengthAdjust="spacing" textLength="135" x="1143.08" y="132.6606">[qty &gt; reorder_point]</text></g><!--link OK to LOW_STOCK--><g id="link_OK_LOW_STOCK"><path d="M1116.94,179.9738 C1084.76,180.7238 1030.1,187.4838 1004.08,222.5938 C982.37,251.9038 1025.3845,266.2332 1067.8145,273.8532 " fill="none" id="OK-to-LOW_STOCK" style="stroke:#222222;stroke-width:1.0;"/><polygon fill="#222222" points="1073.72,274.9138,1065.5688,269.3859,1068.7987,274.0299,1064.1547,277.2599,1073.72,274.9138" style="stroke:#222222;stroke-width:1.0;"/><text fill="#000000" font-family="sans-serif" font-size="13" lengthAdjust="spacing" textLength="114" x="1005.08" y="235.6606">[stock decreases]</text></g><!--link LOW_STOCK to OUT_OF_STOCK--><g id="link_LOW_STOCK_OUT_OF_STOCK"><path d="M1125.61,307.7338 C1125.8,318.7738 1127.3,331.7838 1132.08,342.5938 C1134.9,348.9638 1135.1901,350.434 1139.8001,355.824 " fill="none" id="LOW_STOCK-to-OUT_OF_STOCK" style="stroke:#222222;stroke-width:1.0;"/><polygon fill="#222222" points="1143.7,360.3838,1140.89,350.9443,1140.4501,356.584,1134.8104,356.1441,1143.7,360.3838" style="stroke:#222222;stroke-width:1.0;"/><text fill="#000000" font-family="sans-serif" font-size="13" lengthAdjust="spacing" textLength="68" x="1133.08" y="338.6606">[qty == 0]</text></g><!--link OUT_OF_STOCK to OK--><g id="link_OUT_OF_STOCK_OK"><path d="M1192.94,360.2938 C1196.7,354.8238 1200.04,348.7938 1202.08,342.5938 C1218.76,291.9038 1222.87,269.8538 1198.08,222.5938 C1191.36,209.7838 1183.9168,202.9308 1172.3868,195.9208 " fill="none" id="OUT_OF_STOCK-to-OK" style="stroke:#222222;stroke-width:1.0;"/><polygon fill="#222222" points="1167.26,192.8038,1172.8722,200.8971,1171.5324,195.4013,1177.0282,194.0614,1167.26,192.8038" style="stroke:#222222;stroke-width:1.0;"/><text fill="#000000" font-family="sans-serif" font-size="13" lengthAdjust="spacing" textLength="171" x="1216.08" y="287.1606">[restock PATCH /inventory]</text></g><!--link LOW_STOCK to OK--><g id="link_LOW_STOCK_OK"><path d="M1130.7,257.2537 C1133.06,241.3438 1135.248,226.5986 1137.608,210.7186 " fill="none" id="LOW_STOCK-to-OK" style="stroke:#222222;stroke-width:1.0;"/><polygon fill="#222222" points="1138.49,204.7838,1133.2105,213.098,1137.755,209.7294,1141.1235,214.274,1138.49,204.7838" style="stroke:#222222;stroke-width:1.0;"/><text fill="#000000" font-family="sans-serif" font-size="13" lengthAdjust="spacing" textLength="57" x="1136.08" y="235.6606">[restock]</text></g><!--link *start* to PROCESSING--><g id="link_*start*_PROCESSING"><path d="M651.37,242.3869 C651.37,278.0869 651.37,404.8669 651.37,490.9869 " fill="none" id="*start*-to-PROCESSING" style="stroke:#222222;stroke-width:1.0;"/><polygon fill="#222222" points="651.37,496.9869,655.37,487.9869,651.37,491.9869,647.37,487.9869,651.37,496.9869" style="stroke:#222222;stroke-width:1.0;"/><text fill="#000000" font-family="sans-serif" font-size="13" lengthAdjust="spacing" textLength="97" x="652.37" y="463.3638">[order created]</text></g><!--link PROCESSING to IN_TRANSIT--><g id="link_PROCESSING_IN_TRANSIT"><path d="M594.63,651.3869 C574.08,678.9369 555.9068,703.307 541.0968,723.167 " fill="none" id="PROCESSING-to-IN_TRANSIT" style="stroke:#222222;stroke-width:1.0;"/><polygon fill="#222222" points="537.51,727.9769,546.0968,723.1533,540.499,723.9687,539.6836,718.3709,537.51,727.9769" style="stroke:#222222;stroke-width:1.0;"/><text fill="#000000" font-family="sans-serif" font-size="13" lengthAdjust="spacing" textLength="133" x="570.37" y="694.3638">[supplier dispatches]</text></g><!--link PROCESSING to CANCELLED--><g id="link_PROCESSING_CANCELLED"><path d="M711.98,651.5469 C745.27,703.2869 773.51,771.7569 739.37,825.2969 C725.04,847.7769 704.3695,859.2024 680.3795,866.9524 " fill="none" id="PROCESSING-to-CANCELLED" style="stroke:#222222;stroke-width:1.0;"/><polygon fill="#222222" points="674.67,868.7969,684.4638,869.8365,679.4279,867.2598,682.0046,862.2239,674.67,868.7969" style="stroke:#222222;stroke-width:1.0;"/><text fill="#000000" font-family="sans-serif" font-size="13" lengthAdjust="spacing" textLength="134" x="755.37" y="757.8638">[admin/user cancels]</text></g><!--link IN_TRANSIT to DELIVERED--><g id="link_IN_TRANSIT_DELIVERED"><path d="M469.74,756.1469 C351.92,761.0369 63.08,776.2169 34.37,808.2969 C6,840.0069 62.3167,859.0135 110.3867,869.4535 " fill="none" id="IN_TRANSIT-to-DELIVERED" style="stroke:#222222;stroke-width:1.0;"/><polygon fill="#222222" points="116.25,870.7269,108.304,864.9079,111.3639,869.6657,106.6061,872.7256,116.25,870.7269" style="stroke:#222222;stroke-width:1.0;"/><text fill="#000000" font-family="sans-serif" font-size="13" lengthAdjust="spacing" textLength="218" x="35.37" y="821.3638">[actual_days &lt;= estimated_days]</text></g><!--link IN_TRANSIT to DELAYED--><g id="link_IN_TRANSIT_DELAYED"><path d="M469.86,757.7069 C403.83,763.3969 292.34,777.4169 267.37,808.2969 C248.29,831.9069 278.0895,850.2076 310.1495,863.0376 " fill="none" id="IN_TRANSIT-to-DELAYED" style="stroke:#222222;stroke-width:1.0;"/><polygon fill="#222222" points="315.72,865.2669,308.8504,858.2093,311.0779,863.4092,305.8781,865.6367,315.72,865.2669" style="stroke:#222222;stroke-width:1.0;"/><text fill="#000000" font-family="sans-serif" font-size="13" lengthAdjust="spacing" textLength="207" x="268.37" y="821.3638">[actual_days &gt; estimated_days]</text></g><!--link DELAYED to IN_TRANSIT--><g id="link_DELAYED_IN_TRANSIT"><path d="M400.95,868.0169 C426.36,859.5769 457.93,845.8969 480.37,825.2969 C494.26,812.5569 501.9428,799.2187 508.3528,784.1387 " fill="none" id="DELAYED-to-IN_TRANSIT" style="stroke:#222222;stroke-width:1.0;"/><polygon fill="#222222" points="510.7,778.6169,503.498,785.3349,508.744,783.2184,510.8605,788.4644,510.7,778.6169" style="stroke:#222222;stroke-width:1.0;"/><text fill="#000000" font-family="sans-serif" font-size="13" lengthAdjust="spacing" textLength="62" x="495.37" y="821.3638">[re-route]</text></g><!--link IN_TRANSIT to CANCELLED--><g id="link_IN_TRANSIT_CANCELLED"><path d="M553.3,778.4769 C564.03,787.1269 575.41,797.4369 584.37,808.2969 C596.1,822.5069 603.4531,835.3532 610.3531,849.7932 " fill="none" id="IN_TRANSIT-to-CANCELLED" style="stroke:#222222;stroke-width:1.0;"/><polygon fill="#222222" points="612.94,855.2069,612.6688,845.3618,610.7843,850.6955,605.4506,848.8109,612.94,855.2069" style="stroke:#222222;stroke-width:1.0;"/><text fill="#000000" font-family="sans-serif" font-size="13" lengthAdjust="spacing" textLength="134" x="596.37" y="821.3638">[admin/user cancels]</text></g><!--link DELIVERED to *end*--><g id="link_DELIVERED_*end*"><path d="M214.6,900.8669 C272.27,923.7869 358.2141,957.9512 388.6141,970.0312 " fill="none" id="DELIVERED-to-*end*" style="stroke:#222222;stroke-width:1.0;"/><polygon fill="#222222" points="394.19,972.2469,387.3033,965.2061,389.5434,970.4005,384.349,972.6406,394.19,972.2469" style="stroke:#222222;stroke-width:1.0;"/></g><!--link CANCELLED to *end*--><g id="link_CANCELLED_*end*"><path d="M572.3,903.4469 C519.72,926.2569 447.2352,957.7108 419.8252,969.5908 " fill="none" id="CANCELLED-to-*end*" style="stroke:#222222;stroke-width:1.0;"/><polygon fill="#222222" points="414.32,971.9769,424.1684,972.0679,418.9076,969.9885,420.9871,964.7277,414.32,971.9769" style="stroke:#222222;stroke-width:1.0;"/></g><!--SRC=[XLBTQjim5BxNKnowctQGfMJiPZI5p7ORCoSkjhjHYZ6gh3KYjkL9ye8PXJx4dd1FCXt7MToca4kTx-TyEkVejQXggcW93vIj7vLigjoHXLImMGd3YVwFQqCD_o9LpjMMy6uocHpWHqoeKd8pa1CZJC4XHYsuWZuYwU_p7mYn3mJY1sSjApWXz-zJ68qkuIOA7I-E_UKrV8RxBWumnQq-JmaPe4ZsbraIpPQndo1PDtLT2ClFXQwfOIkkqzSAPxPql23mN1JGl1JLkD7OWbQC5vPF1fueSBt0_-P5lO2PXXPPJbiD5rFWseWIatMLz0tfxEvGU7bCTppZplbm1egFx7eCtvBwv4YpyoLxurs5T5iT3lqt0TZj8kS5RJCbz3hJJ2gUM-oWPhj6jCfbUMLVsa1jQuAPh2EUdf6dNPCJ5okHLSBf8ZWx0Qh1ZLuq3CBl-8bQoGUuWFCF7p-b5iKgeWlFzMyNIDZOUrXnDMQDDhBK82ey4SsHtRDGCFUlvqYtzs1mTcECFI3leyL6iZLUQQExN77y8bVu5Mr-cjOkJ_7kABDQYifWGmlssRCu2PsEgj7FpchRIVU_wF7EyJR9mgkz0BsdKpZl38VOlZrE5rrlPeapXx6eVl7AIDM-OJxass_-0m00]--></g></svg>