<?xml version="1.0" encoding="us-ascii" standalone="no"?><svg xmlns="http://www.w3.org/2000/svg" xmlns:xlink="http://www.w3.org/1999/xlink" contentStyleType="text/css" height="600px" preserveAspectRatio="none" style="width:1173px;height:600px;background:#FFFFFF;" version="1.1" viewBox="0 0 1173 600" width="1173px" zoomAndPan="magnify"><defs/><g><text fill="#000000" font-family="sans-serif" font-size="14" font-weight="bold" lengthAdjust="spacing" textLength="366" x="396.75" y="22.9951">Admin Use Cases &#8212; AC Supply Chain Analytics</text><!--cluster AC Supply Chain System--><g id="cluster_AC Supply Chain System"><rect fill="none" height="448" rx="2.5" ry="2.5" style="stroke:#181818;stroke-width:1.0;" width="847.5" x="107.5" y="44.2969"/><text fill="#000000" font-family="sans-serif" font-size="14" font-weight="bold" lengthAdjust="spacing" textLength="192" x="435.25" y="59.292">AC Supply Chain System</text></g><g id="elem_UC1"><ellipse cx="212.8073" cy="96.1583" fill="#FFFFFF" rx="72.3073" ry="16.8615" style="stroke:#222222;stroke-width:0.5;"/><text fill="#000000" font-family="sans-serif" font-size="14" lengthAdjust="spacing" textLength="99" x="160.3073" y="99.9059">Manage Users</text></g><g id="elem_UC2"><ellipse cx="212.9455" cy="167.486" fill="#FFFFFF" rx="81.4455" ry="18.6891" style="stroke:#222222;stroke-width:0.5;"/><text fill="#000000" font-family="sans-serif" font-size="14" lengthAdjust="spacing" textLength="122" x="150.8109" y="170.7058">Detect Anomalies</text></g><g id="elem_UC3"><ellipse cx="213.0591" cy="239.4087" fill="#FFFFFF" rx="78.5591" ry="18.1118" style="stroke:#222222;stroke-width:0.5;"/><text fill="#000000" font-family="sans-serif" font-size="14" lengthAdjust="spacing" textLength="115" x="153.3328" y="242.9493">Run ETL Pipeline</text></g><g id="elem_UC4"><ellipse cx="213.1728" cy="313.1314" fill="#FFFFFF" rx="89.6728" ry="20.3346" style="stroke:#222222;stroke-width:0.5;"/><text fill="#000000" font-family="sans-serif" font-size="14" lengthAdjust="spacing" textLength="141" x="142.6728" y="315.9781">Update Order Status</text></g><g id="elem_UC5"><ellipse cx="212.8658" cy="388.07" fill="#FFFFFF" rx="81.8658" ry="18.7732" style="stroke:#222222;stroke-width:0.5;"/><text fill="#000000" font-family="sans-serif" font-size="14" lengthAdjust="spacing" textLength="123" x="150.3805" y="391.2432">Manage Suppliers</text></g><g id="elem_UC6"><ellipse cx="550.8735" cy="228.0716" fill="#FFFFFF" rx="79.3735" ry="18.2747" style="stroke:#222222;stroke-width:0.5;"/><text fill="#000000" font-family="sans-serif" font-size="14" lengthAdjust="spacing" textLength="117" x="490.4676" y="231.5217">Price Intelligence</text></g><g id="elem_UC7"><ellipse cx="550.9496" cy="354.2868" fill="#FFFFFF" rx="105.4496" ry="23.4899" style="stroke:#222222;stroke-width:0.5;"/><text fill="#000000" font-family="sans-serif" font-size="14" lengthAdjust="spacing" textLength="176" x="462.9496" y="357.1335">Agent Recommendations</text></g><g id="elem_UC8"><ellipse cx="863.9948" cy="228.1958" fill="#FFFFFF" rx="74.9948" ry="17.399" style="stroke:#222222;stroke-width:0.5;"/><text fill="#000000" font-family="sans-serif" font-size="14" lengthAdjust="spacing" textLength="106" x="807.9948" y="231.9434">Proactive Alerts</text></g><g id="elem_UC9"><ellipse cx="551.1676" cy="97.4304" fill="#FFFFFF" rx="76.1676" ry="17.6335" style="stroke:#222222;stroke-width:0.5;"/><text fill="#000000" font-family="sans-serif" font-size="14" lengthAdjust="spacing" textLength="109" x="493.6676" y="101.178">Deactivate User</text></g><g id="elem_UC10"><ellipse cx="212.8073" cy="459.1583" fill="#FFFFFF" rx="72.3073" ry="16.8615" style="stroke:#222222;stroke-width:0.5;"/><text fill="#000000" font-family="sans-serif" font-size="14" lengthAdjust="spacing" textLength="99" x="160.3073" y="462.9059">Reorder Alerts</text></g><!--entity admin--><g id="elem_admin"><ellipse cx="33" cy="263.2969" fill="#FFFFFF" rx="16" ry="16" style="stroke:#222222;stroke-width:0.5;"/><path d="M33,283.2969 C37,283.2969 40,283.2969 44,279.2969 C52,279.2969 60,287.2969 60,295.2969 L60,299.2969 C60,303.2969 56,307.2969 52,307.2969 L14,307.2969 C10,307.2969 6,303.2969 6,299.2969 L6,295.2969 C6,287.2969 14,279.2969 22,279.2969 C26,283.2969 29,283.2969 33,283.2969 " fill="#FFFFFF" style="stroke:#222222;stroke-width:0.5;"/><text fill="#000000" font-family="sans-serif" font-size="14" lengthAdjust="spacing" textLength="43" x="11.5" y="320.792">Admin</text></g><g id="elem_GMN24"><path d="M783.5,508.7969 L783.5,533.9297 L944.5,533.9297 L944.5,518.7969 L934.5,508.7969 L783.5,508.7969 " fill="#FFFFCC" style="stroke:#D6B656;stroke-width:0.5;"/><path d="M934.5,508.7969 L934.5,518.7969 L944.5,518.7969 L934.5,508.7969 " fill="#FFFFCC" style="stroke:#D6B656;stroke-width:1.0;"/><text fill="#000000" font-family="sans-serif" font-size="13" lengthAdjust="spacing" textLength="140" x="789.5" y="525.8638">Beyond original scope</text></g><g id="elem_GMN27"><path d="M783.5,568.7969 L783.5,593.9297 L944.5,593.9297 L944.5,578.7969 L934.5,568.7969 L783.5,568.7969 " fill="#FFFFCC" style="stroke:#D6B656;stroke-width:0.5;"/><path d="M934.5,568.7969 L934.5,578.7969 L944.5,578.7969 L934.5,568.7969 " fill="#FFFFCC" style="stroke:#D6B656;stroke-width:1.0;"/><text fill="#000000" font-family="sans-serif" font-size="13" lengthAdjust="spacing" textLength="140" x="789.5" y="585.8638">Beyond original scope</text></g><g id="elem_GMN30"><path d="M1005.5,215.7969 L1005.5,224.2969 L939.18,228.2969 L1005.5,232.2969 L1005.5,240.9297 A0,0 0 0 0 1005.5,240.9297 L1166.5,240.9297 A0,0 0 0 0 1166.5,240.9297 L1166.5,225.7969 L1156.5,215.7969 L1005.5,215.7969 A0,0 0 0 0 1005.5,215.7969 " fill="#FFFFCC" style="stroke:#D6B656;stroke-width:0.5;"/><path d="M1156.5,215.7969 L1156.5,225.7969 L1166.5,225.7969 L1156.5,215.7969 " fill="#FFFFCC" style="stroke:#D6B656;stroke-width:0.5;"/><text fill="#000000" font-family="sans-serif" font-size="13" lengthAdjust="spacing" textLength="140" x="1011.5" y="232.8638">Beyond original scope</text></g><!--link UC1 to UC9--><g id="link_UC1_UC9"><path d="M285.67,96.5069 C341.37,96.6769 412.41,96.8888 468.95,97.0588 " fill="none" id="UC1-to-UC9" style="stroke:#222222;stroke-width:1.0;stroke-dasharray:7.0,7.0;"/><polygon fill="#222222" points="474.95,97.0769,465.9621,93.0498,469.95,97.0618,465.938,101.0498,474.95,97.0769" style="stroke:#222222;stroke-width:1.0;"/><text fill="#000000" font-family="sans-serif" font-size="13" lengthAdjust="spacing" textLength="68" x="340" y="93.3638">&#171;requires&#187;</text></g><!--link UC2 to UC6--><g id="link_UC2_UC6"><path d="M277.2,178.7669 C337.56,189.7269 422.0565,205.065 482.0365,215.955 " fill="none" id="UC2-to-UC6" style="stroke:#222222;stroke-width:1.0;stroke-dasharray:7.0,7.0;"/><polygon fill="#222222" points="487.94,217.0269,479.7993,211.4835,483.0204,216.1337,478.3702,219.3548,487.94,217.0269" style="stroke:#222222;stroke-width:1.0;"/><text fill="#000000" font-family="sans-serif" font-size="13" lengthAdjust="spacing" textLength="68" x="340" y="187.3638">&#171;requires&#187;</text></g><!--link UC3 to UC7--><g id="link_UC3_UC7"><path d="M257.58,254.2169 C317.69,274.7869 420.4534,309.9535 487.0534,332.7535 " fill="none" id="UC3-to-UC7" style="stroke:#222222;stroke-width:1.0;stroke-dasharray:7.0,7.0;"/><polygon fill="#222222" points="492.73,334.6969,485.5107,327.9975,487.9995,333.0774,482.9196,335.5663,492.73,334.6969" style="stroke:#222222;stroke-width:1.0;"/><text fill="#000000" font-family="sans-serif" font-size="13" lengthAdjust="spacing" textLength="81" x="333.5" y="279.3638">&#171;generates&#187;</text></g><!--link UC6 to UC8--><g id="link_UC6_UC8"><path d="M630.88,228.2969 C679.38,228.2969 735.13,228.2969 782.75,228.2969 " fill="none" id="UC6-to-UC8" style="stroke:#222222;stroke-width:1.0;stroke-dasharray:7.0,7.0;"/><polygon fill="#222222" points="788.75,228.2969,779.75,224.2969,783.75,228.2969,779.75,232.2969,788.75,228.2969" style="stroke:#222222;stroke-width:1.0;"/><text fill="#000000" font-family="sans-serif" font-size="13" lengthAdjust="spacing" textLength="65" x="687.5" y="224.3638">&#171;triggers&#187;</text></g><!--link admin to UC1--><g id="link_admin_UC1"><path d="M40.86,246.7369 C49.02,211.9069 65.99,161.5969 99.5,131.2969 C113.76,118.3969 126.944,111.881 145.224,106.741 " fill="none" id="admin-to-UC1" style="stroke:#222222;stroke-width:1.0;"/><polygon fill="#222222" points="151,105.1169,141.2532,103.7024,146.1867,106.4703,143.4187,111.4037,151,105.1169" style="stroke:#222222;stroke-width:1.0;"/></g><!--link admin to UC2--><g id="link_admin_UC2"><path d="M57.81,246.3769 C68.84,231.1069 83.15,214.5669 99.5,203.2969 C115.04,192.5969 128.1994,186.6819 146.0294,181.2619 " fill="none" id="admin-to-UC2" style="stroke:#222222;stroke-width:1.0;"/><polygon fill="#222222" points="151.77,179.5169,141.9957,178.3074,146.9861,180.9711,144.3224,185.9615,151.77,179.5169" style="stroke:#222222;stroke-width:1.0;"/></g><!--link admin to UC3--><g id="link_admin_UC3"><path d="M60.72,278.1469 C70.12,275.6469 80.78,272.8269 90.5,270.2969 C113.15,264.3969 132.3849,259.4651 153.8249,254.0151 " fill="none" id="admin-to-UC3" style="stroke:#222222;stroke-width:1.0;"/><polygon fill="#222222" points="159.64,252.5369,149.9319,250.8774,154.7941,253.7687,151.9029,258.6309,159.64,252.5369" style="stroke:#222222;stroke-width:1.0;"/></g><!--link admin to UC4--><g id="link_admin_UC4"><path d="M60.65,289.4869 C81.31,292.7369 105.0428,296.4748 132.6428,300.8148 " fill="none" id="admin-to-UC4" style="stroke:#222222;stroke-width:1.0;"/><polygon fill="#222222" points="138.57,301.7469,130.3006,296.3974,133.6307,300.9702,129.0579,304.3003,138.57,301.7469" style="stroke:#222222;stroke-width:1.0;"/></g><!--link admin to UC5--><g id="link_admin_UC5"><path d="M60.75,318.1369 C71.73,329.9269 85.22,342.4669 99.5,351.2969 C116.12,361.5669 130.1594,367.5292 148.4694,373.2092 " fill="none" id="admin-to-UC5" style="stroke:#222222;stroke-width:1.0;"/><polygon fill="#222222" points="154.2,374.9869,146.7892,368.4999,149.4245,373.5055,144.419,376.1407,154.2,374.9869" style="stroke:#222222;stroke-width:1.0;"/></g><!--link admin to UC10--><g id="link_admin_UC10"><path d="M42.95,323.8569 C52.13,355.1069 69.41,398.1169 99.5,424.2969 C114.08,436.9869 127.454,443.4527 145.804,448.6127 " fill="none" id="admin-to-UC10" style="stroke:#222222;stroke-width:1.0;"/><polygon fill="#222222" points="151.58,450.2369,143.9988,443.9499,146.7667,448.8834,141.8332,451.6512,151.58,450.2369" style="stroke:#222222;stroke-width:1.0;"/></g><!--link UC6 to GMN24--><g id="link_UC6_GMN24"><path d="M577.26,245.8169 C599.49,261.9169 632.04,287.1769 656.5,313.2969 C723.17,384.5069 705.95,433.1269 783.5,492.2969 C792.49,499.1569 803.27,504.5169 813.94,508.6569 " fill="none" id="UC6-GMN24" style="stroke:#222222;stroke-width:1.0;stroke-dasharray:7.0,7.0;"/></g><!--link UC7 to GMN27--><g id="link_UC7_GMN27"><path d="M561.24,377.7369 C578.86,419.1869 621.43,505.0169 686.5,547.2969 C715.02,565.8269 751.25,574.7469 783.46,578.8769 " fill="none" id="UC7-GMN27" style="stroke:#222222;stroke-width:1.0;stroke-dasharray:7.0,7.0;"/></g><!--SRC=[ZPBHRjCm58Rl_HH7sVKcbgvfGLEbBd21169QwGDupcbgpR63VK8L8IGUWYVaIJZn4aXAjv6Rnls__Fxz-uG7RMlfPGLIaVCRQWs2F61m5OhmHxoNwg7qhh55xeppSDXh6kjDG2K3tZXVe7z4pj8qFK6yO2IzTuUJ1Z7VCniywY_OMqVJa4LsdyspO-B8vMp7Zr92a2QkPrrKsi8s8EHyeW2_Vlo4TGwRfgvD2_bUihgsqhIaLH32u8w077XTxWaAxL6HTbQ8c1YIQ9U0322xDo4wGDgITqgERJTj8AmI-2PWQ1IIZzBA4hj0FaIVRNuvrjyYiID7SfKq6WSc7JDtZOLtdp_0hQxHQ8izCnipsxgGXF2fgmys9AaPhAvEn8cvzTz8yp5pwxL2U6y9ZT4bMZLic8sfDIi4TwXSLQ7bpRcsmMunjNDSflxATsFGqy0ifor4f3j1rrIFl9wKW74qfYQNhmGp_0iN5wlk2tW3rzSUlpHyas6rYcBQYzafSTQBYoZocT1pYa7DUdKPLU8fARaq5h_pXCH9EpzVnIiThzB9QZPPNKrMywaBdwORyNuQtQuFVOEjimKu_blpw49GhiP_oCL_aykdoDy0]--></g></svg>