<?xml version="1.0" encoding="us-ascii" standalone="no"?><svg xmlns="http://www.w3.org/2000/svg" xmlns:xlink="http://www.w3.org/1999/xlink" contentStyleType="text/css" height="548px" preserveAspectRatio="none" style="width:786px;height:548px;background:#FFFFFF;" version="1.1" viewBox="0 0 786 548" width="786px" zoomAndPan="magnify"><defs/><g><text fill="#000000" font-family="sans-serif" font-size="14" font-weight="bold" lengthAdjust="spacing" textLength="354" x="209.25" y="22.9951">Staff Use Cases &#8212; AC Supply Chain Analytics</text><!--cluster AC Supply Chain System--><g id="cluster_AC Supply Chain System"><rect fill="none" height="498" rx="2.5" ry="2.5" style="stroke:#181818;stroke-width:1.0;" width="490" x="107.5" y="44.2969"/><text fill="#000000" font-family="sans-serif" font-size="14" font-weight="bold" lengthAdjust="spacing" textLength="192" x="256.5" y="59.292">AC Supply Chain System</text></g><g id="elem_UC1"><ellipse cx="205.2754" cy="97.3519" fill="#FFFFFF" rx="75.7754" ry="17.5551" style="stroke:#222222;stroke-width:0.5;"/><text fill="#000000" font-family="sans-serif" font-size="14" lengthAdjust="spacing" textLength="108" x="148.2754" y="101.0995">Login / Register</text></g><g id="elem_UC2"><ellipse cx="205.4626" cy="165.4894" fill="#FFFFFF" rx="66.4626" ry="15.6925" style="stroke:#222222;stroke-width:0.5;"/><text fill="#000000" font-family="sans-serif" font-size="14" lengthAdjust="spacing" textLength="83" x="160.9626" y="169.237">View Orders</text></g><g id="elem_UC3"><ellipse cx="205.6011" cy="232.4171" fill="#FFFFFF" rx="68.6011" ry="16.1202" style="stroke:#222222;stroke-width:0.5;"/><text fill="#000000" font-family="sans-serif" font-size="14" lengthAdjust="spacing" textLength="89" x="158.1011" y="236.1647">Create Order</text></g><g id="elem_UC4"><ellipse cx="205.3073" cy="300.1583" fill="#FFFFFF" rx="72.3073" ry="16.8615" style="stroke:#222222;stroke-width:0.5;"/><text fill="#000000" font-family="sans-serif" font-size="14" lengthAdjust="spacing" textLength="99" x="152.8073" y="303.9059">View Inventory</text></g><g id="elem_UC5"><ellipse cx="205.5731" cy="367.0588" fill="#FFFFFF" rx="58.5731" ry="14.7619" style="stroke:#222222;stroke-width:0.5;"/><text fill="#000000" font-family="sans-serif" font-size="14" lengthAdjust="spacing" textLength="65" x="170.0731" y="370.8064">View KPIs</text></g><g id="elem_UC6"><ellipse cx="499.3658" cy="199.07" fill="#FFFFFF" rx="81.8658" ry="18.7732" style="stroke:#222222;stroke-width:0.5;"/><text fill="#000000" font-family="sans-serif" font-size="14" lengthAdjust="spacing" textLength="123" x="436.8805" y="202.2432">Forecast Demand</text></g><g id="elem_UC7"><ellipse cx="499.3658" cy="273.07" fill="#FFFFFF" rx="81.8658" ry="18.7732" style="stroke:#222222;stroke-width:0.5;"/><text fill="#000000" font-family="sans-serif" font-size="14" lengthAdjust="spacing" textLength="123" x="436.8805" y="276.2432">Predict Delay Risk</text></g><g id="elem_UC8"><ellipse cx="205.6676" cy="435.4304" fill="#FFFFFF" rx="76.1676" ry="17.6335" style="stroke:#222222;stroke-width:0.5;"/><text fill="#000000" font-family="sans-serif" font-size="14" lengthAdjust="spacing" textLength="109" x="148.1676" y="439.178">Chat with Agent</text></g><g id="elem_UC9"><ellipse cx="205.3658" cy="507.07" fill="#FFFFFF" rx="81.8658" ry="18.7732" style="stroke:#222222;stroke-width:0.5;"/><text fill="#000000" font-family="sans-serif" font-size="14" lengthAdjust="spacing" textLength="123" x="142.8805" y="510.2432">Manage Suppliers</text></g><g id="elem_UC10"><ellipse cx="499.3536" cy="97.1676" fill="#FFFFFF" rx="77.3536" ry="17.8707" style="stroke:#222222;stroke-width:0.5;"/><text fill="#000000" font-family="sans-serif" font-size="14" lengthAdjust="spacing" textLength="112" x="440.6333" y="100.8422">Reset Password</text></g><!--entity staff--><g id="elem_staff"><ellipse cx="33" cy="278.2969" fill="#FFFFFF" rx="16" ry="16" style="stroke:#222222;stroke-width:0.5;"/><path d="M33,298.2969 C37,298.2969 40,298.2969 44,294.2969 C52,294.2969 60,302.2969 60,310.2969 L60,314.2969 C60,318.2969 56,322.2969 52,322.2969 L14,322.2969 C10,322.2969 6,318.2969 6,314.2969 L6,310.2969 C6,302.2969 14,294.2969 22,294.2969 C26,298.2969 29,298.2969 33,298.2969 " fill="#FFFFFF" style="stroke:#222222;stroke-width:0.5;"/><text fill="#000000" font-family="sans-serif" font-size="14" lengthAdjust="spacing" textLength="30" x="18" y="335.792">Staff</text></g><g id="elem_GMN24"><path d="M654,253.2969 L654,269.2969 L581.58,273.2969 L654,277.2969 L654,293.5625 A0,0 0 0 0 654,293.5625 L770,293.5625 A0,0 0 0 0 770,293.5625 L770,263.2969 L760,253.2969 L654,253.2969 A0,0 0 0 0 654,253.2969 " fill="#FFFFCC" style="stroke:#D6B656;stroke-width:0.5;"/><path d="M760,253.2969 L760,263.2969 L770,263.2969 L760,253.2969 " fill="#FFFFCC" style="stroke:#D6B656;stroke-width:0.5;"/><text fill="#000000" font-family="sans-serif" font-size="13" lengthAdjust="spacing" textLength="93" x="660" y="270.3638">RandomForest</text><text fill="#000000" font-family="sans-serif" font-size="13" lengthAdjust="spacing" textLength="95" x="660" y="285.4966">predict_delay()</text></g><g id="elem_GMN27"><path d="M644.5,178.2969 L644.5,194.6169 L581.58,198.9069 L644.5,202.6169 L644.5,218.5625 A0,0 0 0 0 644.5,218.5625 L779.5,218.5625 A0,0 0 0 0 779.5,218.5625 L779.5,188.2969 L769.5,178.2969 L644.5,178.2969 A0,0 0 0 0 644.5,178.2969 " fill="#FFFFCC" style="stroke:#D6B656;stroke-width:0.5;"/><path d="M769.5,178.2969 L769.5,188.2969 L779.5,188.2969 L769.5,178.2969 " fill="#FFFFCC" style="stroke:#D6B656;stroke-width:0.5;"/><text fill="#000000" font-family="sans-serif" font-size="13" lengthAdjust="spacing" textLength="82" x="650.5" y="195.3638">ARIMA(2,1,2)</text><text fill="#000000" font-family="sans-serif" font-size="13" lengthAdjust="spacing" textLength="114" x="650.5" y="210.4966">predict_demand()</text></g><!--link UC3 to UC7--><g id="link_UC3_UC7"><path d="M264.54,240.4469 C311.86,247.0869 372.8882,255.6631 423.0582,262.7031 " fill="none" id="UC3-to-UC7" style="stroke:#222222;stroke-width:1.0;stroke-dasharray:7.0,7.0;"/><polygon fill="#222222" points="429,263.5369,420.6432,258.325,424.0485,262.8421,419.5315,266.2474,429,263.5369" style="stroke:#222222;stroke-width:1.0;"/><text fill="#000000" font-family="sans-serif" font-size="13" lengthAdjust="spacing" textLength="68" x="318.5" y="244.3638">&#171;includes&#187;</text></g><!--link UC3 to UC6--><g id="link_UC3_UC6"><path d="M267.36,225.4169 C313.41,220.2169 370.8579,213.7206 419.6179,208.2106 " fill="none" id="UC3-to-UC6" style="stroke:#222222;stroke-width:1.0;stroke-dasharray:7.0,7.0;"/><polygon fill="#222222" points="425.58,207.5369,416.1878,204.5728,420.6116,208.0983,417.0861,212.5222,425.58,207.5369" style="stroke:#222222;stroke-width:1.0;"/><text fill="#000000" font-family="sans-serif" font-size="13" lengthAdjust="spacing" textLength="68" x="318.5" y="208.3638">&#171;includes&#187;</text></g><!--link UC1 to UC10--><g id="link_UC1_UC10"><path d="M281.7,97.2969 C324.7,97.2969 372.52,97.2969 415.78,97.2969 " fill="none" id="UC1-to-UC10" style="stroke:#222222;stroke-width:1.0;stroke-dasharray:7.0,7.0;"/><polygon fill="#222222" points="421.78,97.2969,412.78,93.2969,416.78,97.2969,412.78,101.2969,421.78,97.2969" style="stroke:#222222;stroke-width:1.0;"/><text fill="#000000" font-family="sans-serif" font-size="13" lengthAdjust="spacing" textLength="68" x="318.5" y="93.3638">&#171;requires&#187;</text></g><!--link staff to UC1--><g id="link_staff_UC1"><path d="M39.41,261.7069 C46.7,223.8169 63.21,166.8169 99.5,132.2969 C111.75,120.6469 122.2817,114.715 138.3117,109.525 " fill="none" id="staff-to-UC1" style="stroke:#222222;stroke-width:1.0;"/><polygon fill="#222222" points="144.02,107.6769,134.2255,106.6436,139.2631,109.217,136.6897,114.2546,144.02,107.6769" style="stroke:#222222;stroke-width:1.0;"/></g><!--link staff to UC2--><g id="link_staff_UC2"><path d="M50.69,261.5569 C61.72,240.1469 78.09,214.6469 99.5,198.2969 C114.53,186.8169 127.8571,180.8762 145.6471,175.9562 " fill="none" id="staff-to-UC2" style="stroke:#222222;stroke-width:1.0;"/><polygon fill="#222222" points="151.43,174.3569,141.6894,172.9006,146.6109,175.6896,143.8218,180.6111,151.43,174.3569" style="stroke:#222222;stroke-width:1.0;"/></g><!--link staff to UC3--><g id="link_staff_UC3"><path d="M60.54,284.6669 C72.24,278.1569 86.31,270.8369 99.5,265.2969 C118.88,257.1569 135.2367,251.6197 154.1567,246.0197 " fill="none" id="staff-to-UC3" style="stroke:#222222;stroke-width:1.0;"/><polygon fill="#222222" points="159.91,244.3169,150.1448,243.0357,155.1156,245.7359,152.4153,250.7067,159.91,244.3169" style="stroke:#222222;stroke-width:1.0;"/></g><!--link staff to UC4--><g id="link_staff_UC4"><path d="M60.64,300.2969 C80.03,300.2969 101.25,300.2969 126.81,300.2969 " fill="none" id="staff-to-UC4" style="stroke:#222222;stroke-width:1.0;"/><polygon fill="#222222" points="132.81,300.2969,123.81,296.2969,127.81,300.2969,123.81,304.2969,132.81,300.2969" style="stroke:#222222;stroke-width:1.0;"/></g><!--link staff to UC5--><g id="link_staff_UC5"><path d="M60.58,315.4369 C72.3,321.7569 86.36,328.8669 99.5,334.2969 C120.52,342.9769 138.9208,349.0341 158.7708,354.8341 " fill="none" id="staff-to-UC5" style="stroke:#222222;stroke-width:1.0;"/><polygon fill="#222222" points="164.53,356.5169,157.0131,350.1532,159.7307,355.1146,154.7694,357.8322,164.53,356.5169" style="stroke:#222222;stroke-width:1.0;"/></g><!--link staff to UC8--><g id="link_staff_UC8"><path d="M51.89,339.1569 C63.03,359.5669 79.12,383.5369 99.5,399.2969 C113.83,410.3769 126.0745,416.3513 143.0745,421.7813 " fill="none" id="staff-to-UC8" style="stroke:#222222;stroke-width:1.0;"/><polygon fill="#222222" points="148.79,423.6069,141.4338,417.0581,144.0271,422.0855,138.9997,424.6788,148.79,423.6069" style="stroke:#222222;stroke-width:1.0;"/></g><!--link staff to UC9--><g id="link_staff_UC9"><path d="M39.34,338.8569 C46.59,377.0869 63.09,434.9269 99.5,470.2969 C111.28,481.7469 121.1635,487.6658 136.6535,493.1458 " fill="none" id="staff-to-UC9" style="stroke:#222222;stroke-width:1.0;"/><polygon fill="#222222" points="142.31,495.1469,135.1594,488.3742,137.5963,493.4793,132.4912,495.9162,142.31,495.1469" style="stroke:#222222;stroke-width:1.0;"/></g><!--SRC=[XPBHQjim58RlzHG7zoQ1jclSncj72NWUWx2L1OVkQZ1ExMDRn9OoIPanPR27s1FkIIRPpcOdOVML3_-dN-VyHth3nHOLLe29aMfjcf80QzAo8gR_Ya-OR78bToADP2aLr0KtGtsdAK5DRwLAINN8cU_x9uWNZ50fMPyqQFlxpmMT_eAza6RSP1ey1VFWa3XmESliboIC6MviF6k3MGQFcY2o4sdu_VCNX16iTzjjsK1K81SG2YmRmnFDM4cP0ID1yRmma795YU5ICDPs35vhvm5gqEwFCGUWoErDtg7jkj66AW-U6UmJ1U-ZpAtq2cBAkPLLw_KOpORCPqurV7A3wrxsXtAa20rrGAzV7nrVYkyaRCjDJzmS4HzMoxtzV2Y-byhz6NX75OgqHu8XibAKyiGH9JOGSxtfgTUZFWiqK7DJG9ZRNdhaTeWyeC2SkjZult7lXanCcWoiKElQFePzNbVCCdPmkBnSk8lX3TpVSv6KkvJqOZ4IWrFYh1TdLwsgwDlERjkfFnXhbmiN5oqmglnHTJsgRaRLV5JTZgexnjpRxP-PpFe9OfkthDm2jFaYjbtANrENycHwTCAD5SRBXt3Ydy_E_UdmXDlSPFe7]--></g></svg>