<?xml version="1.0" encoding="us-ascii" standalone="no"?><svg xmlns="http://www.w3.org/2000/svg" xmlns:xlink="http://www.w3.org/1999/xlink" contentStyleType="text/css" height="545px" preserveAspectRatio="none" style="width:1628px;height:545px;background:#FFFFFF;" version="1.1" viewBox="0 0 1628 545" width="1628px" zoomAndPan="magnify"><defs/><g><text fill="#000000" font-family="sans-serif" font-size="14" font-weight="bold" lengthAdjust="spacing" textLength="389" x="612.5" y="22.9951">Component Diagram &#8212; AC Supply Chain Analytics</text><!--cluster Client Layer--><g id="cluster_Client Layer"><path d="M481.5,43.2969 L576.5,43.2969 A3.75,3.75 0 0 1 579,45.7969 L586,65.5938 L793.5,65.5938 A2.5,2.5 0 0 1 796,68.0938 L796,154.7969 A2.5,2.5 0 0 1 793.5,157.2969 L481.5,157.2969 A2.5,2.5 0 0 1 479,154.7969 L479,45.7969 A2.5,2.5 0 0 1 481.5,43.2969 " fill="#FFFFFF" style="stroke:#222222;stroke-width:1.5;"/><line style="stroke:#222222;stroke-width:1.5;" x1="479" x2="586" y1="65.5938" y2="65.5938"/><text fill="#000000" font-family="sans-serif" font-size="14" font-weight="bold" lengthAdjust="spacing" textLength="94" x="483" y="58.292">Client Layer</text></g><!--cluster FastAPI Application--><g id="cluster_FastAPI Application"><path d="M8.5,181.2969 L159.5,181.2969 A3.75,3.75 0 0 1 162,183.7969 L169,203.5938 L1019.5,203.5938 A2.5,2.5 0 0 1 1022,206.0938 L1022,415.7969 A2.5,2.5 0 0 1 1019.5,418.2969 L8.5,418.2969 A2.5,2.5 0 0 1 6,415.7969 L6,183.7969 A2.5,2.5 0 0 1 8.5,181.2969 " fill="#FFFFFF" style="stroke:#222222;stroke-width:1.5;"/><line style="stroke:#222222;stroke-width:1.5;" x1="6" x2="169" y1="203.5938" y2="203.5938"/><text fill="#000000" font-family="sans-serif" font-size="14" font-weight="bold" lengthAdjust="spacing" textLength="150" x="10" y="196.292">FastAPI Application</text></g><!--cluster ML Service (Singleton)--><g id="cluster_ML Service (Singleton)"><path d="M1048.5,304.2969 L1226.5,304.2969 A3.75,3.75 0 0 1 1229,306.7969 L1236,326.5938 L1618.5,326.5938 A2.5,2.5 0 0 1 1621,329.0938 L1621,415.7969 A2.5,2.5 0 0 1 1618.5,418.2969 L1048.5,418.2969 A2.5,2.5 0 0 1 1046,415.7969 L1046,306.7969 A2.5,2.5 0 0 1 1048.5,304.2969 " fill="#FFFFFF" style="stroke:#222222;stroke-width:1.5;"/><line style="stroke:#222222;stroke-width:1.5;" x1="1046" x2="1236" y1="326.5938" y2="326.5938"/><text fill="#000000" font-family="sans-serif" font-size="14" font-weight="bold" lengthAdjust="spacing" textLength="177" x="1050" y="319.292">ML Service (Singleton)</text></g><!--cluster PostgreSQL 17--><g id="cluster_PostgreSQL 17"><path d="M477.5,442.2969 L596.5,442.2969 A3.75,3.75 0 0 1 599,444.7969 L606,464.5938 L628.5,464.5938 A2.5,2.5 0 0 1 631,467.0938 L631,535.7969 A2.5,2.5 0 0 1 628.5,538.2969 L477.5,538.2969 A2.5,2.5 0 0 1 475,535.7969 L475,444.7969 A2.5,2.5 0 0 1 477.5,442.2969 " fill="#FFFFFF" style="stroke:#222222;stroke-width:1.5;"/><line style="stroke:#222222;stroke-width:1.5;" x1="475" x2="606" y1="464.5938" y2="464.5938"/><text fill="#000000" font-family="sans-serif" font-size="14" font-weight="bold" lengthAdjust="spacing" textLength="118" x="479" y="457.292">PostgreSQL 17</text></g><!--cluster External Services--><g id="cluster_External Services"><path d="M822.5,43.2969 L960.5,43.2969 A3.75,3.75 0 0 1 963,45.7969 L970,65.5938 L1170.5,65.5938 A2.5,2.5 0 0 1 1173,68.0938 L1173,154.7969 A2.5,2.5 0 0 1 1170.5,157.2969 L822.5,157.2969 A2.5,2.5 0 0 1 820,154.7969 L820,45.7969 A2.5,2.5 0 0 1 822.5,43.2969 " fill="#FFFFFF" style="stroke:#222222;stroke-width:1.5;"/><line style="stroke:#222222;stroke-width:1.5;" x1="820" x2="970" y1="65.5938" y2="65.5938"/><text fill="#000000" font-family="sans-serif" font-size="14" font-weight="bold" lengthAdjust="spacing" textLength="137" x="824" y="58.292">External Services</text></g><!--entity BROWSER--><g id="elem_BROWSER"><rect fill="#FFFFFF" height="46.2969" rx="2.5" ry="2.5" style="stroke:#222222;stroke-width:0.5;" width="132" x="495" y="86.7969"/><rect fill="#FFFFFF" height="10" style="stroke:#222222;stroke-width:0.5;" width="15" x="607" y="91.7969"/><rect fill="#FFFFFF" height="2" style="stroke:#222222;stroke-width:0.5;" width="4" x="605" y="93.7969"/><rect fill="#FFFFFF" height="2" style="stroke:#222222;stroke-width:0.5;" width="4" x="605" y="97.7969"/><text fill="#000000" font-family="sans-serif" font-size="14" lengthAdjust="spacing" textLength="92" x="510" y="119.792">Web Browser</text></g><!--entity SWAGGER--><g id="elem_SWAGGER"><rect fill="#FFFFFF" height="62.5938" rx="2.5" ry="2.5" style="stroke:#222222;stroke-width:0.5;" width="117" x="662.5" y="78.2969"/><rect fill="#FFFFFF" height="10" style="stroke:#222222;stroke-width:0.5;" width="15" x="759.5" y="83.2969"/><rect fill="#FFFFFF" height="2" style="stroke:#222222;stroke-width:0.5;" width="4" x="757.5" y="85.2969"/><rect fill="#FFFFFF" height="2" style="stroke:#222222;stroke-width:0.5;" width="4" x="757.5" y="89.2969"/><text fill="#000000" font-family="sans-serif" font-size="14" lengthAdjust="spacing" textLength="77" x="677.5" y="111.292">Swagger UI</text><text fill="#000000" font-family="sans-serif" font-size="14" lengthAdjust="spacing" textLength="39" x="677.5" y="127.5889">/docs</text></g><!--entity AUTH--><g id="elem_AUTH"><rect fill="#FFFFFF" height="62.5938" rx="2.5" ry="2.5" style="stroke:#222222;stroke-width:0.5;" width="117" x="751.5" y="216.2969"/><rect fill="#FFFFFF" height="10" style="stroke:#222222;stroke-width:0.5;" width="15" x="848.5" y="221.2969"/><rect fill="#FFFFFF" height="2" style="stroke:#222222;stroke-width:0.5;" width="4" x="846.5" y="223.2969"/><rect fill="#FFFFFF" height="2" style="stroke:#222222;stroke-width:0.5;" width="4" x="846.5" y="227.2969"/><text fill="#000000" font-family="sans-serif" font-size="14" lengthAdjust="spacing" textLength="77" x="766.5" y="249.292">auth.router</text><text fill="#000000" font-family="sans-serif" font-size="14" lengthAdjust="spacing" textLength="48" x="766.5" y="265.5889">/auth/*</text></g><!--entity ORDERS--><g id="elem_ORDERS"><rect fill="#FFFFFF" height="62.5938" rx="2.5" ry="2.5" style="stroke:#222222;stroke-width:0.5;" width="131" x="585.5" y="216.2969"/><rect fill="#FFFFFF" height="10" style="stroke:#222222;stroke-width:0.5;" width="15" x="696.5" y="221.2969"/><rect fill="#FFFFFF" height="2" style="stroke:#222222;stroke-width:0.5;" width="4" x="694.5" y="223.2969"/><rect fill="#FFFFFF" height="2" style="stroke:#222222;stroke-width:0.5;" width="4" x="694.5" y="227.2969"/><text fill="#000000" font-family="sans-serif" font-size="14" lengthAdjust="spacing" textLength="91" x="600.5" y="249.292">orders.router</text><text fill="#000000" font-family="sans-serif" font-size="14" lengthAdjust="spacing" textLength="62" x="600.5" y="265.5889">/orders/*</text></g><!--entity INV--><g id="elem_INV"><rect fill="#FFFFFF" height="62.5938" rx="2.5" ry="2.5" style="stroke:#222222;stroke-width:0.5;" width="149" x="401.5" y="216.2969"/><rect fill="#FFFFFF" height="10" style="stroke:#222222;stroke-width:0.5;" width="15" x="530.5" y="221.2969"/><rect fill="#FFFFFF" height="2" style="stroke:#222222;stroke-width:0.5;" width="4" x="528.5" y="223.2969"/><rect fill="#FFFFFF" height="2" style="stroke:#222222;stroke-width:0.5;" width="4" x="528.5" y="227.2969"/><text fill="#000000" font-family="sans-serif" font-size="14" lengthAdjust="spacing" textLength="109" x="416.5" y="249.292">inventory.router</text><text fill="#000000" font-family="sans-serif" font-size="14" lengthAdjust="spacing" textLength="80" x="416.5" y="265.5889">/inventory/*</text></g><!--entity ML_R--><g id="elem_ML_R"><rect fill="#FFFFFF" height="62.5938" rx="2.5" ry="2.5" style="stroke:#222222;stroke-width:0.5;" width="102" x="904" y="216.2969"/><rect fill="#FFFFFF" height="10" style="stroke:#222222;stroke-width:0.5;" width="15" x="986" y="221.2969"/><rect fill="#FFFFFF" height="2" style="stroke:#222222;stroke-width:0.5;" width="4" x="984" y="223.2969"/><rect fill="#FFFFFF" height="2" style="stroke:#222222;stroke-width:0.5;" width="4" x="984" y="227.2969"/><text fill="#000000" font-family="sans-serif" font-size="14" lengthAdjust="spacing" textLength="62" x="919" y="249.292">ml.router</text><text fill="#000000" font-family="sans-serif" font-size="14" lengthAdjust="spacing" textLength="33" x="919" y="265.5889">/ml/*</text></g><!--entity DASH--><g id="elem_DASH"><rect fill="#FFFFFF" height="62.5938" rx="2.5" ry="2.5" style="stroke:#222222;stroke-width:0.5;" width="160" x="22" y="216.2969"/><rect fill="#FFFFFF" height="10" style="stroke:#222222;stroke-width:0.5;" width="15" x="162" y="221.2969"/><rect fill="#FFFFFF" height="2" style="stroke:#222222;stroke-width:0.5;" width="4" x="160" y="223.2969"/><rect fill="#FFFFFF" height="2" style="stroke:#222222;stroke-width:0.5;" width="4" x="160" y="227.2969"/><text fill="#000000" font-family="sans-serif" font-size="14" lengthAdjust="spacing" textLength="120" x="37" y="249.292">dashboard.router</text><text fill="#000000" font-family="sans-serif" font-size="14" lengthAdjust="spacing" textLength="91" x="37" y="265.5889">/dashboard/*</text></g><!--entity SUP--><g id="elem_SUP"><rect fill="#FFFFFF" height="62.5938" rx="2.5" ry="2.5" style="stroke:#222222;stroke-width:0.5;" width="149" x="217.5" y="216.2969"/><rect fill="#FFFFFF" height="10" style="stroke:#222222;stroke-width:0.5;" width="15" x="346.5" y="221.2969"/><rect fill="#FFFFFF" height="2" style="stroke:#222222;stroke-width:0.5;" width="4" x="344.5" y="223.2969"/><rect fill="#FFFFFF" height="2" style="stroke:#222222;stroke-width:0.5;" width="4" x="344.5" y="227.2969"/><text fill="#000000" font-family="sans-serif" font-size="14" lengthAdjust="spacing" textLength="109" x="232.5" y="249.292">suppliers.router</text><text fill="#000000" font-family="sans-serif" font-size="14" lengthAdjust="spacing" textLength="80" x="232.5" y="265.5889">/suppliers/*</text></g><!--entity CORE_AUTH--><g id="elem_CORE_AUTH"><rect fill="#FFFFFF" height="62.5938" rx="2.5" ry="2.5" style="stroke:#222222;stroke-width:0.5;" width="128" x="746" y="339.2969"/><rect fill="#FFFFFF" height="10" style="stroke:#222222;stroke-width:0.5;" width="15" x="854" y="344.2969"/><rect fill="#FFFFFF" height="2" style="stroke:#222222;stroke-width:0.5;" width="4" x="852" y="346.2969"/><rect fill="#FFFFFF" height="2" style="stroke:#222222;stroke-width:0.5;" width="4" x="852" y="350.2969"/><text fill="#000000" font-family="sans-serif" font-size="14" lengthAdjust="spacing" textLength="66" x="761" y="372.292">core.auth</text><text fill="#000000" font-family="sans-serif" font-size="14" lengthAdjust="spacing" textLength="88" x="761" y="388.5889">JWT + bcrypt</text></g><!--entity CORE_DB--><g id="elem_CORE_DB"><rect fill="#FFFFFF" height="62.5938" rx="2.5" ry="2.5" style="stroke:#222222;stroke-width:0.5;" width="162" x="472" y="339.2969"/><rect fill="#FFFFFF" height="10" style="stroke:#222222;stroke-width:0.5;" width="15" x="614" y="344.2969"/><rect fill="#FFFFFF" height="2" style="stroke:#222222;stroke-width:0.5;" width="4" x="612" y="346.2969"/><rect fill="#FFFFFF" height="2" style="stroke:#222222;stroke-width:0.5;" width="4" x="612" y="350.2969"/><text fill="#000000" font-family="sans-serif" font-size="14" lengthAdjust="spacing" textLength="99" x="487" y="372.292">core.database</text><text fill="#000000" font-family="sans-serif" font-size="14" lengthAdjust="spacing" textLength="122" x="487" y="388.5889">SQLAlchemy ORM</text></g><!--entity CONFIG--><g id="elem_CONFIG"><rect fill="#FFFFFF" height="62.5938" rx="2.5" ry="2.5" style="stroke:#222222;stroke-width:0.5;" width="130" x="37" y="339.2969"/><rect fill="#FFFFFF" height="10" style="stroke:#222222;stroke-width:0.5;" width="15" x="147" y="344.2969"/><rect fill="#FFFFFF" height="2" style="stroke:#222222;stroke-width:0.5;" width="4" x="145" y="346.2969"/><rect fill="#FFFFFF" height="2" style="stroke:#222222;stroke-width:0.5;" width="4" x="145" y="350.2969"/><text fill="#000000" font-family="sans-serif" font-size="14" lengthAdjust="spacing" textLength="77" x="52" y="372.292">core.config</text><text fill="#000000" font-family="sans-serif" font-size="14" lengthAdjust="spacing" textLength="90" x="52" y="388.5889">.env Settings</text></g><!--entity RF--><g id="elem_RF"><rect fill="#FFFFFF" height="62.5938" rx="2.5" ry="2.5" style="stroke:#222222;stroke-width:0.5;" width="150" x="1455" y="339.2969"/><rect fill="#FFFFFF" height="10" style="stroke:#222222;stroke-width:0.5;" width="15" x="1585" y="344.2969"/><rect fill="#FFFFFF" height="2" style="stroke:#222222;stroke-width:0.5;" width="4" x="1583" y="346.2969"/><rect fill="#FFFFFF" height="2" style="stroke:#222222;stroke-width:0.5;" width="4" x="1583" y="350.2969"/><text fill="#000000" font-family="sans-serif" font-size="14" lengthAdjust="spacing" textLength="110" x="1470" y="372.292">delay_model.pkl</text><text fill="#000000" font-family="sans-serif" font-size="14" lengthAdjust="spacing" textLength="102" x="1470" y="388.5889">RandomForest</text></g><!--entity ARIMA--><g id="elem_ARIMA"><rect fill="#FFFFFF" height="62.5938" rx="2.5" ry="2.5" style="stroke:#222222;stroke-width:0.5;" width="151" x="1268.5" y="339.2969"/><rect fill="#FFFFFF" height="10" style="stroke:#222222;stroke-width:0.5;" width="15" x="1399.5" y="344.2969"/><rect fill="#FFFFFF" height="2" style="stroke:#222222;stroke-width:0.5;" width="4" x="1397.5" y="346.2969"/><rect fill="#FFFFFF" height="2" style="stroke:#222222;stroke-width:0.5;" width="4" x="1397.5" y="350.2969"/><text fill="#000000" font-family="sans-serif" font-size="14" lengthAdjust="spacing" textLength="111" x="1283.5" y="372.292">arima_model.pkl</text><text fill="#000000" font-family="sans-serif" font-size="14" lengthAdjust="spacing" textLength="88" x="1283.5" y="388.5889">ARIMA(2,1,2)</text></g><!--entity ISO--><g id="elem_ISO"><rect fill="#FFFFFF" height="62.5938" rx="2.5" ry="2.5" style="stroke:#222222;stroke-width:0.5;" width="171" x="1062.5" y="339.2969"/><rect fill="#FFFFFF" height="10" style="stroke:#222222;stroke-width:0.5;" width="15" x="1213.5" y="344.2969"/><rect fill="#FFFFFF" height="2" style="stroke:#222222;stroke-width:0.5;" width="4" x="1211.5" y="346.2969"/><rect fill="#FFFFFF" height="2" style="stroke:#222222;stroke-width:0.5;" width="4" x="1211.5" y="350.2969"/><text fill="#000000" font-family="sans-serif" font-size="14" lengthAdjust="spacing" textLength="131" x="1077.5" y="372.292">anomaly_model.pkl</text><text fill="#000000" font-family="sans-serif" font-size="14" lengthAdjust="spacing" textLength="101" x="1077.5" y="388.5889">IsolationForest</text></g><!--entity DB--><g id="elem_DB"><path d="M491,487.2969 C491,477.2969 553,477.2969 553,477.2969 C553,477.2969 615,477.2969 615,487.2969 L615,512.5938 C615,522.5938 553,522.5938 553,522.5938 C553,522.5938 491,522.5938 491,512.5938 L491,487.2969 " fill="#F1F1F1" style="stroke:#181818;stroke-width:0.5;"/><path d="M491,487.2969 C491,497.2969 553,497.2969 553,497.2969 C553,497.2969 615,497.2969 615,487.2969 " fill="none" style="stroke:#181818;stroke-width:0.5;"/><text fill="#000000" font-family="sans-serif" font-size="14" lengthAdjust="spacing" textLength="104" x="501" y="514.292">ac_logistics_db</text></g><!--entity RESEND--><g id="elem_RESEND"><rect fill="#FFFFFF" height="46.2969" rx="2.5" ry="2.5" style="stroke:#222222;stroke-width:0.5;" width="159" x="998.5" y="86.7969"/><rect fill="#FFFFFF" height="10" style="stroke:#222222;stroke-width:0.5;" width="15" x="1137.5" y="91.7969"/><rect fill="#FFFFFF" height="2" style="stroke:#222222;stroke-width:0.5;" width="4" x="1135.5" y="93.7969"/><rect fill="#FFFFFF" height="2" style="stroke:#222222;stroke-width:0.5;" width="4" x="1135.5" y="97.7969"/><text fill="#000000" font-family="sans-serif" font-size="14" lengthAdjust="spacing" textLength="119" x="1013.5" y="119.792">Resend Email API</text></g><!--entity UVICORN--><g id="elem_UVICORN"><rect fill="#FFFFFF" height="62.5938" rx="2.5" ry="2.5" style="stroke:#222222;stroke-width:0.5;" width="127" x="836.5" y="78.2969"/><rect fill="#FFFFFF" height="10" style="stroke:#222222;stroke-width:0.5;" width="15" x="943.5" y="83.2969"/><rect fill="#FFFFFF" height="2" style="stroke:#222222;stroke-width:0.5;" width="4" x="941.5" y="85.2969"/><rect fill="#FFFFFF" height="2" style="stroke:#222222;stroke-width:0.5;" width="4" x="941.5" y="89.2969"/><text fill="#000000" font-family="sans-serif" font-size="14" lengthAdjust="spacing" textLength="87" x="851.5" y="111.292">Uvicorn ASGI</text><text fill="#000000" font-family="sans-serif" font-size="14" lengthAdjust="spacing" textLength="68" x="851.5" y="127.5889">port 8000</text></g><!--link BROWSER to AUTH--><g id="link_BROWSER_AUTH"><path d="M587.6,132.8769 C603.3,144.6169 624.13,158.0869 645,165.2969 C682.54,178.2669 697.89,156.7669 734,173.2969 C754.86,182.8469 769.5405,196.0526 783.1205,211.7226 " fill="none" id="BROWSER-to-AUTH" style="stroke:#222222;stroke-width:1.0;"/><polygon fill="#222222" points="787.05,216.2569,784.1786,206.8359,783.7754,212.4784,778.133,212.0752,787.05,216.2569" style="stroke:#222222;stroke-width:1.0;"/></g><!--link BROWSER to ORDERS--><g id="link_BROWSER_ORDERS"><path d="M575.66,132.9469 C590.65,155.6069 610.7492,185.963 627.4892,211.263 " fill="none" id="BROWSER-to-ORDERS" style="stroke:#222222;stroke-width:1.0;"/><polygon fill="#222222" points="630.8,216.2669,629.1696,206.5539,628.041,212.097,622.4979,210.9683,630.8,216.2669" style="stroke:#222222;stroke-width:1.0;"/></g><!--link SWAGGER to ML_R--><g id="link_SWAGGER_ML_R"><path d="M767.92,141.4169 C783.86,150.5069 802.17,159.5469 820,165.2969 C848.12,174.3669 859.64,159.9469 886,173.2969 C905.36,183.1069 918.4532,195.9389 930.6232,211.4289 " fill="none" id="SWAGGER-to-ML_R" style="stroke:#222222;stroke-width:1.0;"/><polygon fill="#222222" points="934.33,216.1469,931.9152,206.5987,931.241,212.2152,925.6245,211.541,934.33,216.1469" style="stroke:#222222;stroke-width:1.0;"/></g><!--link AUTH to CORE_AUTH--><g id="link_AUTH_CORE_AUTH"><path d="M810,279.3269 C810,297.6769 810,314.9369 810,333.2769 " fill="none" id="AUTH-to-CORE_AUTH" style="stroke:#222222;stroke-width:1.0;"/><polygon fill="#222222" points="810,339.2769,814,330.2769,810,334.2769,806,330.2769,810,339.2769" style="stroke:#222222;stroke-width:1.0;"/></g><!--link ORDERS to CORE_DB--><g id="link_ORDERS_CORE_DB"><path d="M626.27,279.3269 C611.41,297.6769 596.3572,316.2751 581.4972,334.6151 " fill="none" id="ORDERS-to-CORE_DB" style="stroke:#222222;stroke-width:1.0;"/><polygon fill="#222222" points="577.72,339.2769,586.4937,334.8023,580.8677,335.392,580.278,329.766,577.72,339.2769" style="stroke:#222222;stroke-width:1.0;"/></g><!--link INV to CORE_DB--><g id="link_INV_CORE_DB"><path d="M495.43,279.3269 C507.1,297.6769 518.677,315.876 530.357,334.216 " fill="none" id="INV-to-CORE_DB" style="stroke:#222222;stroke-width:1.0;"/><polygon fill="#222222" points="533.58,339.2769,532.1193,329.5369,530.8941,335.0595,525.3716,333.8343,533.58,339.2769" style="stroke:#222222;stroke-width:1.0;"/></g><!--link ML_R to RF--><g id="link_ML_R_RF"><path d="M1006.13,250.2069 C1113.68,253.7669 1359.8,265.1469 1437,296.2969 C1460.66,305.8469 1478.7951,319.3347 1495.7751,334.8847 " fill="none" id="ML_R-to-RF" style="stroke:#222222;stroke-width:1.0;"/><polygon fill="#222222" points="1500.2,338.9369,1496.2642,329.9086,1496.5126,335.56,1490.8612,335.8085,1500.2,338.9369" style="stroke:#222222;stroke-width:1.0;"/></g><!--link ML_R to ARIMA--><g id="link_ML_R_ARIMA"><path d="M1006.15,249.2569 C1066.96,251.5169 1170.35,260.8669 1251,296.2969 C1274.17,306.4769 1292.0901,319.8332 1309.0801,335.1232 " fill="none" id="ML_R-to-ARIMA" style="stroke:#222222;stroke-width:1.0;"/><polygon fill="#222222" points="1313.54,339.1369,1309.5259,330.1431,1309.8234,335.7922,1304.1744,336.0897,1313.54,339.1369" style="stroke:#222222;stroke-width:1.0;"/></g><!--link ML_R to ISO--><g id="link_ML_R_ISO"><path d="M1003.7,279.3269 C1032.96,297.6769 1064.9766,317.7495 1094.2266,336.0895 " fill="none" id="ML_R-to-ISO" style="stroke:#222222;stroke-width:1.0;"/><polygon fill="#222222" points="1099.31,339.2769,1093.8098,331.1069,1095.0738,336.6208,1089.56,337.8848,1099.31,339.2769" style="stroke:#222222;stroke-width:1.0;"/></g><!--link CORE_DB to DB--><g id="link_CORE_DB_DB"><path d="M553,402.5369 C553,425.5869 553,450.5769 553,471.0869 " fill="none" id="CORE_DB-to-DB" style="stroke:#222222;stroke-width:1.0;"/><polygon fill="#222222" points="553,477.0869,557,468.0869,553,472.0869,549,468.0869,553,477.0869" style="stroke:#222222;stroke-width:1.0;"/></g><!--link AUTH to RESEND--><g id="link_AUTH_RESEND"><path d="M833.31,216.2169 C847.09,200.5369 865.94,182.7869 887,173.2969 C925.22,156.0669 940.92,177.6269 981,165.2969 C1004.45,158.0869 1023.4507,147.8579 1041.7407,136.1179 " fill="none" id="AUTH-to-RESEND" style="stroke:#222222;stroke-width:1.0;"/><polygon fill="#222222" points="1046.79,132.8769,1037.0553,134.3723,1042.5822,135.5778,1041.3767,141.1047,1046.79,132.8769" style="stroke:#222222;stroke-width:1.0;"/></g><!--link UVICORN to AUTH--><g id="link_UVICORN_AUTH"><path d="M879.8,141.3169 C865.08,163.5569 848.5316,188.5736 833.7516,210.9036 " fill="none" id="UVICORN-to-AUTH" style="stroke:#222222;stroke-width:1.0;"/><polygon fill="#222222" points="830.44,215.9069,838.743,210.6097,833.1997,211.7375,832.0719,206.1942,830.44,215.9069" style="stroke:#222222;stroke-width:1.0;"/></g><!--link UVICORN to ORDERS--><g id="link_UVICORN_ORDERS"><path d="M850.51,141.2969 C833.75,150.3669 814.57,159.4369 796,165.2969 C769.5,173.6569 759.29,161.7969 734,173.2969 C712.27,183.1669 696.2981,196.4207 681.2881,211.8907 " fill="none" id="UVICORN-to-ORDERS" style="stroke:#222222;stroke-width:1.0;"/><polygon fill="#222222" points="677.11,216.1969,686.248,212.523,680.5918,212.6084,680.5064,206.9522,677.11,216.1969" style="stroke:#222222;stroke-width:1.0;"/></g><!--SRC=[XPFDZjem4CVlFCM8NdRRNPRbqfug1GWq5L-Db-LGAcGIDrWuTcHxOQEgKX-YJzWdgUsO12JKdc36lvdvpqVKdl82Ivp35YVxJ8eNdWu44nAEEwf9IzNlYSWBmGdNVI5J8YleJQ_Nkyhy9ncMKXolfYXC9Cx8FugSYAibMffgHc1m4W93YZCRzUVNRmW6W5wAWfKms67A8U2ObPecgjNoIQ4zODI6JN19P1j-j02-hiWM-aQl8l8RO0NzUBv2OMoVq15d6P6mZDRy8HM9SW1Q1UEn0NwUvHrXfOD5186fJnEigU0-FNxHkuvfH1DfabZhuQrB4ooVFbd0ZK8rI6LxQ1uFmnXPZFA3KIvasP2royFHxDcIEMkGdFctwMJZMagnscq5bcd3r2wF3WFaX2axJ7gXhNPv52qNbao491tRsff_NZt1EzWciYoqGmRpEDoSUdLWYZNUOaNM77sP12pPaRmqZKuRVDYluKJmxpHRymxX1q14QyepvSdPA1fVR64wCOWyq8J03J8W8rhmMx-8b31SRd9XVZl5dgrvZ7agyf6feYgfySWjJD8SdtD174s3czxTurtljjgSTJYKYzpSs3aSAS7S-i_oHcX-8NCXbCuaCTt3u_jAtMacqCR9XecCAdkuctJRTXlfNyI7hsORvhXFpIhVOKmKuIc4EQOCp3LMJOKed0tjyzAmGfhl0etDFHT2QlZGxNOTjNoEpEHdjeo_VxY__rZTwBd3twF_19pBNPO5dTMikq8Rfsd27EY5RKETmqo-_bzDjpRjy3plR1DM5_EzUV6DudD79UCl]--></g></svg>