<?xml version="1.0" encoding="us-ascii" standalone="no"?><svg xmlns="http://www.w3.org/2000/svg" xmlns:xlink="http://www.w3.org/1999/xlink" contentStyleType="text/css" height="680px" preserveAspectRatio="none" style="width:866px;height:680px;background:#FFFFFF;" version="1.1" viewBox="0 0 866 680" width="866px" zoomAndPan="magnify"><defs/><g><text fill="#000000" font-family="sans-serif" font-size="14" font-weight="bold" lengthAdjust="spacing" textLength="392" x="230" y="22.9951">Deployment Diagram &#8212; AC Supply Chain Analytics</text><!--cluster CLIENT_NODE--><g id="cluster_CLIENT_NODE"><polygon fill="#FFFFFF" points="554,53.2969,564,43.2969,745,43.2969,745,145.2969,735,155.2969,554,155.2969,554,53.2969" style="stroke:#222222;stroke-width:1.0;"/><line style="stroke:#222222;stroke-width:1.0;" x1="735" x2="745" y1="53.2969" y2="43.2969"/><line style="stroke:#222222;stroke-width:1.0;" x1="554" x2="735" y1="53.2969" y2="53.2969"/><line style="stroke:#222222;stroke-width:1.0;" x1="735" x2="735" y1="53.2969" y2="155.2969"/><text fill="#000000" font-family="sans-serif" font-size="14" font-weight="bold" lengthAdjust="spacing" textLength="115" x="588" y="69.292">Client Machine</text></g><!--cluster APP_NODE--><g id="cluster_APP_NODE"><polygon fill="#FFFFFF" points="16,214.2969,26,204.2969,757,204.2969,757,455.2969,747,465.2969,16,465.2969,16,214.2969" style="stroke:#222222;stroke-width:1.0;"/><line style="stroke:#222222;stroke-width:1.0;" x1="747" x2="757" y1="214.2969" y2="204.2969"/><line style="stroke:#222222;stroke-width:1.0;" x1="16" x2="747" y1="214.2969" y2="214.2969"/><line style="stroke:#222222;stroke-width:1.0;" x1="747" x2="747" y1="214.2969" y2="465.2969"/><text fill="#000000" font-family="sans-serif" font-size="14" font-weight="bold" lengthAdjust="spacing" textLength="145" x="310" y="230.292">Application Server</text><text fill="#000000" font-family="sans-serif" font-size="14" font-weight="bold" lengthAdjust="spacing" textLength="229" x="268" y="246.5889">Python 3.13 &#183; Windows/Linux</text></g><!--cluster DB_NODE--><g id="cluster_DB_NODE"><polygon fill="#FFFFFF" points="402,539.2969,412,529.2969,609,529.2969,609,653.2969,599,663.2969,402,663.2969,402,539.2969" style="stroke:#222222;stroke-width:1.0;"/><line style="stroke:#222222;stroke-width:1.0;" x1="599" x2="609" y1="539.2969" y2="529.2969"/><line style="stroke:#222222;stroke-width:1.0;" x1="402" x2="599" y1="539.2969" y2="539.2969"/><line style="stroke:#222222;stroke-width:1.0;" x1="599" x2="599" y1="539.2969" y2="663.2969"/><text fill="#000000" font-family="sans-serif" font-size="14" font-weight="bold" lengthAdjust="spacing" textLength="131" x="436" y="555.292">Database Server</text><text fill="#000000" font-family="sans-serif" font-size="14" font-weight="bold" lengthAdjust="spacing" textLength="118" x="442.5" y="571.5889">PostgreSQL 17</text></g><!--cluster EXT_NODE--><g id="cluster_EXT_NODE"><polygon fill="#FFFFFF" points="633,542.2969,643,532.2969,849,532.2969,849,650.2969,839,660.2969,633,660.2969,633,542.2969" style="stroke:#222222;stroke-width:1.0;"/><line style="stroke:#222222;stroke-width:1.0;" x1="839" x2="849" y1="542.2969" y2="532.2969"/><line style="stroke:#222222;stroke-width:1.0;" x1="633" x2="839" y1="542.2969" y2="542.2969"/><line style="stroke:#222222;stroke-width:1.0;" x1="839" x2="839" y1="542.2969" y2="660.2969"/><text fill="#000000" font-family="sans-serif" font-size="14" font-weight="bold" lengthAdjust="spacing" textLength="64" x="705" y="558.292">External</text><text fill="#000000" font-family="sans-serif" font-size="14" font-weight="bold" lengthAdjust="spacing" textLength="89" x="692.5" y="574.5889">Resend API</text></g><!--entity BROWSER--><g id="elem_BROWSER"><rect fill="#FFFFFF" height="55.5938" rx="2.5" ry="2.5" style="stroke:#222222;stroke-width:0.5;" width="142" x="578" y="83.2969"/><polygon fill="#FFFFFF" points="703,88.2969,703,102.2969,715,102.2969,715,94.2969,709,88.2969,703,88.2969" style="stroke:#222222;stroke-width:0.5;"/><line style="stroke:#222222;stroke-width:0.5;" x1="709" x2="709" y1="88.2969" y2="94.2969"/><line style="stroke:#222222;stroke-width:0.5;" x1="715" x2="709" y1="94.2969" y2="94.2969"/><text fill="#000000" font-family="sans-serif" font-size="14" lengthAdjust="spacing" textLength="92" x="588" y="109.292">Web Browser</text><text fill="#000000" font-family="sans-serif" font-size="14" lengthAdjust="spacing" textLength="112" x="588" y="125.5889">HTTP REST calls</text></g><!--entity UVICORN--><g id="elem_UVICORN"><rect fill="#FFFFFF" height="55.5938" rx="2.5" ry="2.5" style="stroke:#222222;stroke-width:0.5;" width="185" x="556.5" y="268.2969"/><polygon fill="#FFFFFF" points="724.5,273.2969,724.5,287.2969,736.5,287.2969,736.5,279.2969,730.5,273.2969,724.5,273.2969" style="stroke:#222222;stroke-width:0.5;"/><line style="stroke:#222222;stroke-width:0.5;" x1="730.5" x2="730.5" y1="273.2969" y2="279.2969"/><line style="stroke:#222222;stroke-width:0.5;" x1="736.5" x2="730.5" y1="279.2969" y2="279.2969"/><text fill="#000000" font-family="sans-serif" font-size="14" lengthAdjust="spacing" textLength="87" x="566.5" y="294.292">Uvicorn ASGI</text><text fill="#000000" font-family="sans-serif" font-size="14" lengthAdjust="spacing" textLength="155" x="566.5" y="310.5889">host 0.0.0.0 port 8000</text></g><!--entity FASTAPI--><g id="elem_FASTAPI"><rect fill="#FFFFFF" height="55.5938" rx="2.5" ry="2.5" style="stroke:#222222;stroke-width:0.5;" width="159" x="569.5" y="393.2969"/><polygon fill="#FFFFFF" points="711.5,398.2969,711.5,412.2969,723.5,412.2969,723.5,404.2969,717.5,398.2969,711.5,398.2969" style="stroke:#222222;stroke-width:0.5;"/><line style="stroke:#222222;stroke-width:0.5;" x1="717.5" x2="717.5" y1="398.2969" y2="404.2969"/><line style="stroke:#222222;stroke-width:0.5;" x1="723.5" x2="717.5" y1="404.2969" y2="404.2969"/><text fill="#000000" font-family="sans-serif" font-size="14" lengthAdjust="spacing" textLength="129" x="579.5" y="419.292">FastAPI Application</text><text fill="#000000" font-family="sans-serif" font-size="14" lengthAdjust="spacing" textLength="84" x="579.5" y="435.5889">app/main.py</text></g><!--entity ML--><g id="elem_ML"><rect fill="#FFFFFF" height="55.5938" rx="2.5" ry="2.5" style="stroke:#222222;stroke-width:0.5;" width="212" x="309" y="268.2969"/><polygon fill="#FFFFFF" points="504,273.2969,504,287.2969,516,287.2969,516,279.2969,510,273.2969,504,273.2969" style="stroke:#222222;stroke-width:0.5;"/><line style="stroke:#222222;stroke-width:0.5;" x1="510" x2="510" y1="273.2969" y2="279.2969"/><line style="stroke:#222222;stroke-width:0.5;" x1="516" x2="510" y1="279.2969" y2="279.2969"/><text fill="#000000" font-family="sans-serif" font-size="14" lengthAdjust="spacing" textLength="160" x="319" y="294.292">ML Models (in-memory)</text><text fill="#000000" font-family="sans-serif" font-size="14" lengthAdjust="spacing" textLength="182" x="319" y="310.5889">delay &#183; arima &#183; anomaly .pkl</text></g><!--entity ENV--><g id="elem_ENV"><rect fill="#FFFFFF" height="71.8906" rx="2.5" ry="2.5" style="stroke:#222222;stroke-width:0.5;" width="241" x="32.5" y="260.2969"/><polygon fill="#FFFFFF" points="256.5,265.2969,256.5,279.2969,268.5,279.2969,268.5,271.2969,262.5,265.2969,256.5,265.2969" style="stroke:#222222;stroke-width:0.5;"/><line style="stroke:#222222;stroke-width:0.5;" x1="262.5" x2="262.5" y1="265.2969" y2="271.2969"/><line style="stroke:#222222;stroke-width:0.5;" x1="268.5" x2="262.5" y1="271.2969" y2="271.2969"/><text fill="#000000" font-family="sans-serif" font-size="14" lengthAdjust="spacing" textLength="125" x="42.5" y="286.292">.env Configuration</text><text fill="#000000" font-family="sans-serif" font-size="14" lengthAdjust="spacing" textLength="211" x="42.5" y="302.5889">DATABASE_URL &#183; SECRET_KEY</text><text fill="#000000" font-family="sans-serif" font-size="14" lengthAdjust="spacing" textLength="120" x="42.5" y="318.8857">RESEND_API_KEY</text></g><!--entity DB--><g id="elem_DB"><path d="M469,595.2969 C469,585.2969 531,585.2969 531,585.2969 C531,585.2969 593,585.2969 593,595.2969 L593,636.8906 C593,646.8906 531,646.8906 531,646.8906 C531,646.8906 469,646.8906 469,636.8906 L469,595.2969 " fill="#F1F1F1" style="stroke:#181818;stroke-width:0.5;"/><path d="M469,595.2969 C469,605.2969 531,605.2969 531,605.2969 C531,605.2969 593,605.2969 593,595.2969 " fill="none" style="stroke:#181818;stroke-width:0.5;"/><text fill="#000000" font-family="sans-serif" font-size="14" lengthAdjust="spacing" textLength="104" x="479" y="622.292">ac_logistics_db</text><text fill="#000000" font-family="sans-serif" font-size="14" lengthAdjust="spacing" textLength="103" x="479" y="638.5889">localhost:5432</text></g><!--entity RESEND--><g id="elem_RESEND"><rect fill="#FFFFFF" height="55.5938" rx="2.5" ry="2.5" style="stroke:#222222;stroke-width:0.5;" width="185" x="648.5" y="588.2969"/><polygon fill="#FFFFFF" points="816.5,593.2969,816.5,607.2969,828.5,607.2969,828.5,599.2969,822.5,593.2969,816.5,593.2969" style="stroke:#222222;stroke-width:0.5;"/><line style="stroke:#222222;stroke-width:0.5;" x1="822.5" x2="822.5" y1="593.2969" y2="599.2969"/><line style="stroke:#222222;stroke-width:0.5;" x1="828.5" x2="822.5" y1="599.2969" y2="599.2969"/><text fill="#000000" font-family="sans-serif" font-size="14" lengthAdjust="spacing" textLength="107" x="658.5" y="614.292">api.resend.com</text><text fill="#000000" font-family="sans-serif" font-size="14" lengthAdjust="spacing" textLength="155" x="658.5" y="630.5889">password reset emails</text></g><!--link BROWSER to UVICORN--><g id="link_BROWSER_UVICORN"><path d="M649,139.2969 C649,173.8969 649,227.5269 649,262.1869 " fill="none" id="BROWSER-to-UVICORN" style="stroke:#222222;stroke-width:1.0;"/><polygon fill="#222222" points="649,268.1869,653,259.1869,649,263.1869,645,259.1869,649,268.1869" style="stroke:#222222;stroke-width:1.0;"/><text fill="#000000" font-family="sans-serif" font-size="13" lengthAdjust="spacing" textLength="72" x="650" y="184.3638">HTTP :8000</text></g><!--link FASTAPI to DB--><g id="link_FASTAPI_DB"><path d="M626.81,449.5769 C619.24,459.3469 610.94,470.5969 604,481.2969 C581.66,515.7469 562.3072,552.2473 548.3872,579.9073 " fill="none" id="FASTAPI-to-DB" style="stroke:#222222;stroke-width:1.0;"/><polygon fill="#222222" points="545.69,585.2669,553.3089,579.0257,547.9377,580.8006,546.1628,575.4294,545.69,585.2669" style="stroke:#222222;stroke-width:1.0;"/><text fill="#000000" font-family="sans-serif" font-size="13" lengthAdjust="spacing" textLength="64" x="605" y="494.3638">TCP :5432</text><text fill="#000000" font-family="sans-serif" font-size="13" lengthAdjust="spacing" textLength="61" x="606.5" y="509.4966">psycopg2</text></g><!--link FASTAPI to RESEND--><g id="link_FASTAPI_RESEND"><path d="M661.99,449.5369 C679.52,486.3269 707.9987,546.0605 725.4987,582.7805 " fill="none" id="FASTAPI-to-RESEND" style="stroke:#222222;stroke-width:1.0;"/><polygon fill="#222222" points="728.08,588.1969,727.8189,578.3515,725.9289,583.6833,720.5971,581.7932,728.08,588.1969" style="stroke:#222222;stroke-width:1.0;"/><text fill="#000000" font-family="sans-serif" font-size="13" lengthAdjust="spacing" textLength="41" x="727.5" y="494.3638">HTTPS</text><text fill="#000000" font-family="sans-serif" font-size="13" lengthAdjust="spacing" textLength="110" x="693" y="509.4966">RESEND_API_KEY</text></g><!--link UVICORN to FASTAPI--><g id="link_UVICORN_FASTAPI"><path d="M649,324.5969 C649,344.9769 649,366.7069 649,387.0769 " fill="none" id="UVICORN-to-FASTAPI" style="stroke:#222222;stroke-width:1.0;"/><polygon fill="#222222" points="649,393.0769,653,384.0769,649,388.0769,645,384.0769,649,393.0769" style="stroke:#222222;stroke-width:1.0;"/></g><!--SRC=[XLBBZjCm5DtdAwxA1XRDT5hGe2wGyXgew8iadO8KAN8JJshLiIFRRIT2I7m4_yAUJ-5BiDEqfQCAb4tiUy_3vrwv8Qn20fMmGjcc47pBSezJBc2_9WfRybHdFCSk5paMX_gBVh__lFmV2YG4trz58w788yhKFmHEBLT5B4KKnU3ZYlAwn4o1Jr1XSB-__m37WsXRLRG6Ruq80uSXMYkIISiolg7ZKM8m4vIj2SCTG1AyyIYOnkbqvWVmrOAJFdIMU0MkVed48c4VudWEOH35a25APGDrmzao2aBhsv7UqTeaGufm1X4MEmESrsgjZmFxTW2_ViAIi5nJtem9spurBCvyVarziICP5_eDqVjHmjPSAkZPpGSL5mhUzdgz1hzu67cpS7e1laTIEVCH_6KeOQYgRaeTYrtL3V3UYMBTT06SZ66Ydq8bl2IiM-AIY_fLmlGDgerz94Y9cX_6InqksDM6DcoJyGMHZTaEFCuUIR4LhG7VYHtNYO9q4OuDHnHuOH2d7uCl2TFH1bC_rNxCkM4CfW_dQ7saq0f9VCvL9r8877qQm-rTq- -xvnppOti7PIdb1P5c3T9ybJ3AzGHDdiCthmVz5daM2fuK5dflj2KiCSlrV4O7Ev-lRWcgY2sQJZlZPQAtMCgzNcymbmgmJhnTbyCJZLAxED3jlZkE3uRGhDZGpDLgHzCq-AwknPuk6RzQGDOPhuh-HTE1koM9diTf7KLCQmlx0m00]--></g></svg>