<?xml version="1.0" encoding="us-ascii" standalone="no"?><svg xmlns="http://www.w3.org/2000/svg" xmlns:xlink="http://www.w3.org/1999/xlink" contentStyleType="text/css" height="348px" preserveAspectRatio="none" style="width:896px;height:348px;background:#FFFFFF;" version="1.1" viewBox="0 0 896 348" width="896px" zoomAndPan="magnify"><defs/><g><text fill="#000000" font-family="sans-serif" font-size="14" font-weight="bold" lengthAdjust="spacing" textLength="248" x="317.135" y="22.9951">DFD Level 0 &#8212; Context Diagram</text><!--entity CLIENT--><g id="elem_CLIENT"><rect fill="#FFFFFF" height="36.2969" rx="2.5" ry="2.5" style="stroke:#222222;stroke-width:0.5;" width="135" x="306.77" y="44.2969"/><text fill="#000000" font-family="sans-serif" font-size="14" lengthAdjust="spacing" textLength="115" x="316.77" y="67.292">Client / Frontend</text></g><!--entity ADMIN--><g id="elem_ADMIN"><rect fill="#FFFFFF" height="36.2969" rx="2.5" ry="2.5" style="stroke:#222222;stroke-width:0.5;" width="111" x="31.77" y="290.7969"/><text fill="#000000" font-family="sans-serif" font-size="14" lengthAdjust="spacing" textLength="91" x="41.77" y="313.792">Administrator</text></g><!--entity SYS--><g id="elem_SYS"><ellipse cx="374.27" cy="181.2969" fill="#F1F1F1" rx="8" ry="8" style="stroke:#181818;stroke-width:0.5;"/><text fill="#000000" font-family="sans-serif" font-size="14" lengthAdjust="spacing" textLength="112" x="316.77" y="211.292">AC Supply Chain</text><text fill="#000000" font-family="sans-serif" font-size="14" lengthAdjust="spacing" textLength="115" x="316.77" y="227.5889">Analytics System</text></g><!--entity DB--><g id="elem_DB"><path d="M229.77,296.2969 C229.77,286.2969 291.27,286.2969 291.27,286.2969 C291.27,286.2969 352.77,286.2969 352.77,296.2969 L352.77,321.5938 C352.77,331.5938 291.27,331.5938 291.27,331.5938 C291.27,331.5938 229.77,331.5938 229.77,321.5938 L229.77,296.2969 " fill="#F1F1F1" style="stroke:#181818;stroke-width:0.5;"/><path d="M229.77,296.2969 C229.77,306.2969 291.27,306.2969 291.27,306.2969 C291.27,306.2969 352.77,306.2969 352.77,296.2969 " fill="none" style="stroke:#181818;stroke-width:0.5;"/><text fill="#000000" font-family="sans-serif" font-size="14" lengthAdjust="spacing" textLength="103" x="239.77" y="323.292">PostgreSQL 17</text></g><!--entity EMAIL--><g id="elem_EMAIL"><rect fill="#FFFFFF" height="36.2969" rx="2.5" ry="2.5" style="stroke:#222222;stroke-width:0.5;" width="114" x="388.27" y="290.7969"/><text fill="#000000" font-family="sans-serif" font-size="14" lengthAdjust="spacing" textLength="94" x="398.27" y="313.792">Resend Email</text></g><!--entity ML--><g id="elem_ML"><rect fill="#FFFFFF" height="52.5938" rx="2.5" ry="2.5" style="stroke:#222222;stroke-width:0.5;" width="169" x="541.77" y="282.2969"/><text fill="#000000" font-family="sans-serif" font-size="14" lengthAdjust="spacing" textLength="73" x="551.77" y="305.292">ML Models</text><text fill="#000000" font-family="sans-serif" font-size="14" lengthAdjust="spacing" textLength="149" x="551.77" y="321.5889">RF &#183; ARIMA &#183; IsoForest</text></g><!--entity AGENT--><g id="elem_AGENT"><rect fill="#FFFFFF" height="36.2969" rx="2.5" ry="2.5" style="stroke:#222222;stroke-width:0.5;" width="77" x="748.77" y="290.7969"/><text fill="#000000" font-family="sans-serif" font-size="14" lengthAdjust="spacing" textLength="57" x="758.77" y="313.792">AI Agent</text></g><!--link CLIENT to SYS--><g id="link_CLIENT_SYS"><path d="M309.54,80.3869 C295.22,87.2969 281.8,96.9269 273.27,110.2969 C265.62,122.2869 265.18,130.6069 273.27,142.2969 C294.7,173.2569 338.7478,178.7203 359.2678,179.7703 " fill="none" id="CLIENT-to-SYS" style="stroke:#222222;stroke-width:1.0;"/><polygon fill="#222222" points="365.26,180.0769,356.4762,175.6222,360.2665,179.8214,356.0673,183.6117,365.26,180.0769" style="stroke:#222222;stroke-width:1.0;"/><text fill="#000000" font-family="sans-serif" font-size="13" lengthAdjust="spacing" textLength="123" x="290.27" y="123.3638">credentials, orders,</text><text fill="#000000" font-family="sans-serif" font-size="13" lengthAdjust="spacing" textLength="155" x="274.27" y="138.4966">ML requests, agent chat</text></g><!--link SYS to CLIENT--><g id="link_SYS_CLIENT"><path d="M383.7,177.5369 C397.69,172.8669 423.45,161.9569 434.27,142.2969 C441.13,129.8369 440.5,123.0869 434.27,110.2969 C428.3,98.0469 422.3552,91.4637 411.4752,83.8937 " fill="none" id="SYS-to-CLIENT" style="stroke:#222222;stroke-width:1.0;"/><polygon fill="#222222" points="406.55,80.4669,411.6532,88.8905,410.6543,83.3225,416.2223,82.3236,406.55,80.4669" style="stroke:#222222;stroke-width:1.0;"/><text fill="#000000" font-family="sans-serif" font-size="13" lengthAdjust="spacing" textLength="97" x="451.77" y="123.3638">KPIs, forecasts,</text><text fill="#000000" font-family="sans-serif" font-size="13" lengthAdjust="spacing" textLength="120" x="440.27" y="138.4966">delay risk, AI alerts</text></g><!--link ADMIN to SYS--><g id="link_ADMIN_SYS"><path d="M105.13,290.5569 C126.81,270.6069 165.33,238.2069 204.27,220.2969 C261.7,193.8869 332.6924,185.7947 359.0124,183.5147 " fill="none" id="ADMIN-to-SYS" style="stroke:#222222;stroke-width:1.0;"/><polygon fill="#222222" points="364.99,182.9969,355.6784,179.7885,360.0087,183.4284,356.3688,187.7587,364.99,182.9969" style="stroke:#222222;stroke-width:1.0;"/><text fill="#000000" font-family="sans-serif" font-size="13" lengthAdjust="spacing" textLength="75" x="205.27" y="233.3638">user mgmt,</text><text fill="#000000" font-family="sans-serif" font-size="13" lengthAdjust="spacing" textLength="68" x="208.77" y="248.4966">ETL trigger</text></g><!--link SYS to ADMIN--><g id="link_SYS_ADMIN"><path d="M364.95,182.5869 C311.91,184.3369 49.6,194.2769 26.27,220.2969 C6,242.9069 31.9102,268.8835 56.6202,287.2035 " fill="none" id="SYS-to-ADMIN" style="stroke:#222222;stroke-width:1.0;"/><polygon fill="#222222" points="61.44,290.7769,56.5925,282.2035,57.4235,287.799,51.828,288.63,61.44,290.7769" style="stroke:#222222;stroke-width:1.0;"/><text fill="#000000" font-family="sans-serif" font-size="13" lengthAdjust="spacing" textLength="50" x="60.77" y="233.3638">reports,</text><text fill="#000000" font-family="sans-serif" font-size="13" lengthAdjust="spacing" textLength="117" x="27.27" y="248.4966">recommendations</text></g><!--link SYS to DB--><g id="link_SYS_DB"><path d="M359.2866,185.375 C343.1666,189.005 315.75,197.6369 300.27,220.2969 C287.09,239.5869 285.94,261.0986 287.56,280.0886 " fill="none" id="SYS-DB" style="stroke:#222222;stroke-width:1.0;"/><polygon fill="#222222" points="365.14,184.0569,355.4811,182.1318,360.2621,185.1553,357.2386,189.9363,365.14,184.0569" style="stroke:#222222;stroke-width:1.0;"/><polygon fill="#222222" points="288.07,286.0669,291.2905,276.7594,287.645,281.085,283.3195,277.4394,288.07,286.0669" style="stroke:#222222;stroke-width:1.0;"/><text fill="#000000" font-family="sans-serif" font-size="13" lengthAdjust="spacing" textLength="92" x="301.27" y="233.3638">reads &amp; writes</text><text fill="#000000" font-family="sans-serif" font-size="13" lengthAdjust="spacing" textLength="91" x="301.77" y="248.4966">(SQLAlchemy)</text></g><!--link SYS to EMAIL--><g id="link_SYS_EMAIL"><path d="M380.94,190.4469 C386.92,197.9469 395.72,209.5069 402.27,220.2969 C416.51,243.7369 427.5285,267.0572 435.4685,285.0572 " fill="none" id="SYS-to-EMAIL" style="stroke:#222222;stroke-width:1.0;"/><polygon fill="#222222" points="437.89,290.5469,437.9174,280.6981,435.872,285.9722,430.5979,283.9268,437.89,290.5469" style="stroke:#222222;stroke-width:1.0;"/><text fill="#000000" font-family="sans-serif" font-size="13" lengthAdjust="spacing" textLength="143" x="420.27" y="240.8638">password reset emails</text></g><!--link SYS to ML--><g id="link_SYS_ML"><path d="M389.4861,183.6219 C424.2261,186.7319 540.72,198.5369 572.27,220.2969 C594.02,235.2969 606.3285,256.6726 614.8185,276.7026 " fill="none" id="SYS-ML" style="stroke:#222222;stroke-width:1.0;"/><polygon fill="#222222" points="383.51,183.0869,392.1175,187.8734,388.4901,183.5327,392.8308,179.9053,383.51,183.0869" style="stroke:#222222;stroke-width:1.0;"/><polygon fill="#222222" points="617.16,282.2269,617.3305,272.3795,615.2087,277.6233,609.9649,275.5015,617.16,282.2269" style="stroke:#222222;stroke-width:1.0;"/><text fill="#000000" font-family="sans-serif" font-size="13" lengthAdjust="spacing" textLength="119" x="602.27" y="233.3638">inference requests</text><text fill="#000000" font-family="sans-serif" font-size="13" lengthAdjust="spacing" textLength="85" x="619.27" y="248.4966">&amp; predictions</text></g><!--link SYS to AGENT--><g id="link_SYS_AGENT"><path d="M389.29,182.2138 C438.61,182.0238 669.59,183.1069 730.27,220.2969 C756.7,236.4969 771.0641,264.5132 779.1341,285.0332 " fill="none" id="SYS-AGENT" style="stroke:#222222;stroke-width:1.0;"/><polygon fill="#222222" points="383.29,182.2369,392.3053,186.2022,388.29,182.2176,392.2745,178.2022,383.29,182.2369" style="stroke:#222222;stroke-width:1.0;"/><polygon fill="#222222" points="781.33,290.6169,781.7586,280.7773,779.5001,285.9638,774.3136,283.7053,781.33,290.6169" style="stroke:#222222;stroke-width:1.0;"/><text fill="#000000" font-family="sans-serif" font-size="13" lengthAdjust="spacing" textLength="125" x="763.27" y="240.8638">queries / responses</text></g><!--SRC=[XPBHYjDG48RlynJ32ej25xKtGX4XJLe9DilQxetGczbaDZtqv9muSshjdG_XktY_Z-AJEETKOWN1kv3v_d_- -HFP6pSWOmyFsEmxzWVN5jvwXkFE1Cfad3Cr0LrdQUwv9Jv3pwRJwJ-P_vWXipzUM6J114jGBajOqHUoy0f-VliEXNU1lWOe3NOgox9n0LmLrf0By1AM72dNNW4A5AjgSNj_oULjRvoHm1Wy9oOlw-esQmmtQLx0vZ0CzWJ53etRkjoXFGNJ26nE4gXFcisdJTPYm0SKrTnv2HtJvkCANhz9yt9-kNDDee5WqQEnQRoeysfrITGhg7rBLhPklOId7v2lgpgF3vNufMUIa8JrNwgyWhpJgyzdl8-NPkUBuURcNGm9CsYOMcKCMfb0-bOosJfToFJveBxw5gC9D3iCMTH4xM-R6NougvHur0WDHdZhD2QUW8ti9w09q187oR9KuyNUWn13t_L19Olx5GGsNKSyRZZpCuqnU4x6kiBtlJQ5mNYdbX5z6zboda1i1QxXoFhpQ57FjU_SDZlgJoz6rzIimWEA7FLQLGa5e5Yz_36i8sFS8p6vXiOgjkuQ1ktBDES48v_ALObYR4ZqDrFVGH6INm00]--></g></svg>