<?xml version="1.0" encoding="us-ascii" standalone="no"?><svg xmlns="http://www.w3.org/2000/svg" xmlns:xlink="http://www.w3.org/1999/xlink" contentStyleType="text/css" height="903px" preserveAspectRatio="none" style="width:1487px;height:903px;background:#FFFFFF;" version="1.1" viewBox="0 0 1487 903" width="1487px" zoomAndPan="magnify"><defs/><g><text fill="#000000" font-family="sans-serif" font-size="14" font-weight="bold" lengthAdjust="spacing" textLength="423" x="525" y="22.9951">ERD &#8212; Database Schema &#8212; AC Supply Chain Analytics</text><!--class USERS--><g id="elem_USERS"><rect codeLine="9" fill="#FFFFFF" height="194.6719" id="USERS" rx="2.5" ry="2.5" style="stroke:#222222;stroke-width:0.5;" width="218" x="77" y="44.2969"/><ellipse cx="158.25" cy="60.2969" fill="#ADD1B2" rx="11" ry="11" style="stroke:#181818;stroke-width:1.0;"/><path d="M162.3594,66.2969 L154.6406,66.2969 L154.6406,53.9063 L162.3594,53.9063 L162.3594,56.0625 L157.0938,56.0625 L157.0938,58.7344 L161.8594,58.7344 L161.8594,60.8906 L157.0938,60.8906 L157.0938,64.1406 L162.3594,64.1406 L162.3594,66.2969 Z " fill="#000000"/><text fill="#000000" font-family="sans-serif" font-size="14" lengthAdjust="spacing" textLength="47" x="178.75" y="65.1436">USERS</text><line style="stroke:#222222;stroke-width:0.5;" x1="78" x2="294" y1="76.2969" y2="76.2969"/><ellipse cx="88" cy="89.9453" fill="#000000" rx="3" ry="3" style="stroke:#000000;stroke-width:1.0;"/><text fill="#000000" font-family="sans-serif" font-size="14" lengthAdjust="spacing" textLength="126" x="97" y="93.292">id : INTEGER &#171;PK&#187;</text><line style="stroke:#222222;stroke-width:1.0;" x1="78" x2="294" y1="100.5938" y2="100.5938"/><text fill="#000000" font-family="sans-serif" font-size="14" lengthAdjust="spacing" textLength="150" x="83" y="117.5889">username : VARCHAR</text><text fill="#000000" font-family="sans-serif" font-size="14" lengthAdjust="spacing" textLength="116" x="83" y="133.8857">email : VARCHAR</text><text fill="#000000" font-family="sans-serif" font-size="14" lengthAdjust="spacing" textLength="145" x="83" y="150.1826">full_name : VARCHAR</text><text fill="#000000" font-family="sans-serif" font-size="14" lengthAdjust="spacing" textLength="206" x="83" y="166.4795">hashed_password : VARCHAR</text><text fill="#000000" font-family="sans-serif" font-size="14" lengthAdjust="spacing" textLength="106" x="83" y="182.7764">role : VARCHAR</text><text fill="#000000" font-family="sans-serif" font-size="14" lengthAdjust="spacing" textLength="138" x="83" y="199.0732">is_active : BOOLEAN</text><text fill="#000000" font-family="sans-serif" font-size="14" lengthAdjust="spacing" textLength="157" x="83" y="215.3701">created_at : DATETIME</text><text fill="#000000" font-family="sans-serif" font-size="14" lengthAdjust="spacing" textLength="148" x="83" y="231.667">last_login : DATETIME</text></g><!--class PASSWORD_RESET_TOKENS--><g id="elem_PASSWORD_RESET_TOKENS"><rect codeLine="22" fill="#FFFFFF" height="145.7813" id="PASSWORD_RESET_TOKENS" rx="2.5" ry="2.5" style="stroke:#222222;stroke-width:0.5;" width="230" x="71" y="389.2969"/><ellipse cx="86" cy="405.2969" fill="#ADD1B2" rx="11" ry="11" style="stroke:#181818;stroke-width:1.0;"/><path d="M90.1094,411.2969 L82.3906,411.2969 L82.3906,398.9063 L90.1094,398.9063 L90.1094,401.0625 L84.8438,401.0625 L84.8438,403.7344 L89.6094,403.7344 L89.6094,405.8906 L84.8438,405.8906 L84.8438,409.1406 L90.1094,409.1406 L90.1094,411.2969 Z " fill="#000000"/><text fill="#000000" font-family="sans-serif" font-size="14" lengthAdjust="spacing" textLength="198" x="100" y="410.1436">PASSWORD_RESET_TOKENS</text><line style="stroke:#222222;stroke-width:0.5;" x1="72" x2="300" y1="421.2969" y2="421.2969"/><ellipse cx="82" cy="434.9453" fill="#000000" rx="3" ry="3" style="stroke:#000000;stroke-width:1.0;"/><text fill="#000000" font-family="sans-serif" font-size="14" lengthAdjust="spacing" textLength="126" x="91" y="438.292">id : INTEGER &#171;PK&#187;</text><line style="stroke:#222222;stroke-width:1.0;" x1="72" x2="300" y1="445.5938" y2="445.5938"/><polygon fill="none" points="82,454.2422,86,458.2422,82,462.2422,78,458.2422" style="stroke:#B38D22;stroke-width:1.0;"/><text fill="#000000" font-family="sans-serif" font-size="14" lengthAdjust="spacing" textLength="163" x="91" y="462.5889">user_id : INTEGER &#171;FK&#187;</text><text fill="#000000" font-family="sans-serif" font-size="14" lengthAdjust="spacing" textLength="120" x="91" y="478.8857">token : VARCHAR</text><text fill="#000000" font-family="sans-serif" font-size="14" lengthAdjust="spacing" textLength="133" x="91" y="495.1826">is_used : BOOLEAN</text><text fill="#000000" font-family="sans-serif" font-size="14" lengthAdjust="spacing" textLength="154" x="91" y="511.4795">expires_at : DATETIME</text><text fill="#000000" font-family="sans-serif" font-size="14" lengthAdjust="spacing" textLength="157" x="91" y="527.7764">created_at : DATETIME</text></g><!--class BRANCHES--><g id="elem_BRANCHES"><rect codeLine="32" fill="#FFFFFF" height="162.0781" id="BRANCHES" rx="2.5" ry="2.5" style="stroke:#222222;stroke-width:0.5;" width="169" x="1077.5" y="60.7969"/><ellipse cx="1119.5" cy="76.7969" fill="#ADD1B2" rx="11" ry="11" style="stroke:#181818;stroke-width:1.0;"/><path d="M1123.6094,82.7969 L1115.8906,82.7969 L1115.8906,70.4063 L1123.6094,70.4063 L1123.6094,72.5625 L1118.3438,72.5625 L1118.3438,75.2344 L1123.1094,75.2344 L1123.1094,77.3906 L1118.3438,77.3906 L1118.3438,80.6406 L1123.6094,80.6406 L1123.6094,82.7969 Z " fill="#000000"/><text fill="#000000" font-family="sans-serif" font-size="14" lengthAdjust="spacing" textLength="77" x="1139.5" y="81.6436">BRANCHES</text><line style="stroke:#222222;stroke-width:0.5;" x1="1078.5" x2="1245.5" y1="92.7969" y2="92.7969"/><ellipse cx="1088.5" cy="106.4453" fill="#000000" rx="3" ry="3" style="stroke:#000000;stroke-width:1.0;"/><text fill="#000000" font-family="sans-serif" font-size="14" lengthAdjust="spacing" textLength="126" x="1097.5" y="109.792">id : INTEGER &#171;PK&#187;</text><line style="stroke:#222222;stroke-width:1.0;" x1="1078.5" x2="1245.5" y1="117.0938" y2="117.0938"/><text fill="#000000" font-family="sans-serif" font-size="14" lengthAdjust="spacing" textLength="119" x="1083.5" y="134.0889">name : VARCHAR</text><text fill="#000000" font-family="sans-serif" font-size="14" lengthAdjust="spacing" textLength="103" x="1083.5" y="150.3857">city : VARCHAR</text><text fill="#000000" font-family="sans-serif" font-size="14" lengthAdjust="spacing" textLength="136" x="1083.5" y="166.6826">address : VARCHAR</text><text fill="#000000" font-family="sans-serif" font-size="14" lengthAdjust="spacing" textLength="125" x="1083.5" y="182.9795">phone : VARCHAR</text><text fill="#000000" font-family="sans-serif" font-size="14" lengthAdjust="spacing" textLength="138" x="1083.5" y="199.2764">is_active : BOOLEAN</text><text fill="#000000" font-family="sans-serif" font-size="14" lengthAdjust="spacing" textLength="157" x="1083.5" y="215.5732">created_at : DATETIME</text></g><!--class SUPPLIERS--><g id="elem_SUPPLIERS"><rect codeLine="43" fill="#FFFFFF" height="194.6719" id="SUPPLIERS" rx="2.5" ry="2.5" style="stroke:#222222;stroke-width:0.5;" width="187" x="482.5" y="44.2969"/><ellipse cx="534.25" cy="60.2969" fill="#ADD1B2" rx="11" ry="11" style="stroke:#181818;stroke-width:1.0;"/><path d="M538.3594,66.2969 L530.6406,66.2969 L530.6406,53.9063 L538.3594,53.9063 L538.3594,56.0625 L533.0938,56.0625 L533.0938,58.7344 L537.8594,58.7344 L537.8594,60.8906 L533.0938,60.8906 L533.0938,64.1406 L538.3594,64.1406 L538.3594,66.2969 Z " fill="#000000"/><text fill="#000000" font-family="sans-serif" font-size="14" lengthAdjust="spacing" textLength="75" x="554.75" y="65.1436">SUPPLIERS</text><line style="stroke:#222222;stroke-width:0.5;" x1="483.5" x2="668.5" y1="76.2969" y2="76.2969"/><ellipse cx="493.5" cy="89.9453" fill="#000000" rx="3" ry="3" style="stroke:#000000;stroke-width:1.0;"/><text fill="#000000" font-family="sans-serif" font-size="14" lengthAdjust="spacing" textLength="126" x="502.5" y="93.292">id : INTEGER &#171;PK&#187;</text><line style="stroke:#222222;stroke-width:1.0;" x1="483.5" x2="668.5" y1="100.5938" y2="100.5938"/><text fill="#000000" font-family="sans-serif" font-size="14" lengthAdjust="spacing" textLength="119" x="488.5" y="117.5889">name : VARCHAR</text><text fill="#000000" font-family="sans-serif" font-size="14" lengthAdjust="spacing" textLength="132" x="488.5" y="133.8857">country : VARCHAR</text><text fill="#000000" font-family="sans-serif" font-size="14" lengthAdjust="spacing" textLength="175" x="488.5" y="150.1826">contact_email : VARCHAR</text><text fill="#000000" font-family="sans-serif" font-size="14" lengthAdjust="spacing" textLength="96" x="488.5" y="166.4795">rating : FLOAT</text><text fill="#000000" font-family="sans-serif" font-size="14" lengthAdjust="spacing" textLength="146" x="488.5" y="182.7764">on_time_rate : FLOAT</text><text fill="#000000" font-family="sans-serif" font-size="14" lengthAdjust="spacing" textLength="173" x="488.5" y="199.0732">avg_lead_days : INTEGER</text><text fill="#000000" font-family="sans-serif" font-size="14" lengthAdjust="spacing" textLength="138" x="488.5" y="215.3701">is_active : BOOLEAN</text><text fill="#000000" font-family="sans-serif" font-size="14" lengthAdjust="spacing" textLength="157" x="488.5" y="231.667">created_at : DATETIME</text></g><!--class PRODUCTS--><g id="elem_PRODUCTS"><rect codeLine="56" fill="#FFFFFF" height="178.375" id="PRODUCTS" rx="2.5" ry="2.5" style="stroke:#222222;stroke-width:0.5;" width="213" x="686.5" y="373.2969"/><ellipse cx="749.25" cy="389.2969" fill="#ADD1B2" rx="11" ry="11" style="stroke:#181818;stroke-width:1.0;"/><path d="M753.3594,395.2969 L745.6406,395.2969 L745.6406,382.9063 L753.3594,382.9063 L753.3594,385.0625 L748.0938,385.0625 L748.0938,387.7344 L752.8594,387.7344 L752.8594,389.8906 L748.0938,389.8906 L748.0938,393.1406 L753.3594,393.1406 L753.3594,395.2969 Z " fill="#000000"/><text fill="#000000" font-family="sans-serif" font-size="14" lengthAdjust="spacing" textLength="79" x="769.75" y="394.1436">PRODUCTS</text><line style="stroke:#222222;stroke-width:0.5;" x1="687.5" x2="898.5" y1="405.2969" y2="405.2969"/><ellipse cx="697.5" cy="418.9453" fill="#000000" rx="3" ry="3" style="stroke:#000000;stroke-width:1.0;"/><text fill="#000000" font-family="sans-serif" font-size="14" lengthAdjust="spacing" textLength="126" x="706.5" y="422.292">id : INTEGER &#171;PK&#187;</text><line style="stroke:#222222;stroke-width:1.0;" x1="687.5" x2="898.5" y1="429.5938" y2="429.5938"/><text fill="#000000" font-family="sans-serif" font-size="14" lengthAdjust="spacing" textLength="105" x="706.5" y="446.5889">sku : VARCHAR</text><text fill="#000000" font-family="sans-serif" font-size="14" lengthAdjust="spacing" textLength="119" x="706.5" y="462.8857">name : VARCHAR</text><text fill="#000000" font-family="sans-serif" font-size="14" lengthAdjust="spacing" textLength="140" x="706.5" y="479.1826">category : VARCHAR</text><text fill="#000000" font-family="sans-serif" font-size="14" lengthAdjust="spacing" textLength="124" x="706.5" y="495.4795">unit_price : FLOAT</text><polygon fill="none" points="697.5,503.4297,701.5,507.4297,697.5,511.4297,693.5,507.4297" style="stroke:#B38D22;stroke-width:1.0;"/><text fill="#000000" font-family="sans-serif" font-size="14" lengthAdjust="spacing" textLength="187" x="706.5" y="511.7764">supplier_id : INTEGER &#171;FK&#187;</text><text fill="#000000" font-family="sans-serif" font-size="14" lengthAdjust="spacing" textLength="138" x="706.5" y="528.0732">is_active : BOOLEAN</text><text fill="#000000" font-family="sans-serif" font-size="14" lengthAdjust="spacing" textLength="157" x="706.5" y="544.3701">created_at : DATETIME</text></g><!--class ORDERS--><g id="elem_ORDERS"><rect codeLine="68" fill="#FFFFFF" height="292.4531" id="ORDERS" rx="2.5" ry="2.5" style="stroke:#222222;stroke-width:0.5;" width="213" x="336.5" y="316.2969"/><ellipse cx="408.75" cy="332.2969" fill="#ADD1B2" rx="11" ry="11" style="stroke:#181818;stroke-width:1.0;"/><path d="M412.8594,338.2969 L405.1406,338.2969 L405.1406,325.9063 L412.8594,325.9063 L412.8594,328.0625 L407.5938,328.0625 L407.5938,330.7344 L412.3594,330.7344 L412.3594,332.8906 L407.5938,332.8906 L407.5938,336.1406 L412.8594,336.1406 L412.8594,338.2969 Z " fill="#000000"/><text fill="#000000" font-family="sans-serif" font-size="14" lengthAdjust="spacing" textLength="60" x="429.25" y="337.1436">ORDERS</text><line style="stroke:#222222;stroke-width:0.5;" x1="337.5" x2="548.5" y1="348.2969" y2="348.2969"/><ellipse cx="347.5" cy="361.9453" fill="#000000" rx="3" ry="3" style="stroke:#000000;stroke-width:1.0;"/><text fill="#000000" font-family="sans-serif" font-size="14" lengthAdjust="spacing" textLength="126" x="356.5" y="365.292">id : INTEGER &#171;PK&#187;</text><line style="stroke:#222222;stroke-width:1.0;" x1="337.5" x2="548.5" y1="372.5938" y2="372.5938"/><text fill="#000000" font-family="sans-serif" font-size="14" lengthAdjust="spacing" textLength="142" x="356.5" y="389.5889">order_ref : VARCHAR</text><polygon fill="none" points="347.5,397.5391,351.5,401.5391,347.5,405.5391,343.5,401.5391" style="stroke:#B38D22;stroke-width:1.0;"/><text fill="#000000" font-family="sans-serif" font-size="14" lengthAdjust="spacing" textLength="180" x="356.5" y="405.8857">branch_id : INTEGER &#171;FK&#187;</text><polygon fill="none" points="347.5,413.8359,351.5,417.8359,347.5,421.8359,343.5,417.8359" style="stroke:#B38D22;stroke-width:1.0;"/><text fill="#000000" font-family="sans-serif" font-size="14" lengthAdjust="spacing" textLength="187" x="356.5" y="422.1826">supplier_id : INTEGER &#171;FK&#187;</text><text fill="#000000" font-family="sans-serif" font-size="14" lengthAdjust="spacing" textLength="148" x="356.5" y="438.4795">origin_city : VARCHAR</text><text fill="#000000" font-family="sans-serif" font-size="14" lengthAdjust="spacing" textLength="144" x="356.5" y="454.7764">distance_km : FLOAT</text><text fill="#000000" font-family="sans-serif" font-size="14" lengthAdjust="spacing" textLength="97" x="356.5" y="471.0732">status : ENUM</text><text fill="#000000" font-family="sans-serif" font-size="14" lengthAdjust="spacing" textLength="121" x="356.5" y="487.3701">delay_risk : ENUM</text><text fill="#000000" font-family="sans-serif" font-size="14" lengthAdjust="spacing" textLength="159" x="356.5" y="503.667">weather_score : FLOAT</text><text fill="#000000" font-family="sans-serif" font-size="14" lengthAdjust="spacing" textLength="148" x="356.5" y="519.9639">customs_risk : FLOAT</text><text fill="#000000" font-family="sans-serif" font-size="14" lengthAdjust="spacing" textLength="130" x="356.5" y="536.2607">total_value : FLOAT</text><text fill="#000000" font-family="sans-serif" font-size="14" lengthAdjust="spacing" textLength="182" x="356.5" y="552.5576">estimated_days : INTEGER</text><text fill="#000000" font-family="sans-serif" font-size="14" lengthAdjust="spacing" textLength="154" x="356.5" y="568.8545">actual_days : INTEGER</text><text fill="#000000" font-family="sans-serif" font-size="14" lengthAdjust="spacing" textLength="159" x="356.5" y="585.1514">order_date : DATETIME</text><text fill="#000000" font-family="sans-serif" font-size="14" lengthAdjust="spacing" textLength="89" x="356.5" y="601.4482">notes : TEXT</text></g><!--class ORDER_ITEMS--><g id="elem_ORDER_ITEMS"><rect codeLine="87" fill="#FFFFFF" height="129.4844" id="ORDER_ITEMS" rx="2.5" ry="2.5" style="stroke:#222222;stroke-width:0.5;" width="212" x="244" y="726.2969"/><ellipse cx="295.75" cy="742.2969" fill="#ADD1B2" rx="11" ry="11" style="stroke:#181818;stroke-width:1.0;"/><path d="M299.8594,748.2969 L292.1406,748.2969 L292.1406,735.9063 L299.8594,735.9063 L299.8594,738.0625 L294.5938,738.0625 L294.5938,740.7344 L299.3594,740.7344 L299.3594,742.8906 L294.5938,742.8906 L294.5938,746.1406 L299.8594,746.1406 L299.8594,748.2969 Z " fill="#000000"/><text fill="#000000" font-family="sans-serif" font-size="14" lengthAdjust="spacing" textLength="100" x="316.25" y="747.1436">ORDER_ITEMS</text><line style="stroke:#222222;stroke-width:0.5;" x1="245" x2="455" y1="758.2969" y2="758.2969"/><ellipse cx="255" cy="771.9453" fill="#000000" rx="3" ry="3" style="stroke:#000000;stroke-width:1.0;"/><text fill="#000000" font-family="sans-serif" font-size="14" lengthAdjust="spacing" textLength="126" x="264" y="775.292">id : INTEGER &#171;PK&#187;</text><line style="stroke:#222222;stroke-width:1.0;" x1="245" x2="455" y1="782.5938" y2="782.5938"/><polygon fill="none" points="255,791.2422,259,795.2422,255,799.2422,251,795.2422" style="stroke:#B38D22;stroke-width:1.0;"/><text fill="#000000" font-family="sans-serif" font-size="14" lengthAdjust="spacing" textLength="169" x="264" y="799.5889">order_id : INTEGER &#171;FK&#187;</text><polygon fill="none" points="255,807.5391,259,811.5391,255,815.5391,251,811.5391" style="stroke:#B38D22;stroke-width:1.0;"/><text fill="#000000" font-family="sans-serif" font-size="14" lengthAdjust="spacing" textLength="186" x="264" y="815.8857">product_id : INTEGER &#171;FK&#187;</text><text fill="#000000" font-family="sans-serif" font-size="14" lengthAdjust="spacing" textLength="129" x="264" y="832.1826">quantity : INTEGER</text><text fill="#000000" font-family="sans-serif" font-size="14" lengthAdjust="spacing" textLength="124" x="264" y="848.4795">unit_price : FLOAT</text></g><!--class INVENTORY--><g id="elem_INVENTORY"><rect codeLine="96" fill="#FFFFFF" height="162.0781" id="INVENTORY" rx="2.5" ry="2.5" style="stroke:#222222;stroke-width:0.5;" width="212" x="1021" y="709.7969"/><ellipse cx="1082.75" cy="725.7969" fill="#ADD1B2" rx="11" ry="11" style="stroke:#181818;stroke-width:1.0;"/><path d="M1086.8594,731.7969 L1079.1406,731.7969 L1079.1406,719.4063 L1086.8594,719.4063 L1086.8594,721.5625 L1081.5938,721.5625 L1081.5938,724.2344 L1086.3594,724.2344 L1086.3594,726.3906 L1081.5938,726.3906 L1081.5938,729.6406 L1086.8594,729.6406 L1086.8594,731.7969 Z " fill="#000000"/><text fill="#000000" font-family="sans-serif" font-size="14" lengthAdjust="spacing" textLength="80" x="1103.25" y="730.6436">INVENTORY</text><line style="stroke:#222222;stroke-width:0.5;" x1="1022" x2="1232" y1="741.7969" y2="741.7969"/><ellipse cx="1032" cy="755.4453" fill="#000000" rx="3" ry="3" style="stroke:#000000;stroke-width:1.0;"/><text fill="#000000" font-family="sans-serif" font-size="14" lengthAdjust="spacing" textLength="126" x="1041" y="758.792">id : INTEGER &#171;PK&#187;</text><line style="stroke:#222222;stroke-width:1.0;" x1="1022" x2="1232" y1="766.0938" y2="766.0938"/><polygon fill="none" points="1032,774.7422,1036,778.7422,1032,782.7422,1028,778.7422" style="stroke:#B38D22;stroke-width:1.0;"/><text fill="#000000" font-family="sans-serif" font-size="14" lengthAdjust="spacing" textLength="186" x="1041" y="783.0889">product_id : INTEGER &#171;FK&#187;</text><polygon fill="none" points="1032,791.0391,1036,795.0391,1032,799.0391,1028,795.0391" style="stroke:#B38D22;stroke-width:1.0;"/><text fill="#000000" font-family="sans-serif" font-size="14" lengthAdjust="spacing" textLength="180" x="1041" y="799.3857">branch_id : INTEGER &#171;FK&#187;</text><text fill="#000000" font-family="sans-serif" font-size="14" lengthAdjust="spacing" textLength="129" x="1041" y="815.6826">quantity : INTEGER</text><text fill="#000000" font-family="sans-serif" font-size="14" lengthAdjust="spacing" textLength="167" x="1041" y="831.9795">reorder_point : INTEGER</text><text fill="#000000" font-family="sans-serif" font-size="14" lengthAdjust="spacing" textLength="97" x="1041" y="848.2764">status : ENUM</text><text fill="#000000" font-family="sans-serif" font-size="14" lengthAdjust="spacing" textLength="173" x="1041" y="864.5732">last_updated : DATETIME</text></g><!--class ANOMALIES--><g id="elem_ANOMALIES"><rect codeLine="107" fill="#FFFFFF" height="178.375" id="ANOMALIES" rx="2.5" ry="2.5" style="stroke:#222222;stroke-width:0.5;" width="200" x="9" y="701.7969"/><ellipse cx="65.25" cy="717.7969" fill="#ADD1B2" rx="11" ry="11" style="stroke:#181818;stroke-width:1.0;"/><path d="M69.3594,723.7969 L61.6406,723.7969 L61.6406,711.4063 L69.3594,711.4063 L69.3594,713.5625 L64.0938,713.5625 L64.0938,716.2344 L68.8594,716.2344 L68.8594,718.3906 L64.0938,718.3906 L64.0938,721.6406 L69.3594,721.6406 L69.3594,723.7969 Z " fill="#000000"/><text fill="#000000" font-family="sans-serif" font-size="14" lengthAdjust="spacing" textLength="79" x="85.75" y="722.6436">ANOMALIES</text><line style="stroke:#222222;stroke-width:0.5;" x1="10" x2="208" y1="733.7969" y2="733.7969"/><ellipse cx="20" cy="747.4453" fill="#000000" rx="3" ry="3" style="stroke:#000000;stroke-width:1.0;"/><text fill="#000000" font-family="sans-serif" font-size="14" lengthAdjust="spacing" textLength="126" x="29" y="750.792">id : INTEGER &#171;PK&#187;</text><line style="stroke:#222222;stroke-width:1.0;" x1="10" x2="208" y1="758.0938" y2="758.0938"/><polygon fill="none" points="20,766.7422,24,770.7422,20,774.7422,16,770.7422" style="stroke:#B38D22;stroke-width:1.0;"/><text fill="#000000" font-family="sans-serif" font-size="14" lengthAdjust="spacing" textLength="169" x="29" y="775.0889">order_id : INTEGER &#171;FK&#187;</text><text fill="#000000" font-family="sans-serif" font-size="14" lengthAdjust="spacing" textLength="174" x="29" y="791.3857">anomaly_type : VARCHAR</text><text fill="#000000" font-family="sans-serif" font-size="14" lengthAdjust="spacing" textLength="126" x="29" y="807.6826">description : TEXT</text><text fill="#000000" font-family="sans-serif" font-size="14" lengthAdjust="spacing" textLength="96" x="29" y="823.9795">score : FLOAT</text><text fill="#000000" font-family="sans-serif" font-size="14" lengthAdjust="spacing" textLength="133" x="29" y="840.2764">severity : VARCHAR</text><text fill="#000000" font-family="sans-serif" font-size="14" lengthAdjust="spacing" textLength="157" x="29" y="856.5732">is_resolved : BOOLEAN</text><text fill="#000000" font-family="sans-serif" font-size="14" lengthAdjust="spacing" textLength="167" x="29" y="872.8701">detected_at : DATETIME</text></g><!--class DEMAND_RECORDS--><g id="elem_DEMAND_RECORDS"><rect codeLine="119" fill="#FFFFFF" height="145.7813" id="DEMAND_RECORDS" rx="2.5" ry="2.5" style="stroke:#222222;stroke-width:0.5;" width="212" x="1268" y="717.7969"/><ellipse cx="1301.45" cy="733.7969" fill="#ADD1B2" rx="11" ry="11" style="stroke:#181818;stroke-width:1.0;"/><path d="M1305.5594,739.7969 L1297.8406,739.7969 L1297.8406,727.4063 L1305.5594,727.4063 L1305.5594,729.5625 L1300.2938,729.5625 L1300.2938,732.2344 L1305.0594,732.2344 L1305.0594,734.3906 L1300.2938,734.3906 L1300.2938,737.6406 L1305.5594,737.6406 L1305.5594,739.7969 Z " fill="#000000"/><text fill="#000000" font-family="sans-serif" font-size="14" lengthAdjust="spacing" textLength="139" x="1319.55" y="738.6436">DEMAND_RECORDS</text><line style="stroke:#222222;stroke-width:0.5;" x1="1269" x2="1479" y1="749.7969" y2="749.7969"/><ellipse cx="1279" cy="763.4453" fill="#000000" rx="3" ry="3" style="stroke:#000000;stroke-width:1.0;"/><text fill="#000000" font-family="sans-serif" font-size="14" lengthAdjust="spacing" textLength="126" x="1288" y="766.792">id : INTEGER &#171;PK&#187;</text><line style="stroke:#222222;stroke-width:1.0;" x1="1269" x2="1479" y1="774.0938" y2="774.0938"/><polygon fill="none" points="1279,782.7422,1283,786.7422,1279,790.7422,1275,786.7422" style="stroke:#B38D22;stroke-width:1.0;"/><text fill="#000000" font-family="sans-serif" font-size="14" lengthAdjust="spacing" textLength="186" x="1288" y="791.0889">product_id : INTEGER &#171;FK&#187;</text><polygon fill="none" points="1279,799.0391,1283,803.0391,1279,807.0391,1275,803.0391" style="stroke:#B38D22;stroke-width:1.0;"/><text fill="#000000" font-family="sans-serif" font-size="14" lengthAdjust="spacing" textLength="180" x="1288" y="807.3857">branch_id : INTEGER &#171;FK&#187;</text><text fill="#000000" font-family="sans-serif" font-size="14" lengthAdjust="spacing" textLength="115" x="1288" y="823.6826">date : DATETIME</text><text fill="#000000" font-family="sans-serif" font-size="14" lengthAdjust="spacing" textLength="129" x="1288" y="839.9795">quantity : INTEGER</text><text fill="#000000" font-family="sans-serif" font-size="14" lengthAdjust="spacing" textLength="114" x="1288" y="856.2764">revenue : FLOAT</text></g><!--class SEARCH_LOGS--><g id="elem_SEARCH_LOGS"><rect codeLine="129" fill="#FFFFFF" height="145.7813" id="SEARCH_LOGS" rx="2.5" ry="2.5" style="stroke:#222222;stroke-width:0.5;" width="186" x="1281" y="68.7969"/><ellipse cx="1319.4" cy="84.7969" fill="#ADD1B2" rx="11" ry="11" style="stroke:#181818;stroke-width:1.0;"/><path d="M1323.5094,90.7969 L1315.7906,90.7969 L1315.7906,78.4063 L1323.5094,78.4063 L1323.5094,80.5625 L1318.2438,80.5625 L1318.2438,83.2344 L1323.0094,83.2344 L1323.0094,85.3906 L1318.2438,85.3906 L1318.2438,88.6406 L1323.5094,88.6406 L1323.5094,90.7969 Z " fill="#000000"/><text fill="#000000" font-family="sans-serif" font-size="14" lengthAdjust="spacing" textLength="102" x="1338.6" y="89.6436">SEARCH_LOGS</text><line style="stroke:#222222;stroke-width:0.5;" x1="1282" x2="1466" y1="100.7969" y2="100.7969"/><ellipse cx="1292" cy="114.4453" fill="#000000" rx="3" ry="3" style="stroke:#000000;stroke-width:1.0;"/><text fill="#000000" font-family="sans-serif" font-size="14" lengthAdjust="spacing" textLength="126" x="1301" y="117.792">id : INTEGER &#171;PK&#187;</text><line style="stroke:#222222;stroke-width:1.0;" x1="1282" x2="1466" y1="125.0938" y2="125.0938"/><text fill="#000000" font-family="sans-serif" font-size="14" lengthAdjust="spacing" textLength="119" x="1287" y="142.0889">query : VARCHAR</text><text fill="#000000" font-family="sans-serif" font-size="14" lengthAdjust="spacing" textLength="140" x="1287" y="158.3857">category : VARCHAR</text><text fill="#000000" font-family="sans-serif" font-size="14" lengthAdjust="spacing" textLength="168" x="1287" y="174.6826">results_count : INTEGER</text><text fill="#000000" font-family="sans-serif" font-size="14" lengthAdjust="spacing" textLength="174" x="1287" y="190.9795">had_stockout : BOOLEAN</text><text fill="#000000" font-family="sans-serif" font-size="14" lengthAdjust="spacing" textLength="169" x="1287" y="207.2764">searched_at : DATETIME</text></g><!--class COMPETITOR_PRICES--><g id="elem_COMPETITOR_PRICES"><rect codeLine="139" fill="#FFFFFF" height="162.0781" id="COMPETITOR_PRICES" rx="2.5" ry="2.5" style="stroke:#222222;stroke-width:0.5;" width="227" x="758.5" y="709.7969"/><ellipse cx="793.75" cy="725.7969" fill="#ADD1B2" rx="11" ry="11" style="stroke:#181818;stroke-width:1.0;"/><path d="M797.8594,731.7969 L790.1406,731.7969 L790.1406,719.4063 L797.8594,719.4063 L797.8594,721.5625 L792.5938,721.5625 L792.5938,724.2344 L797.3594,724.2344 L797.3594,726.3906 L792.5938,726.3906 L792.5938,729.6406 L797.8594,729.6406 L797.8594,731.7969 Z " fill="#000000"/><text fill="#000000" font-family="sans-serif" font-size="14" lengthAdjust="spacing" textLength="150" x="812.25" y="730.6436">COMPETITOR_PRICES</text><line style="stroke:#222222;stroke-width:0.5;" x1="759.5" x2="984.5" y1="741.7969" y2="741.7969"/><ellipse cx="769.5" cy="755.4453" fill="#000000" rx="3" ry="3" style="stroke:#000000;stroke-width:1.0;"/><text fill="#000000" font-family="sans-serif" font-size="14" lengthAdjust="spacing" textLength="126" x="778.5" y="758.792">id : INTEGER &#171;PK&#187;</text><line style="stroke:#222222;stroke-width:1.0;" x1="759.5" x2="984.5" y1="766.0938" y2="766.0938"/><polygon fill="none" points="769.5,774.7422,773.5,778.7422,769.5,782.7422,765.5,778.7422" style="stroke:#B38D22;stroke-width:1.0;"/><text fill="#000000" font-family="sans-serif" font-size="14" lengthAdjust="spacing" textLength="186" x="778.5" y="783.0889">product_id : INTEGER &#171;FK&#187;</text><text fill="#000000" font-family="sans-serif" font-size="14" lengthAdjust="spacing" textLength="201" x="778.5" y="799.3857">competitor_name : VARCHAR</text><text fill="#000000" font-family="sans-serif" font-size="14" lengthAdjust="spacing" textLength="173" x="778.5" y="815.6826">competitor_price : FLOAT</text><text fill="#000000" font-family="sans-serif" font-size="14" lengthAdjust="spacing" textLength="121" x="778.5" y="831.9795">our_price : FLOAT</text><text fill="#000000" font-family="sans-serif" font-size="14" lengthAdjust="spacing" textLength="147" x="778.5" y="848.2764">price_diff_pct : FLOAT</text><text fill="#000000" font-family="sans-serif" font-size="14" lengthAdjust="spacing" textLength="160" x="778.5" y="864.5732">scraped_at : DATETIME</text></g><!--class AGENT_RECOMMENDATIONS--><g id="elem_AGENT_RECOMMENDATIONS"><rect codeLine="150" fill="#FFFFFF" height="210.9688" id="AGENT_RECOMMENDATIONS" rx="2.5" ry="2.5" style="stroke:#222222;stroke-width:0.5;" width="232" x="491" y="685.2969"/><ellipse cx="506" cy="701.2969" fill="#ADD1B2" rx="11" ry="11" style="stroke:#181818;stroke-width:1.0;"/><path d="M510.1094,707.2969 L502.3906,707.2969 L502.3906,694.9063 L510.1094,694.9063 L510.1094,697.0625 L504.8438,697.0625 L504.8438,699.7344 L509.6094,699.7344 L509.6094,701.8906 L504.8438,701.8906 L504.8438,705.1406 L510.1094,705.1406 L510.1094,707.2969 Z " fill="#000000"/><text fill="#000000" font-family="sans-serif" font-size="14" lengthAdjust="spacing" textLength="200" x="520" y="706.1436">AGENT_RECOMMENDATIONS</text><line style="stroke:#222222;stroke-width:0.5;" x1="492" x2="722" y1="717.2969" y2="717.2969"/><ellipse cx="502" cy="730.9453" fill="#000000" rx="3" ry="3" style="stroke:#000000;stroke-width:1.0;"/><text fill="#000000" font-family="sans-serif" font-size="14" lengthAdjust="spacing" textLength="126" x="511" y="734.292">id : INTEGER &#171;PK&#187;</text><line style="stroke:#222222;stroke-width:1.0;" x1="492" x2="722" y1="741.5938" y2="741.5938"/><text fill="#000000" font-family="sans-serif" font-size="14" lengthAdjust="spacing" textLength="110" x="511" y="758.5889">type : VARCHAR</text><polygon fill="none" points="502,766.5391,506,770.5391,502,774.5391,498,770.5391" style="stroke:#B38D22;stroke-width:1.0;"/><text fill="#000000" font-family="sans-serif" font-size="14" lengthAdjust="spacing" textLength="186" x="511" y="774.8857">product_id : INTEGER &#171;FK&#187;</text><text fill="#000000" font-family="sans-serif" font-size="14" lengthAdjust="spacing" textLength="105" x="511" y="791.1826">title : VARCHAR</text><text fill="#000000" font-family="sans-serif" font-size="14" lengthAdjust="spacing" textLength="126" x="511" y="807.4795">description : TEXT</text><text fill="#000000" font-family="sans-serif" font-size="14" lengthAdjust="spacing" textLength="126" x="511" y="823.7764">priority : VARCHAR</text><text fill="#000000" font-family="sans-serif" font-size="14" lengthAdjust="spacing" textLength="169" x="511" y="840.0732">estimated_value : FLOAT</text><text fill="#000000" font-family="sans-serif" font-size="14" lengthAdjust="spacing" textLength="163" x="511" y="856.3701">is_approved : BOOLEAN</text><text fill="#000000" font-family="sans-serif" font-size="14" lengthAdjust="spacing" textLength="168" x="511" y="872.667">is_dismissed : BOOLEAN</text><text fill="#000000" font-family="sans-serif" font-size="14" lengthAdjust="spacing" textLength="157" x="511" y="888.9639">created_at : DATETIME</text></g><!--link USERS to PASSWORD_RESET_TOKENS--><g id="link_USERS_PASSWORD_RESET_TOKENS"><path codeLine="164" d="M186,247.6569 C186,295.7869 186,326.9569 186,371.1769 " fill="none" id="USERS-PASSWORD_RESET_TOKENS" style="stroke:#222222;stroke-width:1.0;"/><line style="stroke:#222222;stroke-width:1.0;" x1="182" x2="190" y1="243.6569" y2="243.6569"/><line style="stroke:#222222;stroke-width:1.0;" x1="182" x2="190" y1="246.6569" y2="246.6569"/><line style="stroke:#222222;stroke-width:1.0;" x1="186" x2="186" y1="247.6569" y2="239.6569"/><line style="stroke:#222222;stroke-width:1.0;" x1="186" x2="192" y1="381.1769" y2="389.1769"/><line style="stroke:#222222;stroke-width:1.0;" x1="186" x2="180" y1="381.1769" y2="389.1769"/><line style="stroke:#222222;stroke-width:1.0;" x1="186" x2="186" y1="381.1769" y2="389.1769"/><ellipse cx="186" cy="375.1769" fill="none" rx="4" ry="4" style="stroke:#222222;stroke-width:1.0;"/><text fill="#000000" font-family="sans-serif" font-size="13" lengthAdjust="spacing" textLength="23" x="187" y="282.3638">has</text></g><!--link BRANCHES to ORDERS--><g id="link_BRANCHES_ORDERS"><path codeLine="165" d="M1069.7406,172.4162 C949.2806,211.5062 742.48,280.4069 669,316.2969 C628.47,336.0969 601.3533,351.7678 564.5633,375.8878 " fill="none" id="BRANCHES-ORDERS" style="stroke:#222222;stroke-width:1.0;"/><line style="stroke:#222222;stroke-width:1.0;" x1="1072.3107" x2="1074.78" y1="167.3768" y2="174.9862"/><line style="stroke:#222222;stroke-width:1.0;" x1="1069.4572" x2="1071.9264" y1="168.3028" y2="175.9122"/><line style="stroke:#222222;stroke-width:1.0;" x1="1069.7406" x2="1077.35" y1="172.4162" y2="169.9469"/><line style="stroke:#222222;stroke-width:1.0;" x1="556.2003" x2="552.7997" y1="381.3706" y2="390.7746"/><line style="stroke:#222222;stroke-width:1.0;" x1="556.2003" x2="546.2203" y1="381.3706" y2="380.7391"/><line style="stroke:#222222;stroke-width:1.0;" x1="556.2003" x2="549.51" y1="381.3706" y2="385.7569"/><ellipse cx="561.2181" cy="378.0809" fill="none" rx="4" ry="4" style="stroke:#222222;stroke-width:1.0;"/><text fill="#000000" font-family="sans-serif" font-size="13" lengthAdjust="spacing" textLength="53" x="784" y="282.3638">receives</text></g><!--link BRANCHES to INVENTORY--><g id="link_BRANCHES_INVENTORY"><path codeLine="166" d="M1159.6448,231.2034 C1156.6748,332.1834 1150.64,502.7069 1140,655.2969 C1138.78,672.8469 1138.8385,673.7362 1137.1585,691.5662 " fill="none" id="BRANCHES-INVENTORY" style="stroke:#222222;stroke-width:1.0;"/><line style="stroke:#222222;stroke-width:1.0;" x1="1155.7641" x2="1163.7607" y1="227.0875" y2="227.3227"/><line style="stroke:#222222;stroke-width:1.0;" x1="1155.6759" x2="1163.6725" y1="230.0863" y2="230.3214"/><line style="stroke:#222222;stroke-width:1.0;" x1="1159.6448" x2="1159.88" y1="231.2034" y2="223.2069"/><line style="stroke:#222222;stroke-width:1.0;" x1="1136.2205" x2="1141.4435" y1="701.5222" y2="710.0497"/><line style="stroke:#222222;stroke-width:1.0;" x1="1136.2205" x2="1129.4965" y1="701.5222" y2="708.924"/><line style="stroke:#222222;stroke-width:1.0;" x1="1136.2205" x2="1135.47" y1="701.5222" y2="709.4869"/><ellipse cx="1136.7833" cy="695.5486" fill="none" rx="4" ry="4" style="stroke:#222222;stroke-width:1.0;"/><text fill="#000000" font-family="sans-serif" font-size="13" lengthAdjust="spacing" textLength="34" x="1157" y="466.8638">holds</text></g><!--link BRANCHES to DEMAND_RECORDS--><g id="link_BRANCHES_DEMAND_RECORDS"><path codeLine="167" d="M1190.801,230.7092 C1232.441,357.7892 1304.7851,578.5717 1344.7151,700.4317 " fill="none" id="BRANCHES-DEMAND_RECORDS" style="stroke:#222222;stroke-width:1.0;"/><line style="stroke:#222222;stroke-width:1.0;" x1="1185.7544" x2="1193.3567" y1="228.1535" y2="225.6625"/><line style="stroke:#222222;stroke-width:1.0;" x1="1186.6885" x2="1194.2908" y1="231.0044" y2="228.5134"/><line style="stroke:#222222;stroke-width:1.0;" x1="1190.801" x2="1188.31" y1="230.7092" y2="223.1069"/><line style="stroke:#222222;stroke-width:1.0;" x1="1347.829" x2="1356.0217" y1="709.9346" y2="715.6686"/><line style="stroke:#222222;stroke-width:1.0;" x1="1347.829" x2="1344.6183" y1="709.9346" y2="719.4052"/><line style="stroke:#222222;stroke-width:1.0;" x1="1347.829" x2="1350.32" y1="709.9346" y2="717.5369"/><ellipse cx="1345.9607" cy="704.2329" fill="none" rx="4" ry="4" style="stroke:#222222;stroke-width:1.0;"/><text fill="#000000" font-family="sans-serif" font-size="13" lengthAdjust="spacing" textLength="39" x="1313" y="466.8638">tracks</text></g><!--link SUPPLIERS to ORDERS--><g id="link_SUPPLIERS_ORDERS"><path codeLine="168" d="M532.4696,247.04 C522.3896,271.2 521.3672,273.6374 510.5372,299.5674 " fill="none" id="SUPPLIERS-ORDERS" style="stroke:#222222;stroke-width:1.0;"/><line style="stroke:#222222;stroke-width:1.0;" x1="530.3182" x2="537.7014" y1="241.8083" y2="244.8887"/><line style="stroke:#222222;stroke-width:1.0;" x1="529.1631" x2="536.5462" y1="244.5769" y2="247.6573"/><line style="stroke:#222222;stroke-width:1.0;" x1="532.4696" x2="535.55" y1="247.04" y2="239.6569"/><line style="stroke:#222222;stroke-width:1.0;" x1="506.6832" x2="509.1365" y1="308.7949" y2="318.4893"/><line style="stroke:#222222;stroke-width:1.0;" x1="506.6832" x2="498.0635" y1="308.7949" y2="313.8645"/><line style="stroke:#222222;stroke-width:1.0;" x1="506.6832" x2="503.6" y1="308.7949" y2="316.1769"/><ellipse cx="508.9956" cy="303.2584" fill="none" rx="4" ry="4" style="stroke:#222222;stroke-width:1.0;"/><text fill="#000000" font-family="sans-serif" font-size="13" lengthAdjust="spacing" textLength="35" x="522" y="282.3638">fulfills</text></g><!--link SUPPLIERS to PRODUCTS--><g id="link_SUPPLIERS_PRODUCTS"><path codeLine="169" d="M646.4946,246.2681 C675.4246,288.7281 694.5067,316.7302 722.7267,358.1602 " fill="none" id="SUPPLIERS-PRODUCTS" style="stroke:#222222;stroke-width:1.0;"/><line style="stroke:#222222;stroke-width:1.0;" x1="640.9367" x2="647.5479" y1="245.2148" y2="240.7102"/><line style="stroke:#222222;stroke-width:1.0;" x1="642.6259" x2="649.2371" y1="247.694" y2="243.1895"/><line style="stroke:#222222;stroke-width:1.0;" x1="646.4946" x2="641.99" y1="246.2681" y2="239.6569"/><line style="stroke:#222222;stroke-width:1.0;" x1="728.3563" x2="737.8189" y1="366.425" y2="369.6591"/><line style="stroke:#222222;stroke-width:1.0;" x1="728.3563" x2="727.9011" y1="366.425" y2="376.4146"/><line style="stroke:#222222;stroke-width:1.0;" x1="728.3563" x2="732.86" y1="366.425" y2="373.0369"/><ellipse cx="724.9786" cy="361.4661" fill="none" rx="4" ry="4" style="stroke:#222222;stroke-width:1.0;"/><text fill="#000000" font-family="sans-serif" font-size="13" lengthAdjust="spacing" textLength="54" x="672" y="282.3638">provides</text></g><!--link PRODUCTS to ORDER_ITEMS--><g id="link_PRODUCTS_ORDER_ITEMS"><path codeLine="170" d="M679.7423,538.3772 C616.9023,580.8572 543.07,632.3369 474,685.2969 C457.24,698.1469 453.4687,700.8905 436.9887,714.6705 " fill="none" id="PRODUCTS-ORDER_ITEMS" style="stroke:#222222;stroke-width:1.0;"/><line style="stroke:#222222;stroke-width:1.0;" x1="680.816" x2="685.2963" y1="532.8232" y2="539.4509"/><line style="stroke:#222222;stroke-width:1.0;" x1="678.3306" x2="682.8109" y1="534.5033" y2="541.131"/><line style="stroke:#222222;stroke-width:1.0;" x1="679.7423" x2="686.37" y1="538.3772" y2="533.8969"/><line style="stroke:#222222;stroke-width:1.0;" x1="429.3172" x2="427.0288" y1="721.0852" y2="730.8198"/><line style="stroke:#222222;stroke-width:1.0;" x1="429.3172" x2="419.3312" y1="721.0852" y2="721.614"/><line style="stroke:#222222;stroke-width:1.0;" x1="429.3172" x2="423.18" y1="721.0852" y2="726.2169"/><ellipse cx="433.9201" cy="717.2364" fill="none" rx="4" ry="4" style="stroke:#222222;stroke-width:1.0;"/><text fill="#000000" font-family="sans-serif" font-size="13" lengthAdjust="spacing" textLength="68" x="534" y="651.3638">included in</text></g><!--link PRODUCTS to INVENTORY--><g id="link_PRODUCTS_INVENTORY"><path codeLine="171" d="M863.5848,557.6638 C891.5248,592.1638 920.75,624.5369 956,655.2969 C974.67,671.5869 983.04,670.6169 1003,685.2969 C1013.43,692.9669 1010.0852,689.9863 1020.5952,698.4263 " fill="none" id="PRODUCTS-INVENTORY" style="stroke:#222222;stroke-width:1.0;"/><line style="stroke:#222222;stroke-width:1.0;" x1="857.9589" x2="864.1759" y1="557.0728" y2="552.0379"/><line style="stroke:#222222;stroke-width:1.0;" x1="859.847" x2="866.064" y1="559.4041" y2="554.3693"/><line style="stroke:#222222;stroke-width:1.0;" x1="863.5848" x2="858.55" y1="557.6638" y2="551.4469"/><line style="stroke:#222222;stroke-width:1.0;" x1="1028.3923" x2="1038.3868" y1="704.6877" y2="705.0186"/><line style="stroke:#222222;stroke-width:1.0;" x1="1028.3923" x2="1030.8732" y1="704.6877" y2="714.3751"/><line style="stroke:#222222;stroke-width:1.0;" x1="1028.3923" x2="1034.63" y1="704.6877" y2="709.6969"/><ellipse cx="1023.7141" cy="700.9309" fill="none" rx="4" ry="4" style="stroke:#222222;stroke-width:1.0;"/><text fill="#000000" font-family="sans-serif" font-size="13" lengthAdjust="spacing" textLength="69" x="957" y="651.3638">stocked as</text></g><!--link PRODUCTS to DEMAND_RECORDS--><g id="link_PRODUCTS_DEMAND_RECORDS"><path codeLine="172" d="M907.2031,509.0414 C1002.7231,549.2614 1137.38,611.2169 1251,685.2969 C1265.79,694.9369 1266.7525,694.8501 1280.9025,706.2901 " fill="none" id="PRODUCTS-DEMAND_RECORDS" style="stroke:#222222;stroke-width:1.0;"/><line style="stroke:#222222;stroke-width:1.0;" x1="901.9643" x2="905.0688" y1="511.1757" y2="503.8026"/><line style="stroke:#222222;stroke-width:1.0;" x1="904.7292" x2="907.8337" y1="512.3399" y2="504.9668"/><line style="stroke:#222222;stroke-width:1.0;" x1="907.2031" x2="899.83" y1="509.0414" y2="505.9369"/><line style="stroke:#222222;stroke-width:1.0;" x1="1288.6789" x2="1298.6722" y1="712.5772" y2="712.941"/><line style="stroke:#222222;stroke-width:1.0;" x1="1288.6789" x2="1291.1278" y1="712.5772" y2="722.2727"/><line style="stroke:#222222;stroke-width:1.0;" x1="1288.6789" x2="1294.9" y1="712.5772" y2="717.6069"/><ellipse cx="1284.013" cy="708.805" fill="none" rx="4" ry="4" style="stroke:#222222;stroke-width:1.0;"/><text fill="#000000" font-family="sans-serif" font-size="13" lengthAdjust="spacing" textLength="67" x="1193" y="651.3638">tracked by</text></g><!--link PRODUCTS to COMPETITOR_PRICES--><g id="link_PRODUCTS_COMPETITOR_PRICES"><path codeLine="173" d="M812.2198,559.337 C819.0698,592.047 825.64,621.5469 834,655.2969 C838.38,672.9569 838.6013,674.4822 843.5913,692.3222 " fill="none" id="PRODUCTS-COMPETITOR_PRICES" style="stroke:#222222;stroke-width:1.0;"/><line style="stroke:#222222;stroke-width:1.0;" x1="807.4848" x2="815.315" y1="556.2418" y2="554.6021"/><line style="stroke:#222222;stroke-width:1.0;" x1="808.0997" x2="815.9299" y1="559.1781" y2="557.5384"/><line style="stroke:#222222;stroke-width:1.0;" x1="812.2198" x2="810.58" y1="559.337" y2="551.5069"/><line style="stroke:#222222;stroke-width:1.0;" x1="846.285" x2="854.2182" y1="701.9526" y2="708.0407"/><line style="stroke:#222222;stroke-width:1.0;" x1="846.285" x2="842.6618" y1="701.9526" y2="711.2731"/><line style="stroke:#222222;stroke-width:1.0;" x1="846.285" x2="848.44" y1="701.9526" y2="709.6569"/><ellipse cx="844.6688" cy="696.1744" fill="none" rx="4" ry="4" style="stroke:#222222;stroke-width:1.0;"/><text fill="#000000" font-family="sans-serif" font-size="13" lengthAdjust="spacing" textLength="80" x="835" y="651.3638">compared in</text></g><!--link PRODUCTS to AGENT_RECOMMENDATIONS--><g id="link_PRODUCTS_AGENT_RECOMMENDATIONS"><path codeLine="174" d="M738.7093,558.6076 C715.2493,599.7776 700.049,626.4662 675.539,669.4962 " fill="none" id="PRODUCTS-AGENT_RECOMMENDATIONS" style="stroke:#222222;stroke-width:1.0;"/><line style="stroke:#222222;stroke-width:1.0;" x1="737.2143" x2="744.165" y1="553.1519" y2="557.1126"/><line style="stroke:#222222;stroke-width:1.0;" x1="735.729" x2="742.6797" y1="555.7584" y2="559.7191"/><line style="stroke:#222222;stroke-width:1.0;" x1="738.7093" x2="742.67" y1="558.6076" y2="551.6569"/><line style="stroke:#222222;stroke-width:1.0;" x1="670.5895" x2="671.8436" y1="678.1855" y2="688.1065"/><line style="stroke:#222222;stroke-width:1.0;" x1="670.5895" x2="661.4164" y1="678.1855" y2="682.1672"/><line style="stroke:#222222;stroke-width:1.0;" x1="670.5895" x2="666.63" y1="678.1855" y2="685.1369"/><ellipse cx="673.5592" cy="672.9719" fill="none" rx="4" ry="4" style="stroke:#222222;stroke-width:1.0;"/><text fill="#000000" font-family="sans-serif" font-size="13" lengthAdjust="spacing" textLength="74" x="689" y="651.3638">targeted by</text></g><!--link ORDERS to ORDER_ITEMS--><g id="link_ORDERS_ORDER_ITEMS"><path codeLine="175" d="M379.4976,616.1354 C376.2076,626.1254 375.66,628.5069 373,638.2969 C365.28,666.6669 362.2715,680.9185 358.7015,708.2485 " fill="none" id="ORDERS-ORDER_ITEMS" style="stroke:#222222;stroke-width:1.0;"/><line style="stroke:#222222;stroke-width:1.0;" x1="376.9495" x2="384.5481" y1="611.0849" y2="613.5874"/><line style="stroke:#222222;stroke-width:1.0;" x1="376.0111" x2="383.6097" y1="613.9344" y2="616.4368"/><line style="stroke:#222222;stroke-width:1.0;" x1="379.4976" x2="382" y1="616.1354" y2="608.5369"/><line style="stroke:#222222;stroke-width:1.0;" x1="357.4062" x2="362.3195" y1="718.1643" y2="726.874"/><line style="stroke:#222222;stroke-width:1.0;" x1="357.4062" x2="350.4205" y1="718.1643" y2="725.3197"/><line style="stroke:#222222;stroke-width:1.0;" x1="357.4062" x2="356.37" y1="718.1643" y2="726.0969"/><ellipse cx="358.1834" cy="712.2148" fill="none" rx="4" ry="4" style="stroke:#222222;stroke-width:1.0;"/><text fill="#000000" font-family="sans-serif" font-size="13" lengthAdjust="spacing" textLength="54" x="374" y="651.3638">contains</text></g><!--link ORDERS to ANOMALIES--><g id="link_ORDERS_ANOMALIES"><path codeLine="176" d="M330.9673,595.1938 C324.8173,601.6838 324.14,602.2169 318,608.2969 C280.37,645.5869 267.06,650.6169 227,685.2969 C220.9,690.5769 228.179,684.1868 221.879,689.6968 " fill="none" id="ORDERS-ANOMALIES" style="stroke:#222222;stroke-width:1.0;"/><line style="stroke:#222222;stroke-width:1.0;" x1="330.8152" x2="336.6221" y1="589.539" y2="595.0417"/><line style="stroke:#222222;stroke-width:1.0;" x1="328.7517" x2="334.5586" y1="591.7166" y2="597.2193"/><line style="stroke:#222222;stroke-width:1.0;" x1="330.9673" x2="336.47" y1="595.1938" y2="589.3869"/><line style="stroke:#222222;stroke-width:1.0;" x1="214.3518" x2="212.28" y1="696.2802" y2="706.0632"/><line style="stroke:#222222;stroke-width:1.0;" x1="214.3518" x2="204.38" y1="696.2802" y2="697.0305"/><line style="stroke:#222222;stroke-width:1.0;" x1="214.3518" x2="208.33" y1="696.2802" y2="701.5469"/><ellipse cx="218.8681" cy="692.3302" fill="none" rx="4" ry="4" style="stroke:#222222;stroke-width:1.0;"/><text fill="#000000" font-family="sans-serif" font-size="13" lengthAdjust="spacing" textLength="66" x="286" y="651.3638">flagged by</text></g><!--SRC=[jLPDRziu4BtxLn39hK0kEHf50SLMKwEnP4XAjtiY68gs2DEaoW-dHhl0_eZzXVqb7KcEBOboR6HtBmRy-4I-6RxXZ5bpMH9DDkY9qFLAAoVpYH9Ae-U2MpOoXtKgY35tIkTCDuJhszjRR_tC9aHhzTpwV6Iv5Go5oHJz-liVD2MMF173K4eBjY4r5anGwifIxD2a85oYG1AnivoQqOX9-7o77jCmIT6F4KBl4C_H6CsYBBmF4_J-_UBpXm-0tzp0ZpDCIx9XGFWI99DFGG8WdC951raw8R37AuWfM8vBYF4PSj1PqqfqoTnWGYtVLkXT73-4GGGerOnOs8DOWAT15cQpUGWuvCrYeLOGMml_wn3U8aZJF-9aYfCm3JESnP_3w89mh-k0SO_niM5OjMQohnduUKSn-rvopOodU3YIe-Ax98Wcdy8BH7fvfjNtRO3aEKWm7Qmib7nxneywqyV5uc5saNbyeM1ogtSzJ5gGWNrJQMAvN07qyI4ECW2Kn9Pl68O5reB9TeK58pdEoSuSnRmvmaKIJnydsGK1chNhAFO3XeDMgXUnazpYKdFQ3k8QcQfW-KdtlIqMA86Bhgf-eh1couxIQ_IaYQJ52KbdDIlDeKAnvy-S6mlxChpUj580c7NL1ORHuxnYCK5sM7EpFcBF46u1vncgT3jzr1chDkQ5_G9RPOd0Mo9ScymCsAXEc-SOIB63BpoyoK_U6AzLrL9PLZ6py6lMJpkUPU7yeaUdsVrKaakjSWSLChp-pP7cpBRS0OiTnSsYBs6KnScVbqXx_V0p1XdKfbaJRgcuj9sLlW7gHzwLLTRpONi7KJmFu3NwrracKcsWHMAxAxiLd3D3DIyjL_Bbca5epts6RPdkcnmA5XvX9RQz1f4po-XhDJiDvq5KTQu9s2Zzto_9D_M9QziowORyb8PLpFWXlhz0x3V7-WrWw8s4p3bX3QuxHaT70Gyzr3fTAsSxUJMCQ5gyajT9F5y01ix7YsGs2V-3r5ArAHbihZGUQ7Q7jVvZhvoFrVznpfTBN5BRDXVLf7mbhE0UghbsotmUHa2OnPUCEfxJpyNQJ9rdQmFYK5uj75_S_bjSjRKI3kvN2U3G9JRSzEUhanslcMX__hovKJzEp7_ZQYGT7IQjFNVV8yTWEigWmVgCuui9EoYH-unUpOwHrJ3Lcz5nMkeV1YFpaWinG3dC7-FgHhOSqZmwOErjzWrcZAwufCBba2akhpnkM_rLNJf09COdUa5SrL40-sddi_roWWygqnDzGiYmKwjZY5unkpzddw71GEjXaKlJ8ntR06os56IrQlRw3G00]--></g></svg>