<?xml version="1.0" encoding="us-ascii" standalone="no"?><svg xmlns="http://www.w3.org/2000/svg" xmlns:xlink="http://www.w3.org/1999/xlink" contentStyleType="text/css" height="948px" preserveAspectRatio="none" style="width:884px;height:948px;background:#FFFFFF;" version="1.1" viewBox="0 0 884 948" width="884px" zoomAndPan="magnify"><defs/><g><text fill="#000000" font-family="sans-serif" font-size="14" font-weight="bold" lengthAdjust="spacing" textLength="491" x="192.5" y="27.9951">Sequence Diagram &#8212; Login &#183; Order Creation &#183; Password Reset</text><line style="stroke:#222222;stroke-width:0.5;stroke-dasharray:5.0,5.0;" x1="31" x2="31" y1="89.8906" y2="896.4766"/><line style="stroke:#222222;stroke-width:0.5;stroke-dasharray:5.0,5.0;" x1="299.5" x2="299.5" y1="89.8906" y2="896.4766"/><line style="stroke:#222222;stroke-width:0.5;stroke-dasharray:5.0,5.0;" x1="459.5" x2="459.5" y1="89.8906" y2="896.4766"/><line style="stroke:#222222;stroke-width:0.5;stroke-dasharray:5.0,5.0;" x1="573.5" x2="573.5" y1="89.8906" y2="896.4766"/><line style="stroke:#222222;stroke-width:0.5;stroke-dasharray:5.0,5.0;" x1="746" x2="746" y1="89.8906" y2="896.4766"/><line style="stroke:#222222;stroke-width:0.5;stroke-dasharray:5.0,5.0;" x1="838" x2="838" y1="89.8906" y2="896.4766"/><rect fill="#FFFFFF" height="30.2969" rx="2.5" ry="2.5" style="stroke:#222222;stroke-width:0.5;" width="53" x="5" y="58.5938"/><text fill="#000000" font-family="sans-serif" font-size="14" lengthAdjust="spacing" textLength="39" x="12" y="78.5889">Client</text><rect fill="#FFFFFF" height="30.2969" rx="2.5" ry="2.5" style="stroke:#222222;stroke-width:0.5;" width="53" x="5" y="895.4766"/><text fill="#000000" font-family="sans-serif" font-size="14" lengthAdjust="spacing" textLength="39" x="12" y="915.4717">Client</text><rect fill="#FFFFFF" height="46.5938" rx="2.5" ry="2.5" style="stroke:#222222;stroke-width:0.5;" width="120" x="239.5" y="42.2969"/><text fill="#000000" font-family="sans-serif" font-size="14" lengthAdjust="spacing" textLength="50" x="274.5" y="62.292">FastAPI</text><text fill="#000000" font-family="sans-serif" font-size="14" lengthAdjust="spacing" textLength="106" x="246.5" y="78.5889">/auth + /orders</text><rect fill="#FFFFFF" height="46.5938" rx="2.5" ry="2.5" style="stroke:#222222;stroke-width:0.5;" width="120" x="239.5" y="895.4766"/><text fill="#000000" font-family="sans-serif" font-size="14" lengthAdjust="spacing" textLength="50" x="274.5" y="915.4717">FastAPI</text><text fill="#000000" font-family="sans-serif" font-size="14" lengthAdjust="spacing" textLength="106" x="246.5" y="931.7686">/auth + /orders</text><rect fill="#FFFFFF" height="46.5938" rx="2.5" ry="2.5" style="stroke:#222222;stroke-width:0.5;" width="92" x="413.5" y="42.2969"/><text fill="#000000" font-family="sans-serif" font-size="14" lengthAdjust="spacing" textLength="32" x="443.5" y="62.292">Auth</text><text fill="#000000" font-family="sans-serif" font-size="14" lengthAdjust="spacing" textLength="78" x="420.5" y="78.5889">Middleware</text><rect fill="#FFFFFF" height="46.5938" rx="2.5" ry="2.5" style="stroke:#222222;stroke-width:0.5;" width="92" x="413.5" y="895.4766"/><text fill="#000000" font-family="sans-serif" font-size="14" lengthAdjust="spacing" textLength="32" x="443.5" y="915.4717">Auth</text><text fill="#000000" font-family="sans-serif" font-size="14" lengthAdjust="spacing" textLength="78" x="420.5" y="931.7686">Middleware</text><rect fill="#FFFFFF" height="46.5938" rx="2.5" ry="2.5" style="stroke:#222222;stroke-width:0.5;" width="116" x="515.5" y="42.2969"/><text fill="#000000" font-family="sans-serif" font-size="14" lengthAdjust="spacing" textLength="73" x="537" y="62.292">ML Service</text><text fill="#000000" font-family="sans-serif" font-size="14" lengthAdjust="spacing" textLength="102" x="522.5" y="78.5889">RandomForest</text><rect fill="#FFFFFF" height="46.5938" rx="2.5" ry="2.5" style="stroke:#222222;stroke-width:0.5;" width="116" x="515.5" y="895.4766"/><text fill="#000000" font-family="sans-serif" font-size="14" lengthAdjust="spacing" textLength="73" x="537" y="915.4717">ML Service</text><text fill="#000000" font-family="sans-serif" font-size="14" lengthAdjust="spacing" textLength="102" x="522.5" y="931.7686">RandomForest</text><rect fill="#FFFFFF" height="30.2969" rx="2.5" ry="2.5" style="stroke:#222222;stroke-width:0.5;" width="95" x="699" y="58.5938"/><text fill="#000000" font-family="sans-serif" font-size="14" lengthAdjust="spacing" textLength="81" x="706" y="78.5889">PostgreSQL</text><rect fill="#FFFFFF" height="30.2969" rx="2.5" ry="2.5" style="stroke:#222222;stroke-width:0.5;" width="95" x="699" y="895.4766"/><text fill="#000000" font-family="sans-serif" font-size="14" lengthAdjust="spacing" textLength="81" x="706" y="915.4717">PostgreSQL</text><rect fill="#FFFFFF" height="46.5938" rx="2.5" ry="2.5" style="stroke:#222222;stroke-width:0.5;" width="68" x="804" y="42.2969"/><text fill="#000000" font-family="sans-serif" font-size="14" lengthAdjust="spacing" textLength="54" x="811" y="62.292">Resend</text><text fill="#000000" font-family="sans-serif" font-size="14" lengthAdjust="spacing" textLength="36" x="820" y="78.5889">Email</text><rect fill="#FFFFFF" height="46.5938" rx="2.5" ry="2.5" style="stroke:#222222;stroke-width:0.5;" width="68" x="804" y="895.4766"/><text fill="#000000" font-family="sans-serif" font-size="14" lengthAdjust="spacing" textLength="54" x="811" y="915.4717">Resend</text><text fill="#000000" font-family="sans-serif" font-size="14" lengthAdjust="spacing" textLength="36" x="820" y="931.7686">Email</text><rect fill="#EEEEEE" height="3" style="stroke:#EEEEEE;stroke-width:1.0;" width="877" x="0" y="120.457"/><line style="stroke:#000000;stroke-width:1.0;" x1="0" x2="877" y1="120.457" y2="120.457"/><line style="stroke:#000000;stroke-width:1.0;" x1="0" x2="877" y1="123.457" y2="123.457"/><rect fill="#EEEEEE" height="23.1328" style="stroke:#000000;stroke-width:2.0;" width="98" x="389.5" y="109.8906"/><text fill="#000000" font-family="sans-serif" font-size="13" font-weight="bold" lengthAdjust="spacing" textLength="79" x="395.5" y="125.9575">Login Flow</text><polygon fill="#222222" points="287.5,175.2891,297.5,179.2891,287.5,183.2891,291.5,179.2891" style="stroke:#222222;stroke-width:1.0;"/><line style="stroke:#222222;stroke-width:1.0;" x1="31.5" x2="293.5" y1="179.2891" y2="179.2891"/><text fill="#000000" font-family="sans-serif" font-size="13" lengthAdjust="spacing" textLength="111" x="38.5" y="159.0903">POST /auth/token</text><text fill="#000000" font-family="sans-serif" font-size="13" lengthAdjust="spacing" textLength="157" x="38.5" y="174.2231">{ username, password }</text><polygon fill="#222222" points="447.5,204.4219,457.5,208.4219,447.5,212.4219,451.5,208.4219" style="stroke:#222222;stroke-width:1.0;"/><line style="stroke:#222222;stroke-width:1.0;" x1="299.5" x2="453.5" y1="208.4219" y2="208.4219"/><text fill="#000000" font-family="sans-serif" font-size="13" lengthAdjust="spacing" textLength="124" x="306.5" y="203.356">validate credentials</text><polygon fill="#222222" points="734.5,233.5547,744.5,237.5547,734.5,241.5547,738.5,237.5547" style="stroke:#222222;stroke-width:1.0;"/><line style="stroke:#222222;stroke-width:1.0;" x1="459.5" x2="740.5" y1="237.5547" y2="237.5547"/><text fill="#000000" font-family="sans-serif" font-size="13" lengthAdjust="spacing" textLength="263" x="466.5" y="232.4888">SELECT FROM users WHERE username=?</text><polygon fill="#222222" points="470.5,262.6875,460.5,266.6875,470.5,270.6875,466.5,266.6875" style="stroke:#222222;stroke-width:1.0;"/><line style="stroke:#222222;stroke-width:1.0;stroke-dasharray:2.0,2.0;" x1="464.5" x2="745.5" y1="266.6875" y2="266.6875"/><text fill="#000000" font-family="sans-serif" font-size="13" lengthAdjust="spacing" textLength="73" x="476.5" y="261.6216">user record</text><polygon fill="#222222" points="310.5,291.8203,300.5,295.8203,310.5,299.8203,306.5,295.8203" style="stroke:#222222;stroke-width:1.0;"/><line style="stroke:#222222;stroke-width:1.0;stroke-dasharray:2.0,2.0;" x1="304.5" x2="458.5" y1="295.8203" y2="295.8203"/><text fill="#000000" font-family="sans-serif" font-size="13" lengthAdjust="spacing" textLength="136" x="316.5" y="290.7544">bcrypt.verify() &#8594; valid</text><polygon fill="#222222" points="734.5,320.9531,744.5,324.9531,734.5,328.9531,738.5,324.9531" style="stroke:#222222;stroke-width:1.0;"/><line style="stroke:#222222;stroke-width:1.0;" x1="299.5" x2="740.5" y1="324.9531" y2="324.9531"/><text fill="#000000" font-family="sans-serif" font-size="13" lengthAdjust="spacing" textLength="116" x="306.5" y="319.8872">UPDATE last_login</text><polygon fill="#222222" points="42.5,350.0859,32.5,354.0859,42.5,358.0859,38.5,354.0859" style="stroke:#222222;stroke-width:1.0;"/><line style="stroke:#222222;stroke-width:1.0;stroke-dasharray:2.0,2.0;" x1="36.5" x2="298.5" y1="354.0859" y2="354.0859"/><text fill="#000000" font-family="sans-serif" font-size="13" lengthAdjust="spacing" textLength="193" x="48.5" y="349.02">200 OK { access_token, role }</text><rect fill="#EEEEEE" height="3" style="stroke:#EEEEEE;stroke-width:1.0;" width="877" x="0" y="382.6523"/><line style="stroke:#000000;stroke-width:1.0;" x1="0" x2="877" y1="382.6523" y2="382.6523"/><line style="stroke:#000000;stroke-width:1.0;" x1="0" x2="877" y1="385.6523" y2="385.6523"/><rect fill="#EEEEEE" height="23.1328" style="stroke:#000000;stroke-width:2.0;" width="128" x="374.5" y="372.0859"/><text fill="#000000" font-family="sans-serif" font-size="13" font-weight="bold" lengthAdjust="spacing" textLength="109" x="380.5" y="388.1528">Order Creation</text><polygon fill="#222222" points="287.5,437.4844,297.5,441.4844,287.5,445.4844,291.5,441.4844" style="stroke:#222222;stroke-width:1.0;"/><line style="stroke:#222222;stroke-width:1.0;" x1="31.5" x2="293.5" y1="441.4844" y2="441.4844"/><text fill="#000000" font-family="sans-serif" font-size="13" lengthAdjust="spacing" textLength="87" x="38.5" y="421.2856">POST /orders/</text><text fill="#000000" font-family="sans-serif" font-size="13" lengthAdjust="spacing" textLength="169" x="38.5" y="436.4185">Bearer token + order data</text><polygon fill="#222222" points="447.5,466.6172,457.5,470.6172,447.5,474.6172,451.5,470.6172" style="stroke:#222222;stroke-width:1.0;"/><line style="stroke:#222222;stroke-width:1.0;" x1="299.5" x2="453.5" y1="470.6172" y2="470.6172"/><text fill="#000000" font-family="sans-serif" font-size="13" lengthAdjust="spacing" textLength="99" x="306.5" y="465.5513">verify JWT token</text><polygon fill="#222222" points="734.5,495.75,744.5,499.75,734.5,503.75,738.5,499.75" style="stroke:#222222;stroke-width:1.0;"/><line style="stroke:#222222;stroke-width:1.0;" x1="299.5" x2="740.5" y1="499.75" y2="499.75"/><text fill="#000000" font-family="sans-serif" font-size="13" lengthAdjust="spacing" textLength="165" x="306.5" y="494.6841">SELECT branch + supplier</text><polygon fill="#222222" points="310.5,524.8828,300.5,528.8828,310.5,532.8828,306.5,528.8828" style="stroke:#222222;stroke-width:1.0;"/><line style="stroke:#222222;stroke-width:1.0;stroke-dasharray:2.0,2.0;" x1="304.5" x2="745.5" y1="528.8828" y2="528.8828"/><text fill="#000000" font-family="sans-serif" font-size="13" lengthAdjust="spacing" textLength="87" x="316.5" y="523.8169">entities found</text><polygon fill="#222222" points="561.5,554.0156,571.5,558.0156,561.5,562.0156,565.5,558.0156" style="stroke:#222222;stroke-width:1.0;"/><line style="stroke:#222222;stroke-width:1.0;" x1="299.5" x2="567.5" y1="558.0156" y2="558.0156"/><text fill="#000000" font-family="sans-serif" font-size="13" lengthAdjust="spacing" textLength="144" x="306.5" y="552.9497">predict_delay(params)</text><polygon fill="#222222" points="310.5,583.1484,300.5,587.1484,310.5,591.1484,306.5,587.1484" style="stroke:#222222;stroke-width:1.0;"/><line style="stroke:#222222;stroke-width:1.0;stroke-dasharray:2.0,2.0;" x1="304.5" x2="572.5" y1="587.1484" y2="587.1484"/><text fill="#000000" font-family="sans-serif" font-size="13" lengthAdjust="spacing" textLength="159" x="316.5" y="582.0825">{ risk_class, probability }</text><polygon fill="#222222" points="734.5,612.2813,744.5,616.2813,734.5,620.2813,738.5,616.2813" style="stroke:#222222;stroke-width:1.0;"/><line style="stroke:#222222;stroke-width:1.0;" x1="299.5" x2="740.5" y1="616.2813" y2="616.2813"/><text fill="#000000" font-family="sans-serif" font-size="13" lengthAdjust="spacing" textLength="179" x="306.5" y="611.2153">INSERT order + order_items</text><polygon fill="#222222" points="734.5,641.4141,744.5,645.4141,734.5,649.4141,738.5,645.4141" style="stroke:#222222;stroke-width:1.0;"/><line style="stroke:#222222;stroke-width:1.0;" x1="299.5" x2="740.5" y1="645.4141" y2="645.4141"/><text fill="#000000" font-family="sans-serif" font-size="13" lengthAdjust="spacing" textLength="211" x="306.5" y="640.3481">UPDATE inventory (deduct stock)</text><polygon fill="#222222" points="734.5,670.5469,744.5,674.5469,734.5,678.5469,738.5,674.5469" style="stroke:#222222;stroke-width:1.0;"/><line style="stroke:#222222;stroke-width:1.0;" x1="299.5" x2="740.5" y1="674.5469" y2="674.5469"/><text fill="#000000" font-family="sans-serif" font-size="13" lengthAdjust="spacing" textLength="167" x="306.5" y="669.481">check reorder_point alerts</text><polygon fill="#222222" points="42.5,699.6797,32.5,703.6797,42.5,707.6797,38.5,703.6797" style="stroke:#222222;stroke-width:1.0;"/><line style="stroke:#222222;stroke-width:1.0;stroke-dasharray:2.0,2.0;" x1="36.5" x2="298.5" y1="703.6797" y2="703.6797"/><text fill="#000000" font-family="sans-serif" font-size="13" lengthAdjust="spacing" textLength="212" x="48.5" y="698.6138">201 Created { order, delay_risk }</text><rect fill="#EEEEEE" height="3" style="stroke:#EEEEEE;stroke-width:1.0;" width="877" x="0" y="732.2461"/><line style="stroke:#000000;stroke-width:1.0;" x1="0" x2="877" y1="732.2461" y2="732.2461"/><line style="stroke:#000000;stroke-width:1.0;" x1="0" x2="877" y1="735.2461" y2="735.2461"/><rect fill="#EEEEEE" height="23.1328" style="stroke:#000000;stroke-width:2.0;" width="138" x="369.5" y="721.6797"/><text fill="#000000" font-family="sans-serif" font-size="13" font-weight="bold" lengthAdjust="spacing" textLength="119" x="375.5" y="737.7466">Password Reset</text><polygon fill="#222222" points="287.5,787.0781,297.5,791.0781,287.5,795.0781,291.5,791.0781" style="stroke:#222222;stroke-width:1.0;"/><line style="stroke:#222222;stroke-width:1.0;" x1="31.5" x2="293.5" y1="791.0781" y2="791.0781"/><text fill="#000000" font-family="sans-serif" font-size="13" lengthAdjust="spacing" textLength="178" x="38.5" y="770.8794">POST /auth/forgot-password</text><text fill="#000000" font-family="sans-serif" font-size="13" lengthAdjust="spacing" textLength="59" x="38.5" y="786.0122">{ email }</text><polygon fill="#222222" points="734.5,816.2109,744.5,820.2109,734.5,824.2109,738.5,820.2109" style="stroke:#222222;stroke-width:1.0;"/><line style="stroke:#222222;stroke-width:1.0;" x1="299.5" x2="740.5" y1="820.2109" y2="820.2109"/><text fill="#000000" font-family="sans-serif" font-size="13" lengthAdjust="spacing" textLength="210" x="306.5" y="815.145">INSERT reset_token (expires 1hr)</text><polygon fill="#222222" points="826,845.3438,836,849.3438,826,853.3438,830,849.3438" style="stroke:#222222;stroke-width:1.0;"/><line style="stroke:#222222;stroke-width:1.0;" x1="299.5" x2="832" y1="849.3438" y2="849.3438"/><text fill="#000000" font-family="sans-serif" font-size="13" lengthAdjust="spacing" textLength="204" x="306.5" y="844.2778">send reset email via Resend API</text><polygon fill="#222222" points="42.5,874.4766,32.5,878.4766,42.5,882.4766,38.5,878.4766" style="stroke:#222222;stroke-width:1.0;"/><line style="stroke:#222222;stroke-width:1.0;stroke-dasharray:2.0,2.0;" x1="36.5" x2="298.5" y1="878.4766" y2="878.4766"/><text fill="#000000" font-family="sans-serif" font-size="13" lengthAdjust="spacing" textLength="244" x="48.5" y="873.4106">200 OK { "If email exists, reset sent" }</text><!--SRC=[ZLHDRnen4BtlhnYb5w8c9U4OYLQmB0hjKYWGvOA4Z7S0YyNUsWQ2eaWzzGTK_I-zzwVabtJiNK2Rqe_3NZpFps_Ul5cp539ZcgrWolXohjLQ9g5AbORjGbWCpA5kyFCQ9SS-qrPmaJ5fcqedg7FugrgjzW_qVpxGq5fj_qeQYnbz4dzxFx32fWZ30WSjmURkulENxn2hkP3mymVqt2K8DJ8hb3_fCsEsn0K3D6Y383kAXhCm5IZj6J03ORdIPiOs-fsnhBArNS1hg7ezncEfK4Ot23EMNP4aAMwPnXnrDxejmxenoTSRmN4i1qmcQjLM6aqke1kNmNrbx5pZy5FiowrckUpQaSbOHYicKe-8kerE70JrUc57ErLRgDU342xVEibm0_tUS0I-ewfLIvHZ-GXhWrgo5Lv0jhVgAN1mTujQe6iRbeg4MGIkCI7314jDu6k4QJK9COpYA1n1Uz3hUa83zxVH83gGrzy5XBiyKhe2QEJqNC5q43dbUfVPDnlKOhQhdCFprs-vWhqg_-9TlzKOHP3Id2QfwpUlKZcaQktg2deVu14OvsZCn7Tx0LfHWfwyHo-ISigdVEBLiMmYpLI39w4e-7CWGzXBdxnaU7y_oh4bmOL5KyqaTu4owooZ-Ec3CVvbvwuLQ63cbcbFGC6vWOpC5znE4apPhkAtnfm7L3hUVWGjp7B2oHL3yzHgogOY5NPt7AdNqlauZ0QZef6YeGbjxCgSybZ83SbIUWUL19Crjs2iuilp4fOla2zfeZbNfWI5bAMehNancElST4n8hGTVWEzeugGNmoalxPz3F5DwhkpbFhWkpkZsuNIxsf7bKO0AFcI23k1weG-D-0qYlDki75tGRGI3VE7yxfzCsbbdLg3nGHXB_kSCnlzXddu1]--></g></svg>